<svg width="343" height="343" viewBox="0 0 343 343" fill="none" xmlns="http://www.w3.org/2000/svg">
<path d="M171.462 334.627C261.5 334.627 334.516 261.636 334.547 171.597C334.578 81.559 261.613 8.56848 171.574 8.56848C81.5358 8.56848 8.52004 81.559 8.48906 171.597C8.45807 261.636 81.4236 334.627 171.462 334.627Z" fill="#FAFAFA"/>
<path d="M277.893 211.992L277.288 227.165L276.684 242.442L274.502 297.013L274.06 308.412C273.647 308.721 273.22 309.045 272.793 309.355L273.25 298.031L276.065 227.106L276.626 213.216H170.908L170.363 227.106L169.744 242.442L166.118 333.877L165.779 342.458C165.367 342.458 164.969 342.444 164.556 342.414L164.895 333.847L169.14 227.165L169.744 211.993L277.893 211.992Z" fill="#1A598C"/>
<path d="M280.325 303.457C279.941 303.781 279.543 304.106 279.146 304.415L278.703 293.43L276.684 242.442L276.065 227.106L275.519 213.216H169.803L170.363 227.106L174.608 333.95L174.962 342.532C174.549 342.532 174.136 342.546 173.738 342.546L173.384 333.965L169.744 242.442L169.139 227.165L168.535 211.992H276.683L277.288 227.165L279.882 292.368L280.325 303.457Z" fill="#1A598C"/>
<path d="M281.666 302.322C281.224 302.705 280.782 303.088 280.325 303.457C279.941 303.781 279.543 304.106 279.146 304.415C277.48 305.787 275.785 307.114 274.06 308.412C273.647 308.721 273.22 309.045 272.793 309.355C272.424 309.62 272.056 309.901 271.687 310.166C268.459 312.511 265.172 314.722 261.812 316.816H175.316L169.169 162.699H276.094L281.224 291.13L281.666 302.322Z" fill="#BFB9B7"/>
<path d="M274.237 162.699L268.71 301.569L268.268 312.57C266.145 314.045 263.993 315.46 261.811 316.816H161.18L167.312 162.699H274.237Z" fill="#F2EBE9"/>
<path d="M195.446 270.386L194.281 269.971L204.416 241.531L226.394 235.715L234.292 204.5L251.252 197.011L255.05 172.739L256.272 172.931L252.369 197.87L235.343 205.388L227.414 236.725L205.362 242.56L195.446 270.386Z" fill="#017AFF"/>
<path d="M229.457 234.132C230.61 235.542 230.401 237.621 228.991 238.774C227.581 239.927 225.503 239.718 224.35 238.308C223.197 236.897 223.406 234.819 224.816 233.665C226.227 232.512 228.305 232.721 229.457 234.132Z" fill="#F5EEEC"/>
<path d="M229.382 239.253C227.71 240.62 225.238 240.372 223.871 238.699C222.505 237.027 222.753 234.554 224.425 233.186C226.097 231.82 228.569 232.068 229.936 233.741C231.303 235.413 231.055 237.886 229.382 239.253ZM225.208 234.144C224.064 235.08 223.894 236.772 224.829 237.916C225.764 239.06 227.455 239.231 228.599 238.295C229.744 237.36 229.914 235.668 228.978 234.524C228.043 233.379 226.352 233.209 225.208 234.144Z" fill="#017AFF"/>
<path d="M237.46 203.045C238.612 204.455 238.404 206.534 236.993 207.687C235.583 208.841 233.505 208.631 232.352 207.221C231.2 205.81 231.409 203.732 232.819 202.578C234.229 201.425 236.307 201.633 237.46 203.045Z" fill="#F5EEEC"/>
<path d="M237.385 208.166C235.713 209.533 233.241 209.285 231.874 207.612C230.507 205.939 230.756 203.466 232.428 202.099C234.1 200.732 236.572 200.98 237.939 202.653C239.306 204.326 239.057 206.799 237.385 208.166ZM233.21 203.057C232.066 203.992 231.896 205.684 232.831 206.829C233.767 207.973 235.458 208.143 236.602 207.208C237.746 206.273 237.916 204.581 236.981 203.436C236.046 202.291 234.355 202.121 233.21 203.057Z" fill="#017AFF"/>
<path d="M254.159 195.343C255.312 196.754 255.103 198.832 253.693 199.986C252.282 201.139 250.205 200.93 249.052 199.519C247.899 198.109 248.108 196.03 249.518 194.877C250.928 193.723 253.006 193.932 254.159 195.343Z" fill="#F5EEEC"/>
<path d="M207.566 240.237C208.718 241.648 208.509 243.727 207.099 244.88C205.689 246.033 203.611 245.824 202.458 244.413C201.305 243.003 201.515 240.924 202.924 239.771C204.335 238.618 206.413 238.827 207.566 240.237Z" fill="#F5EEEC"/>
<path d="M207.49 245.359C205.818 246.726 203.346 246.478 201.979 244.805C200.613 243.132 200.861 240.659 202.533 239.292C204.205 237.925 206.678 238.174 208.044 239.846C209.411 241.519 209.163 243.991 207.49 245.359ZM203.316 240.25C202.172 241.186 202.002 242.877 202.937 244.022C203.872 245.166 205.564 245.336 206.708 244.401C207.852 243.465 208.022 241.774 207.087 240.629C206.152 239.484 204.46 239.314 203.316 240.25Z" fill="#017AFF"/>
<path d="M211.182 202.917H182.899C181.591 202.917 180.531 201.857 180.531 200.549V198.443C180.531 197.135 181.591 196.075 182.899 196.075H211.182C212.49 196.075 213.55 197.135 213.55 198.443V200.549C213.549 201.857 212.49 202.917 211.182 202.917Z" fill="#DED7D5"/>
<path d="M211.182 190.955H182.899C181.591 190.955 180.531 189.895 180.531 188.587V186.481C180.531 185.173 181.591 184.112 182.899 184.112H211.182C212.49 184.112 213.55 185.172 213.55 186.481V188.587C213.549 189.895 212.49 190.955 211.182 190.955Z" fill="#DED7D5"/>
<path d="M254.084 200.464C252.412 201.832 249.94 201.583 248.572 199.91C247.206 198.237 247.454 195.765 249.127 194.398C250.799 193.03 253.271 193.279 254.638 194.952C256.004 196.624 255.756 199.098 254.084 200.464ZM249.91 195.355C248.765 196.291 248.595 197.983 249.531 199.127C250.466 200.272 252.157 200.442 253.301 199.506C254.445 198.571 254.615 196.879 253.68 195.735C252.745 194.59 251.053 194.42 249.91 195.355Z" fill="#017AFF"/>
<path d="M186.476 297.853L185.733 297.319L198.762 279.168L215.584 279.533L227.592 258.949L241.187 257.097L248.857 240.611L249.687 240.998L241.806 257.937L228.157 259.796L216.103 280.46L199.225 280.094L186.476 297.853Z" fill="#017AFF"/>
<path d="M218.088 279.034C218.618 280.274 218.045 281.709 216.805 282.241C215.567 282.772 214.131 282.198 213.6 280.958C213.069 279.719 213.643 278.284 214.882 277.752C216.122 277.221 217.556 277.795 218.088 279.034Z" fill="#F5EEEC"/>
<path d="M216.986 282.662C215.517 283.292 213.809 282.609 213.18 281.139C212.55 279.67 213.233 277.961 214.702 277.332C216.171 276.702 217.879 277.385 218.508 278.854C219.138 280.324 218.455 282.032 216.986 282.662ZM215.063 278.173C214.057 278.604 213.59 279.772 214.021 280.779C214.452 281.784 215.62 282.252 216.625 281.821C217.631 281.39 218.098 280.221 217.667 279.215C217.236 278.209 216.068 277.742 215.063 278.173Z" fill="#017AFF"/>
<path d="M230.143 258.563C230.674 259.803 230.1 261.238 228.861 261.769C227.621 262.301 226.186 261.726 225.656 260.487C225.124 259.247 225.698 257.812 226.938 257.281C228.177 256.749 229.612 257.323 230.143 258.563Z" fill="#F5EEEC"/>
<path d="M229.041 262.19C227.572 262.82 225.865 262.137 225.235 260.667C224.605 259.198 225.288 257.489 226.757 256.86C228.226 256.23 229.934 256.913 230.563 258.383C231.193 259.852 230.51 261.56 229.041 262.19ZM227.118 257.701C226.113 258.132 225.646 259.301 226.076 260.306C226.507 261.312 227.675 261.78 228.681 261.348C229.686 260.918 230.153 259.749 229.722 258.743C229.291 257.738 228.123 257.27 227.118 257.701Z" fill="#017AFF"/>
<path d="M243.596 256.506C244.127 257.746 243.553 259.181 242.314 259.712C241.075 260.244 239.64 259.67 239.109 258.43C238.578 257.19 239.152 255.755 240.391 255.223C241.63 254.692 243.065 255.266 243.596 256.506Z" fill="#F5EEEC"/>
<path d="M201.267 278.893C201.798 280.132 201.224 281.568 199.985 282.099C198.746 282.631 197.311 282.057 196.78 280.817C196.249 279.577 196.823 278.142 198.062 277.61C199.301 277.079 200.736 277.653 201.267 278.893Z" fill="#F5EEEC"/>
<path d="M200.166 282.52C198.696 283.15 196.989 282.467 196.359 280.997C195.73 279.527 196.412 277.819 197.882 277.19C199.351 276.56 201.058 277.243 201.688 278.712C202.317 280.182 201.634 281.89 200.166 282.52ZM198.243 278.031C197.237 278.462 196.77 279.631 197.201 280.637C197.632 281.642 198.8 282.11 199.805 281.679C200.811 281.248 201.278 280.079 200.847 279.073C200.416 278.068 199.247 277.6 198.243 278.031Z" fill="#017AFF"/>
<path d="M242.495 260.133C241.025 260.763 239.318 260.08 238.688 258.61C238.059 257.141 238.742 255.433 240.211 254.802C241.68 254.173 243.387 254.856 244.017 256.326C244.647 257.795 243.964 259.503 242.495 260.133ZM240.571 255.644C239.566 256.075 239.099 257.244 239.53 258.25C239.961 259.255 241.129 259.723 242.134 259.291C243.14 258.86 243.607 257.692 243.176 256.687C242.745 255.681 241.577 255.213 240.571 255.644Z" fill="#017AFF"/>
<path d="M171.522 0.63623C77.0936 0.63623 0.624756 77.1072 0.624756 171.607C0.624756 265.781 76.8454 342.563 171.522 342.563C266.021 342.563 342.419 266 342.419 171.607C342.419 77.1509 265.989 0.63623 171.522 0.63623ZM171.522 333.982C82.2357 333.982 9.18837 261.36 9.18837 171.607C9.18837 82.0595 82.0054 9.21779 171.522 9.21779C261.04 9.21779 333.855 82.0591 333.855 171.607C333.855 261.705 260.506 333.982 171.522 333.982Z" fill="url(#paint0_linear_7_1005)"/>
<path d="M115.877 121.267C115.877 121.267 114.034 139.463 117.393 144.028C117.393 144.028 108.496 142.089 106.436 139.025C104.376 135.961 115.877 121.267 115.877 121.267Z" fill="#E8734D"/>
<path d="M171.43 179.372C171.43 179.372 174.658 177.202 175.161 176.886C175.665 176.571 177.322 176.623 179.221 176.848C181.119 177.074 183.582 178.228 183.731 178.523C183.879 178.818 184.166 179.046 184.047 179.884C183.928 180.721 183.366 181.364 183.366 181.364C183.366 181.364 183.705 182.466 182.953 183.206C182.953 183.206 183.224 184.258 182.234 184.958C182.234 184.958 182.47 185.991 181.707 186.44C181.707 186.44 180.046 186.39 179.425 186.549C178.805 186.709 175.357 186.369 172.099 185.533C172.099 185.533 168.467 184.754 171.43 179.372Z" fill="#EEA886"/>
<path d="M176.925 180.878C176.925 180.878 175.953 182.573 175.439 182.911C174.925 183.249 177.924 186.475 177.924 186.475C177.924 186.475 178.953 182.115 176.925 180.878Z" fill="#CF8C6C"/>
<path d="M169.519 179.684C169.519 179.684 171.551 179.458 172.804 178.879C174.058 178.3 172.568 185.205 172.568 185.205C172.568 185.205 169.527 183.107 167.544 183.045C165.561 182.982 169.519 179.684 169.519 179.684Z" fill="#EEA886"/>
<path d="M103.997 236.324C103.997 238.889 102.509 245.658 100.519 253.59C96.5095 269.515 90.4661 290.203 90.3042 291.353C90.1123 292.71 88.8596 304.019 88.0341 310.817C87.7985 312.675 87.6066 314.179 87.4742 315.078C87.371 315.801 87.3564 317.762 87.386 320.489C84.0398 318.602 80.7527 316.582 77.5248 314.444C75.8296 313.323 74.1494 312.173 72.4834 310.979C71.9822 310.61 71.481 310.256 70.9802 309.873C70.9652 306.732 71.3191 303.208 71.8349 299.684C72.9551 291.987 74.7535 284.349 74.7976 281.061C74.8713 275.753 71.8794 239.804 73.766 229.099C75.6527 218.379 82.5803 209.355 82.5803 209.355C90.1277 203.678 95.2127 207.025 98.5293 213.115C102.582 220.546 103.997 232.077 103.997 236.324Z" fill="#1D3B54"/>
<path d="M134.156 277.478C134.038 278.599 132.726 297.178 132.726 297.178L131.105 328.88L130.648 337.653C129.631 337.418 128.614 337.152 127.611 336.887C124.928 336.194 122.275 335.427 119.637 334.586C118.03 334.085 116.438 333.539 114.861 332.993C114.552 329.676 114.257 326.418 113.977 323.453C113.52 318.366 113.151 314.179 112.989 312.085C112.37 303.96 117.426 291.398 116.188 287.947C115.333 285.543 106.061 265.519 100.519 253.59C98.0869 248.385 96.3772 244.728 96.3772 244.728C96.3772 244.728 88.8597 220.974 98.529 213.114C102.096 210.21 107.992 209.473 117.455 212.879C117.455 212.879 128.864 256.421 130.22 262.466C131.577 268.498 134.288 276.372 134.156 277.478Z" fill="#1D3B54"/>
<path d="M113.931 147.712C113.931 147.712 118.493 148.142 121.939 151.836C125.385 155.53 128.619 161.419 129.522 163.389C130.425 165.359 143.077 183.616 143.733 184.026C144.389 184.437 149.919 182.982 154.35 182.613C161.58 182.01 172.396 178.326 172.396 178.326L174.002 186.499C174.002 186.499 147.401 195.086 141.263 193.573C133.756 191.723 116.476 169.546 116.476 169.546C116.476 169.546 103.593 154.442 113.931 147.712Z" fill="#FFC05C"/>
<path d="M105.972 144.51C105.972 144.51 111.881 147.301 113.932 147.711C115.983 148.122 123.942 158.464 125.337 162.24C126.732 166.015 125.337 171.679 122.465 178.328C119.593 184.977 122.301 187.193 120.988 193.842C119.675 200.49 119.677 218.616 119.923 222.309C120.169 226.003 81.9375 232.969 74.3066 226.239C74.3066 226.239 79.4727 209.202 85.5889 202.804C86.9116 201.421 86.7719 192.2 85.8691 189.902C84.9666 187.603 74.7921 170.449 74.7921 170.449C74.7921 170.449 74.0447 153.049 78.4844 149.6C82.3411 146.604 92.8517 145.536 94.7387 144.879C96.6262 144.221 102.116 143.935 105.972 144.51Z" fill="#FFC05C"/>
<path d="M107.86 157.685L111.45 153.479L108.333 142.408C108.333 142.408 107.286 148.574 107.86 157.685Z" fill="#D1C0BA"/>
<path d="M85.3565 147.712C85.3565 147.712 77.9099 145.577 73.643 153.786C69.3762 161.994 70.443 166.426 69.4584 170.12C68.4738 173.813 64.5353 198.52 64.2891 199.587C64.043 200.654 60.2685 213.213 60.7608 217.071C61.2531 220.929 64.7815 250.15 64.6171 251.135C64.4531 252.12 71.4277 250.191 71.4277 250.191C71.4277 250.191 71.1402 220.354 71.3868 217.892C71.6329 215.429 71.8791 202.501 73.7252 199.177C75.5714 195.853 80.1257 175.537 81.1103 173.444C82.0949 171.351 91.6334 150.379 85.3565 147.712Z" fill="#EEA886"/>
<path d="M108.792 137.691C108.792 137.691 107.613 148.532 107.86 152.061C107.86 152.061 101.721 158.215 94.739 144.878C94.739 144.878 97.6767 139.381 95.4653 131.89C93.254 124.4 108.792 137.691 108.792 137.691Z" fill="#EEA886"/>
<path d="M107.86 152.062V157.685L101.261 151.835L107.86 152.062Z" fill="#EEA886"/>
<path d="M107.86 157.685L104.926 154.052L95.0455 144.201L91.3435 145.845L107.86 157.685Z" fill="#D1C0BA"/>
<path d="M111.45 153.479L115.973 154.73L108.332 142.408L111.45 153.479Z" fill="#FAE6DE"/>
<path d="M104.926 154.052L100.795 160.675L91.1929 145.609L95.3046 143.515L104.926 154.052Z" fill="#FAE6DE"/>
<path d="M125.976 180.78C125.976 180.78 127.454 170.948 125.882 164.968C125.882 164.968 125.014 169.793 122.897 177.307L125.976 180.78Z" fill="#B38640"/>
<path d="M80.0847 179.472C80.0847 179.472 84.1706 165.955 84.4127 165.214C84.4127 165.214 84.1321 177.639 82.5673 183.785C82.5673 183.785 81.0629 181.163 80.0847 179.472Z" fill="#B38640"/>
<path d="M232.243 111.721L167.958 192.745L170.199 194.475L232.243 111.721Z" fill="#54281A"/>
<path d="M183.236 178.445C183.236 178.445 178.41 177.991 178.241 178.759C178.072 179.527 178.476 179.912 178.476 179.912L176.405 180.626C176.405 180.626 175.3 181.874 176.981 182.712C176.981 182.712 175.829 183.77 177.548 184.387C177.548 184.387 177.099 185.424 177.845 185.85C178.591 186.276 181.707 186.44 181.707 186.44C181.707 186.44 182.554 186.212 182.406 184.991C182.406 184.991 183.377 184.394 183.108 183.258C183.108 183.258 183.78 182.608 183.478 181.383C183.478 181.383 184.853 179.865 183.73 178.523C183.731 178.524 183.439 178.463 183.236 178.445Z" fill="#DB9C7C"/>
<path d="M175.315 176.884C175.315 176.884 178.12 178.673 179.222 180.321C179.472 180.694 179.645 181.101 179.393 181.474C179.141 181.846 178.282 181.954 177.027 181.241C175.772 180.528 173.825 180.182 173.825 180.182C173.825 180.182 172.75 179.071 175.315 176.884Z" fill="#EEA886"/>
<path d="M103.813 100.789C103.813 100.789 114.689 100.508 116.689 113.388C118.689 126.269 114.064 137.587 112.252 139.4C110.439 141.213 99.5629 139.838 97.0001 133.147C94.4374 126.457 90.6871 121.58 91.2495 115.827C91.8118 110.075 90.4369 100.57 103.813 100.789Z" fill="#EEA886"/>
<path d="M117.152 118.263C117.152 118.263 120.065 102.196 105.626 99.3197C91.1871 96.4434 86.1239 106.323 84.749 112.2C83.3737 118.079 85.0004 134.648 85.0004 134.648C85.0004 134.648 94.6248 143.09 100.375 145.278C100.375 145.278 95.5624 127.645 97.375 115.014C97.375 115.014 109.107 116.856 116.899 114.935C116.899 114.935 117.132 117.572 117.152 118.263Z" fill="#E8734D"/>
<path d="M108.567 140.11C108.567 140.11 104.769 140.083 99.6301 136.743C99.6301 136.743 103.247 141.285 108.285 142.946C108.285 142.946 108.606 140.689 108.567 140.11Z" fill="#A77860"/>
<path d="M87.052 223.061L45.0474 229.92L50.1183 260.995L92.123 254.136L87.052 223.061Z" fill="#366E9C"/>
<path d="M63.1665 260.464C63.1665 260.464 62.5078 259.394 62.4483 258.785C62.4483 258.785 62.4244 257.669 62.3601 256.877C62.3386 256.625 62.3143 256.407 62.2839 256.267C62.1576 255.685 61.705 254.442 61.7936 252.956C61.8815 251.473 63.9095 245.168 63.9095 245.168L67.6269 245.297L71.1249 244.921C71.1249 244.921 75.3508 252.989 75.4285 254.381C75.4354 254.518 75.4371 254.653 75.429 254.779C75.3804 255.965 74.8464 256.826 74.75 257.445C74.7132 257.673 74.1957 259.907 73.5832 260.213C72.733 260.64 71.971 260.591 71.4071 260.264C71.4071 260.264 69.7058 261.026 68.4953 260.696C68.4953 260.696 66.9487 261.449 65.5597 260.609C65.5597 260.609 63.9046 261.197 63.1665 260.464Z" fill="#EEA886"/>
<path d="M85.3566 147.712C85.3566 147.712 77.91 145.577 73.6431 153.786C69.3763 161.994 69.3974 165.497 68.8273 169.504C68.2888 173.289 63.0864 195.771 62.8402 196.838C62.5941 197.905 60.8811 211.958 60.7609 217.071C60.6694 220.959 61.5811 246.457 61.4171 247.441C61.2532 248.426 73.2006 245.717 73.2006 245.717C73.2006 245.717 71.8792 222.201 72.1253 219.738C72.3715 217.276 72.8962 205 74.0986 201.393C75.5107 197.155 81.0897 175.802 82.0739 173.709C83.059 171.617 91.6335 150.379 85.3566 147.712Z" fill="#FFC05C"/>
<defs>
<linearGradient id="paint0_linear_7_1005" x1="101.127" y1="414.896" x2="310.18" y2="-307.137" gradientUnits="userSpaceOnUse">
<stop stop-color="#40CDE6"/>
<stop offset="0.9896" stop-color="#5680DB"/>
</linearGradient>
</defs>
</svg>
