<svg width="342" height="342" viewBox="0 0 342 342" fill="none" xmlns="http://www.w3.org/2000/svg">
<path d="M170.899 334.019C260.922 334.019 333.901 261.015 333.901 170.961C333.901 80.9058 260.922 7.90198 170.899 7.90198C80.8747 7.90198 7.896 80.9058 7.896 170.961C7.896 261.015 80.8747 334.019 170.899 334.019Z" fill="#FAFAFA"/>
<path d="M260.92 137.021C259.543 141.265 261.132 145.585 264.47 146.67C267.807 147.753 271.629 145.19 273.007 140.946C274.384 136.701 272.796 132.381 269.458 131.297C266.12 130.213 262.298 132.776 260.92 137.021Z" fill="#E8734D"/>
<path d="M244.075 159.672C244.075 159.672 239.304 161.076 236.529 164.754C233.753 168.433 233.237 173.63 233.069 176.291C232.901 178.952 231.993 189.228 231.993 189.228L239.999 191.628L244.075 159.672Z" fill="#EDDAD3"/>
<path d="M274.506 288.984C274.388 290.385 274.27 292.995 274.152 296.165C274.019 299.586 273.887 303.656 273.755 307.504C269.45 310.778 265.013 313.83 260.459 316.632C260.459 316.617 260.459 316.617 260.459 316.602C260.267 313.889 260.311 310.159 260.385 306.369C260.503 300.471 260.665 294.44 260.06 291.963C259.058 287.893 257.835 255.985 257.068 252.283C256.302 248.567 256.228 245.884 254.768 247.52C253.309 249.157 255.329 257.031 243.949 282.481C242.711 285.209 233.322 301.149 233.1 313.49C233.071 315.363 232.319 318.297 231.154 321.748C230.049 325.021 228.575 328.766 226.954 332.541C222.796 333.986 218.595 335.254 214.336 336.375C215.102 333.042 215.839 329.71 216.458 326.82C217.49 322.028 218.198 318.415 218.139 317.884C217.932 316.1 223.312 297.359 223.755 292.361C224.211 287.377 228.059 258.049 229.356 252.003C230.653 245.958 236.254 221.953 236.254 221.953C236.254 221.953 259.544 180.651 274.711 226.008C282.804 250.234 277.307 254.997 274.506 288.984Z" fill="#EEA886"/>
<path d="M271.155 215.828C271.155 215.828 285.542 236.745 278.411 280.571C278.411 280.571 243.333 284.712 224.767 274.11C224.767 274.11 233.323 228.945 236.258 221.946C239.191 214.946 271.155 215.828 271.155 215.828Z" fill="#494F80"/>
<path d="M252.396 156.781C252.396 156.781 245.97 159.327 244.075 159.672C242.181 160.016 235.635 169.326 234.29 172.777C232.945 176.228 234.136 181.461 236.67 187.625C239.204 193.79 236.676 195.784 237.776 201.922C238.875 208.061 234.744 221.035 234.458 224.429C234.171 227.823 269.878 229.006 277.009 222.938C277.009 222.938 270.14 212.241 269.261 210.715C268.381 209.188 269.282 200.97 270.15 198.871C271.018 196.77 276.864 178.887 276.864 178.887C276.864 178.887 281.63 165.158 277.602 161.912C274.102 159.093 264.45 157.938 262.724 157.304C260.999 156.669 255.953 156.316 252.396 156.781Z" fill="#EDDAD3"/>
<path d="M249.911 150.461C249.911 150.461 250.036 151.827 250.178 153.714C250.24 154.551 250.307 155.491 250.368 156.46C250.541 159.21 250.667 162.187 250.535 163.698C250.535 163.698 256.084 169.46 262.724 157.304C262.724 157.304 260.112 152.198 262.268 145.342C264.425 138.487 249.911 150.461 249.911 150.461Z" fill="#EEA886"/>
<path d="M234.899 195.762L233.912 198.051L235.963 196.635L234.899 195.762Z" fill="#EEA886"/>
<path d="M248.541 119.088C248.541 119.088 235.807 122.845 242.294 144.829C248.781 166.814 266.509 142.725 264.936 129.373C263.363 116.02 248.541 119.088 248.541 119.088Z" fill="#EEA987"/>
<path d="M241.232 131.719C241.232 131.719 247.415 138.008 257.932 138.967C257.932 138.967 261.895 143.786 262.173 145.655C262.173 145.655 273.519 127.44 260.474 119.991C246.652 112.099 237.056 127.686 241.232 131.719Z" fill="#E8734D"/>
<path d="M258.016 138.845C258.126 137.255 259.17 133.651 261.516 134.707C263.862 135.762 261.222 143.091 259.663 142.61C259.663 142.61 257.756 142.606 258.016 138.845Z" fill="#EEA987"/>
<path d="M250.178 153.714C250.24 154.551 250.307 155.491 250.368 156.46H250.37C257.756 152.974 258.97 147.778 259.005 147.618C253.669 154.269 250.178 153.714 250.178 153.714Z" fill="#A77860"/>
<path d="M233.57 176.148C233.57 176.148 233.087 183.84 234.733 188.283L236.332 187.489C236.332 187.489 233.536 179.735 233.57 176.148Z" fill="#1D3B54"/>
<path d="M260.596 201.666C260.596 201.666 257.707 199.677 257.256 199.387C256.806 199.097 255.207 199.159 253.554 199.649C251.949 200.125 250.138 200.789 249.635 201.06C249.374 201.201 249.114 201.244 249.213 202.001C249.312 202.757 249.812 203.343 249.812 203.343C249.812 203.343 249.495 204.333 250.166 205.008C250.166 205.008 249.911 205.953 250.798 206.594C250.798 206.594 250.573 207.524 251.257 207.936C251.257 207.936 252.747 208.167 253.314 208.058C254.115 207.903 258.313 207.014 261.258 206.294C261.258 206.295 262.484 205.593 260.596 201.666Z" fill="#EEA886"/>
<path d="M250.526 200.837C250.526 200.837 242.922 202.366 243.004 202.956C243.124 203.811 244.996 204.158 250.776 202.676C256.395 201.235 250.526 200.837 250.526 200.837Z" fill="#EEA886"/>
<path d="M269.915 160.504C271.653 159.495 277.386 159.711 279.531 165.136C281.677 170.562 283.399 176.725 284.92 179.568C286.442 182.41 291.553 195.354 289.94 196.869C288.326 198.384 285.037 200.161 280.111 201.229C275.025 202.331 260.245 207.543 260.245 207.543L258.512 199.556C258.512 199.556 265.023 196.589 268.777 195.16C272.117 193.888 271.712 193.53 277.215 191.69C277.215 191.69 274.22 183.634 272.845 181.472C271.471 179.311 262.1 165.046 269.915 160.504Z" fill="#EDDAD3"/>
<path d="M248.952 215.017L229.328 213.082C228.445 212.995 227.657 212.493 227.205 211.729L207.425 178.323C206.321 176.458 207.675 174.101 209.842 174.116L230.902 174.267C231.933 174.274 232.876 174.85 233.353 175.765L251.696 210.956C252.718 212.919 251.154 215.234 248.952 215.017Z" fill="#857B77"/>
<path d="M221.651 202.382C221.651 202.382 220.436 201.212 219.364 199.586C218.292 197.959 214.798 191.76 215.135 191.38C215.471 191 220.821 190.965 221.775 191.855C222.729 192.746 220.8 193.053 220.8 193.053C220.8 193.053 223.718 193.407 223.495 194.229C223.271 195.05 221.514 194.791 221.514 194.791C221.514 194.791 223.86 195.284 223.491 196.003C223.121 196.722 221.989 196.694 221.989 196.694C221.989 196.694 224.071 196.992 223.799 197.78C223.527 198.568 220.214 199.256 220.643 199.922C221.072 200.587 221.651 202.382 221.651 202.382Z" fill="#EEA886"/>
<path d="M263.654 157.554C263.654 157.554 256.355 168.983 250.731 168.748C245.107 168.512 249.133 158.028 249.133 158.028C249.133 158.028 253.512 154.648 263.654 157.554Z" fill="#EEA886"/>
<path d="M226.013 195.675C227.88 197.61 230.438 198.17 231.727 196.925C233.016 195.681 232.547 193.103 230.681 191.168C228.814 189.234 226.256 188.674 224.967 189.919C223.678 191.164 224.147 193.741 226.013 195.675Z" fill="#918682"/>
<path d="M240.258 128.664C240.258 128.664 239.412 131.682 240.653 137.014C240.653 137.014 240.534 132.014 241.602 130.671C242.67 129.328 240.258 128.664 240.258 128.664Z" fill="#E8734D"/>
<path d="M138.265 243.156C138.265 243.156 140.838 243.673 142.068 243.712C143.299 243.752 148.989 241.171 150.809 241.416C152.63 241.662 164.505 246.709 165.044 247.077C165.583 247.445 164.79 248.257 164.79 248.257L137.528 248.58L138.265 243.156Z" fill="#EEA886"/>
<path d="M174.429 248.024L129.082 248.368L129.113 252.523L174.461 252.179L174.429 248.024Z" fill="#323657"/>
<path d="M183.771 207.588L170.507 250.968L174.479 252.184L187.743 208.803L183.771 207.588Z" fill="#323657"/>
<path d="M129.766 294.987C126.703 301.358 114.422 314.964 108.931 321.049C107.632 322.499 106.704 323.52 106.383 323.913C105.875 324.528 104.498 326.027 102.784 327.856C101.72 327.391 100.664 326.913 99.607 326.427C96.3151 324.92 93.0738 323.299 89.8823 321.577C91.4527 319.264 93.145 316.771 94.7871 314.357C98.7139 308.564 102.362 303.186 103.426 301.593C106.025 297.701 107.196 297.129 105.661 295.408C104.126 293.694 97.9786 293.723 66.3489 280.617C63.193 279.309 54.3756 276.274 53.2116 272.024C51.1128 264.354 52.912 254.633 61.4157 250.362C69.9121 246.084 87.2547 261.782 87.2547 261.782C87.2547 261.782 110.281 272.024 115.165 275.531C120.041 279.031 130.729 285.48 131.087 287.059C131.436 288.637 133.557 287.102 129.766 294.987Z" fill="#34395C"/>
<path d="M98.208 187.629C98.0055 187.807 97.7857 188.198 97.5565 188.736C97.2262 189.507 96.8756 190.58 96.5371 191.764C95.4934 195.418 94.5448 200.106 94.5448 200.106C94.5448 200.106 81.3645 189.122 83.2281 188.431C85.0913 187.741 86.469 184.531 86.469 184.531C86.469 184.531 99.5966 186.396 98.208 187.629Z" fill="#EEA886"/>
<path d="M97.3856 225.575C97.3856 225.575 86.69 246.035 86.2268 253.706C85.7632 261.376 63.8955 251.291 63.8955 251.291L97.3856 225.575Z" fill="#EDDCC5"/>
<path d="M86.2686 253.215L86.5135 255.122L86.8953 257.638C86.8953 257.638 86.8945 257.639 86.8945 257.639C86.8945 257.639 86.8933 257.638 86.8905 257.638C86.5617 257.618 65.5369 256.296 64.0134 256.683C62.4786 257.075 66.9082 251.724 66.9082 251.724L86.2686 253.215Z" fill="#323657"/>
<path d="M86.8949 257.638C86.8949 257.638 110.685 263.238 116.568 265.118C122.45 266.998 132.572 270.308 135.292 271.861C136.736 272.686 138.943 273.92 141.584 282.52C144.579 292.27 151.416 319.688 152.968 323.958C153.942 326.64 156.745 337.191 156.745 337.191L144.588 339.3C144.588 339.3 130.11 310.141 128.936 302.369C126.959 289.286 121.889 289.216 119.841 288.024C117.793 286.832 107.931 289.07 72.841 286.269C69.3349 285.99 59.7481 285.815 57.2672 282.031C52.7837 275.192 48.2595 267.424 55.2223 260.547C62.185 253.672 86.8949 257.638 86.8949 257.638Z" fill="#494F80"/>
<path d="M102.855 160.088C102.855 160.088 106.972 167.202 106.034 169.138C105.096 171.074 110.335 175.765 109.475 176.759C108.614 177.752 106.842 178.956 106.872 179.245C106.902 179.534 105.349 188.805 103.329 189.013C101.308 189.22 87.4953 188.503 86.3496 184.181C85.2034 179.859 81.8354 170.391 81.041 168.632C80.2467 166.874 88.2099 153.295 102.855 160.088Z" fill="#EEA886"/>
<path d="M85.824 158.714C84.6738 159.568 83.7451 160.472 83.0018 161.396C82.0961 161.822 76.754 164.476 77.8649 167.345C79.3588 171.204 85.3993 181.546 85.9082 182.627C85.9763 182.77 85.9763 182.499 85.9265 181.919C86.299 178.268 90.7913 174.175 90.7913 174.175L93.188 173.093C91.937 170.767 92.4314 168.593 92.4314 168.593C95.1452 165.684 104.161 162.55 104.161 162.55C102.876 149.681 91.867 154.228 85.824 158.714Z" fill="#FCCCA2"/>
<path d="M89.9041 171.149C89.2661 170.175 85.9025 170.334 86.3932 173.205C86.8835 176.075 91.0102 178.378 91.9094 177.098C92.8078 175.819 90.5835 172.185 89.9041 171.149Z" fill="#EEA886"/>
<path d="M83.2281 188.432C83.2281 188.432 66.5329 198.162 62.7661 215.155C58.9988 232.148 52.1866 261.987 52.0664 265.52C52.0664 265.52 74.6576 254.645 86.8946 257.638C86.8946 257.638 94.5991 229.948 98.6521 223.408C102.705 216.867 96.6812 201.493 96.6812 201.493C96.6812 201.493 90.9225 192.268 83.2281 188.432Z" fill="#FFC05C"/>
<path d="M37.6831 263.661L38.654 279.281C35.9977 276.045 33.4633 272.724 31.0641 269.331L30.3358 252.126L29.6576 236.027C29.6434 235.67 29.5859 235.32 29.4864 234.977L18.4911 197.244C18.4911 197.244 17.3413 194.616 19.462 194.366C21.5754 194.109 22.1183 195.352 22.3539 196.037L35.8054 235.499C35.9123 235.799 35.9693 236.113 35.9908 236.427L37.6831 263.661Z" fill="#5E5E5B"/>
<path d="M106.39 329.37C104.105 328.442 101.842 327.463 99.6076 326.427C98.5076 322.678 97.3723 318.807 96.3015 315.157C93.4169 305.386 90.9962 297.215 90.9962 297.215L68.4276 296.816L54.9758 296.58C53.3126 295.044 51.6701 293.466 50.0563 291.852C48.9502 290.745 47.8644 289.623 46.7866 288.495L59.2952 288.766L95.4663 289.573L103.448 318.656L106.39 329.37Z" fill="#5E5E5B"/>
<path d="M95.7662 290.673L60.8883 290.252L48.336 290.101C47.8149 289.566 47.3007 289.03 46.787 288.494C45.8372 287.488 44.8946 286.473 43.9805 285.445C47.0509 285.473 51.2991 285.509 55.9975 285.552C69.1988 285.674 85.9346 285.859 89.9046 286.067C95.7233 286.359 95.7662 290.551 95.7662 290.673Z" fill="#D6985E"/>
<path d="M122.994 255.547V257.558H218.807V255.547C218.807 253.673 217.547 252.154 215.994 252.154H125.807C124.254 252.154 122.994 253.673 122.994 255.547Z" fill="#D6985E"/>
<path d="M211.539 257.561V337.084C210.268 337.391 208.99 337.691 207.712 337.97V257.562L211.539 257.561Z" fill="#D9BEAD"/>
<path d="M203.849 257.561V338.762C202.578 339.012 201.307 339.241 200.022 339.463V257.561H203.849Z" fill="#D9BEAD"/>
<path d="M97.5564 188.736C97.226 189.507 96.8755 190.58 96.537 191.764C94.5641 190.943 90.8009 187.47 90.6855 187.362C92.256 187.971 97.5564 188.736 97.5564 188.736Z" fill="#A77860"/>
<path d="M163.647 257.558H232.094V255.547C232.094 253.673 230.485 252.154 228.502 252.154H174.363L163.647 257.558Z" fill="#DBB28A"/>
<path d="M90.5545 201.591C90.5545 201.591 94.5286 207.226 96.9865 211.493C99.7732 216.331 102.511 221.108 103.116 222.182C104.346 224.367 108.719 225.534 110.655 226.365C112.434 227.13 142.084 243.004 142.461 242.97C142.838 242.936 139.267 248.885 139.267 248.885C139.267 248.885 98.0974 237.075 96.2472 235.384C94.397 233.692 88.9039 225.992 86.6561 222.819C84.5156 219.797 81.2326 214.841 79.4917 212.705C77.5451 210.317 73.4609 202.147 78.654 198.072C85.2881 192.866 88.9573 199.199 90.5545 201.591Z" fill="#FFC05C"/>
<path d="M79.2698 212.42C79.2698 212.42 84.0317 225.338 86.8957 229.743C89.7597 234.147 92.9196 237.808 92.9196 237.808L94.4443 233.35C94.4443 233.35 82.1196 216.394 79.2698 212.42Z" fill="#D19E4C"/>
<path d="M199.179 239.633H225.675C226.292 239.633 226.793 239.133 226.793 238.516V234.462C226.793 233.845 226.292 233.344 225.675 233.344H199.179V239.633Z" fill="#C44747"/>
<path d="M195.594 245.922H222.09C222.707 245.922 223.207 245.422 223.207 244.805V240.751C223.207 240.134 222.707 239.633 222.09 239.633H195.594V245.922Z" fill="#5084C7"/>
<path d="M187.226 239.633H213.722C214.339 239.633 214.839 239.133 214.839 238.516V234.462C214.839 233.845 214.339 233.344 213.722 233.344H187.226V239.633Z" fill="#E55353"/>
<path d="M183.641 245.922H210.137C210.754 245.922 211.254 245.422 211.254 244.805V240.751C211.254 240.134 210.754 239.633 210.137 239.633H183.641V245.922Z" fill="#5084C7"/>
<path d="M187.226 238.986H212.967C213.584 238.986 214.084 238.486 214.084 237.869V235.109C214.084 234.493 213.584 233.992 212.967 233.992H187.226V238.986Z" fill="#FAE6DE"/>
<path d="M183.641 245.182H209.382C209.998 245.182 210.499 244.682 210.499 244.065V241.49C210.499 240.874 209.999 240.373 209.382 240.373H183.641V245.182Z" fill="#FAE6DE"/>
<path d="M197.462 252.21H223.958C224.575 252.21 225.075 251.71 225.075 251.093V247.039C225.075 246.422 224.575 245.921 223.958 245.921H197.462V252.21Z" fill="#FFCA55"/>
<path d="M185.509 252.21H212.005C212.622 252.21 213.122 251.71 213.122 251.093V247.039C213.122 246.422 212.622 245.921 212.005 245.921H185.509V252.21Z" fill="#FFCA55"/>
<path d="M185.509 251.471H211.25C211.867 251.471 212.367 250.971 212.367 250.354V247.779C212.367 247.162 211.867 246.661 211.25 246.661H185.509V251.471Z" fill="#FAE6DE"/>
<path d="M170.897 0C76.4689 0 0 76.4709 0 170.971C0 265.145 76.2207 341.927 170.897 341.927C265.396 341.927 341.795 265.364 341.795 170.971C341.795 76.5146 265.365 0 170.897 0ZM170.897 333.345C81.611 333.345 8.5636 260.724 8.5636 170.971C8.5636 81.4232 81.3802 8.58158 170.897 8.58158C260.414 8.58158 333.231 81.4228 333.231 170.971C333.231 261.069 259.881 333.345 170.897 333.345Z" fill="url(#paint0_linear_3_1002)"/>
<defs>
<linearGradient id="paint0_linear_3_1002" x1="100.503" y1="414.26" x2="309.555" y2="-307.773" gradientUnits="userSpaceOnUse">
<stop stop-color="#40CDE6"/>
<stop offset="0.9896" stop-color="#5680DB"/>
</linearGradient>
</defs>
</svg>
