<svg width="364" height="365" viewBox="0 0 364 365" fill="none" xmlns="http://www.w3.org/2000/svg">
<path d="M290.437 164.93C348.314 211.604 399.337 171.701 399.337 171.701C381.678 170.206 368.015 155.74 343.75 147.041C319.484 138.342 278.684 155.452 290.437 164.93Z" fill="#97A43C"/>
<path d="M356.61 125.751L343.519 145.819L343.892 146.063L356.983 125.994L356.61 125.751Z" fill="#97A43C"/>
<path d="M381.002 136.62C375.529 139.903 366.003 144.037 351.699 145.089C337.948 146.099 327.352 147.441 318.351 149.308C307.196 151.624 298.617 154.738 292.123 158.831L292.361 159.208C307.182 149.867 331.875 146.993 351.731 145.533C366.139 144.474 375.74 140.301 381.257 136.988C387.248 133.389 389.865 129.984 389.891 129.95L389.536 129.682C389.51 129.715 386.93 133.065 381.002 136.62Z" fill="#97A43C"/>
<path d="M389.765 129.6C377.472 126.573 365.893 125.302 355.158 125.791C349.64 126.042 344.344 126.757 339.292 127.937C338.885 128.032 338.479 128.13 338.076 128.232C335.548 128.865 333.078 129.616 330.672 130.485C327.087 131.774 323.641 133.324 320.345 135.131C317.106 136.9 314.012 138.914 311.069 141.17C310.015 141.972 308.984 142.811 307.969 143.678C307.328 144.224 306.696 144.786 306.071 145.357C304.601 146.703 303.228 148.072 301.945 149.443C301.645 149.762 301.35 150.083 301.06 150.401C299.145 152.515 297.446 154.627 295.948 156.661C295.743 156.935 295.547 157.207 295.35 157.478C294.986 157.989 294.631 158.493 294.292 158.99C293.107 160.721 292.073 162.369 291.185 163.889C290.922 164.336 290.671 164.771 290.435 165.196C290.21 165.592 290 165.977 289.798 166.35C286.591 172.302 285.274 176.567 285.261 176.608L284.891 177.822L285.652 176.807C285.68 176.768 288.441 173.169 296.377 169.548C296.453 169.514 296.527 169.478 296.605 169.445C297.295 169.134 298.038 168.818 298.835 168.5C300.433 167.858 302.252 167.211 304.309 166.585C305.501 166.22 306.777 165.863 308.132 165.521C311.682 164.618 315.799 163.803 320.552 163.177C326.218 162.429 332.778 161.951 340.34 161.911C344.903 161.89 349.221 161.523 353.269 160.814C355.124 160.493 356.922 160.097 358.663 159.631C361.48 158.878 364.142 157.939 366.643 156.819C372.586 154.153 377.63 150.45 381.637 145.815C388.461 137.92 389.918 129.934 389.933 129.854L389.967 129.649L389.765 129.6ZM381.298 145.523C378.975 148.215 375.824 151.1 371.615 153.667C371.48 153.75 371.346 153.83 371.209 153.911C367.628 156.046 363.298 157.945 358.083 159.301C356.541 159.707 354.919 160.062 353.216 160.362C349.357 161.045 345.076 161.444 340.339 161.467C333.266 161.504 326.638 161.923 320.549 162.719C318.014 163.051 315.571 163.447 313.228 163.908C311.471 164.252 309.769 164.632 308.126 165.051C306.833 165.377 305.573 165.727 304.354 166.1C302.339 166.71 300.428 167.378 298.622 168.107C297.854 168.416 297.103 168.734 296.374 169.062C296.231 169.127 296.09 169.191 295.95 169.256C290.266 171.878 287.291 174.434 286.037 175.708C286.613 174.106 287.928 170.76 290.191 166.563C290.38 166.211 290.579 165.848 290.789 165.476C291.073 164.966 291.376 164.441 291.697 163.897C292.512 162.515 293.443 161.03 294.501 159.477C295.045 158.675 295.624 157.852 296.237 157.019C296.431 156.752 296.63 156.486 296.837 156.214C298.345 154.211 300.048 152.143 301.959 150.081C302.14 149.881 302.326 149.682 302.515 149.486C303.718 148.21 305.003 146.939 306.37 145.686C306.89 145.21 307.423 144.737 307.974 144.263C308.851 143.505 309.769 142.749 310.731 141.998C313.565 139.794 316.762 137.646 320.35 135.682C323.408 134.007 326.75 132.465 330.39 131.135C333.272 130.076 336.34 129.152 339.607 128.399C344.246 127.323 349.28 126.591 354.733 126.306C355.255 126.275 355.781 126.251 356.309 126.233C356.49 126.225 356.671 126.22 356.852 126.218C357.858 126.184 358.877 126.168 359.912 126.168C364.105 126.168 368.529 126.427 373.194 126.986C373.341 127.004 373.491 127.023 373.641 127.041C378.592 127.654 383.813 128.606 389.315 129.947C389.362 129.957 389.406 129.97 389.452 129.98C389.421 130.128 389.37 130.351 389.295 130.643C388.722 132.903 386.738 139.235 381.298 145.523Z" fill="#97A43C"/>
<path d="M360.062 144.238L359.781 144.583L371.468 154.123L371.75 153.778L360.062 144.238Z" fill="#97A43C"/>
<path d="M267.02 50.917C267.02 50.917 276.951 74.0283 268.164 93.6287C249.522 135.212 263.654 129.851 263.654 129.851C263.654 129.851 275.619 157.643 294.707 123.64C313.795 89.6378 267.02 50.917 267.02 50.917Z" fill="#BBD070"/>
<path d="M308.154 180.789C308.154 180.789 299.205 152.431 340.23 94.7534C381.255 37.0749 345.004 0 345.004 0C239.191 90.2559 308.154 180.789 308.154 180.789Z" fill="#97A43C"/>
<path d="M318.998 88.1937C289.011 108.858 274.977 169.779 295.537 164.112C396.783 136.208 393.118 44.759 393.118 44.759C376.838 63.7851 348.985 67.5293 318.998 88.1937Z" fill="#48753A"/>
<path d="M170.902 356.222C260.926 356.222 333.904 283.219 333.904 193.164C333.904 103.109 260.926 30.1057 170.902 30.1057C80.8787 30.1057 7.90015 103.109 7.90015 193.164C7.90015 283.219 80.8787 356.222 170.902 356.222Z" fill="#FAFAFA"/>
<path d="M168.822 205.789C168.822 205.789 169.852 200.447 170.035 199.637C170.217 198.826 172.052 197.155 174.412 195.898C176.704 194.677 179.724 192.62 180.162 192.763C180.6 192.906 181.053 192.829 181.766 193.774C182.48 194.717 182.564 195.908 182.564 195.908C182.564 195.908 183.991 196.659 183.984 198.133C183.984 198.133 185.293 198.901 185.012 200.575C185.012 200.575 186.27 201.358 185.962 202.558C185.962 202.558 184.275 204.158 183.822 204.93C183.369 205.702 179.632 208.79 175.593 211.2C175.593 211.2 171.006 212.184 168.822 205.789Z" fill="#EEA886"/>
<path d="M175.592 211.199C175.592 211.199 170.407 213.486 168.309 212.882C166.21 212.279 166.983 206.228 166.983 206.228L169.901 203.305L175.592 211.199Z" fill="#EEA886"/>
<path d="M122.866 214.443C127.157 212.074 122.966 205.849 122.943 205.631L122.952 205.648C123.101 205.973 124.175 209.909 125.581 214.768C127.96 222.982 131.289 233.835 132.708 234.356C134.771 235.115 166.54 216.194 172.051 212.773L168.66 203.882L138.372 218.107L123.18 178.093C122.833 177.816 120.468 175.469 117.487 174.052C114.447 172.604 110.781 170.477 107.462 168.658C105.769 167.732 104.167 166.886 102.783 166.251L102.571 166.155L102.57 166.152C100.281 165.105 98.7597 164.412 98.7597 164.412C98.7597 164.412 98.7576 164.412 98.7524 164.412C98.6981 164.406 98.3386 164.371 97.7581 164.317C94.5653 164.013 84.6442 163.084 81.3199 162.889C81.0462 162.871 80.8167 162.861 80.6394 162.857C80.4867 162.852 80.3746 162.85 80.3045 162.855C79.8831 162.88 77.8397 163.594 75.1511 164.617H75.149C75.0474 164.656 74.9458 164.694 74.8421 164.735C74.7158 164.782 74.5895 164.83 74.4616 164.879C74.2284 164.968 73.9915 165.059 73.751 165.153C73.2701 165.34 72.7761 165.533 72.2745 165.732C72.1025 165.8 71.9271 165.869 71.7498 165.939C66.3721 168.074 60.2097 170.714 58.7453 171.767C57.7781 172.46 54.7647 178.141 51.2708 185.167C46.7715 199.586 41.0691 221.657 40.8917 227.099C40.8897 227.185 40.8877 227.268 40.8877 227.345C40.8877 227.973 42.0723 230.483 43.963 234.092C46.7274 228.561 48.8987 224.018 49.6096 222.348C51.9392 216.844 63.9441 204.227 63.9441 204.227C63.9441 204.227 63.9441 204.235 63.9489 204.253C63.9489 204.259 63.951 204.264 63.953 204.269C63.9546 204.273 63.9563 204.278 63.9563 204.283C63.9619 204.3 63.9668 204.318 63.9704 204.336C63.9789 204.365 63.9878 204.401 64.0004 204.443C64.0073 204.464 64.0121 204.487 64.0178 204.509C64.023 204.527 64.0279 204.542 64.0316 204.56C64.6858 206.996 68.6992 222.223 68.847 229.723C69.0097 237.888 71.1393 252.994 71.1393 252.994L71.1478 252.995L73.6543 253.347L79.2008 254.129L79.8657 254.222L81.4794 254.449L96.1876 256.519L101.405 257.252L102.109 257.352L105.091 257.772L113.325 258.929L115.425 259.224L115.444 259.228L117.016 259.449L119.191 259.754C119.191 259.754 119.191 259.754 119.193 259.752C119.253 259.672 121.309 256.857 120.991 250.605C120.991 250.604 114.667 218.971 122.866 214.443Z" fill="#DECBC4"/>
<path d="M91.6413 121.078C91.6413 121.078 108.337 115.727 106.342 137.518C104.347 159.308 100.399 161.356 89.7295 157.827C79.0594 154.298 78.7651 140.476 77.6517 133.784C76.5384 127.093 86.2279 121.794 91.6413 121.078Z" fill="#EEA886"/>
<path d="M100.408 168.838C100.408 168.838 93.5707 177.506 81.0038 171.29C81.0038 171.29 82.1375 153.714 79.9864 145.392C77.8362 137.071 96.7011 157.102 96.7011 157.102C96.4878 157.239 96.4116 158.058 96.4788 159.208C96.5359 160.182 96.6955 161.394 96.961 162.629C97.5598 165.405 98.6946 168.293 100.408 168.838Z" fill="#EEA886"/>
<path d="M79.4544 144.716C79.4544 144.716 79.2964 137.92 81.745 137.491C84.194 137.062 84.8139 139.75 84.8139 139.75L87.3467 140C87.3467 140 86.0362 134.147 88.4078 132.894C90.7799 131.641 104.658 134.741 106.481 132.829C108.306 130.915 106.312 118.984 102.591 117.657C98.8694 116.329 88.6665 113.519 81.8633 119.059C81.8633 119.059 76.1652 118.915 75.7312 123.542C75.2968 128.171 77.6211 141.466 79.4544 144.716Z" fill="#3A3F47"/>
<path d="M96.9614 162.629C84.3245 159.923 82.7431 152.595 82.7192 152.481C87.3853 159.085 96.4788 159.208 96.4788 159.208C96.5359 160.182 96.6958 161.394 96.9614 162.629Z" fill="#A77860"/>
<path d="M175.378 201.702C175.378 201.702 175.95 204.374 175.732 205.206C175.513 206.038 181.193 205.843 181.193 205.843C181.193 205.843 178.643 201.092 175.378 201.702Z" fill="#CF8C6C"/>
<path d="M179.539 193.161C179.539 193.161 174.333 197.501 174.927 198.427C175.522 199.352 176.302 199.331 176.302 199.331L174.969 202.089C174.969 202.089 175.117 204.414 177.606 203.573C177.606 203.573 177.519 205.759 179.825 204.661C179.825 204.661 180.411 206.128 181.569 205.808C182.727 205.488 185.962 202.557 185.962 202.557C185.962 202.557 186.517 201.564 185.161 200.508C185.161 200.508 185.502 198.935 184.11 198.082C184.11 198.082 183.967 196.15 182.455 195.241C182.455 195.241 182.064 193.178 180.104 192.746C180.104 192.746 179.757 192.976 179.539 193.161Z" fill="#DB9C7C"/>
<path d="M170.183 199.482C170.183 199.482 174.721 198.461 177.444 198.993C178.059 199.113 178.634 199.341 178.754 199.959C178.875 200.576 178.135 201.535 176.192 202.078C174.248 202.62 171.985 204.211 171.985 204.211C171.985 204.211 169.825 204.183 170.183 199.482Z" fill="#EEA886"/>
<path d="M131.806 359.648C124.643 357.982 117.627 355.859 110.787 353.293C110.242 349.592 109.755 346.717 109.372 345.08C109.254 344.564 109.106 343.959 108.959 343.266C106.055 330.437 97.8303 290.611 95.7222 293.28C94.2481 295.138 92.5387 317.433 91.0938 334.537C90.7986 337.958 90.5189 341.172 90.2391 343.959C85.8618 341.615 81.5719 339.064 77.4006 336.321C73.6415 333.859 69.9564 331.234 66.3896 328.448C66.1831 324.776 66.0062 320.883 65.8588 316.858C65.1511 296.377 65.505 272.652 70.3103 259.277C75.1747 245.712 120.619 266.68 120.619 266.68C120.619 266.68 125.675 303.322 127.812 316.946C130.303 332.901 130.745 341.688 131.438 349.946C131.453 350.182 131.482 350.432 131.497 350.713C131.63 352.674 131.733 355.8 131.806 359.648Z" fill="#2D3133"/>
<path d="M119.193 259.751C119.193 259.751 120.299 261.076 120.619 266.683C120.619 266.683 75.1175 261.373 70.3074 259.281C70.3074 259.281 70.1191 253.101 71.1397 252.993C72.2608 252.875 119.193 259.751 119.193 259.751Z" fill="#495055"/>
<path d="M81.537 254.089C81.537 254.089 80.5439 260.353 80.4576 261.987L78.3528 261.567C78.3528 261.567 78.9326 254.938 79.2731 253.827L81.537 254.089Z" fill="#2D3133"/>
<path d="M115.397 259.02C115.397 259.02 116.195 264.715 116.214 266.866L113.987 266.576C113.987 266.576 113.53 259.464 113.276 258.722L115.397 259.02Z" fill="#2D3133"/>
<path d="M81.2839 172.449C78.2301 168.104 75.6726 165.197 75.1795 164.646C75.1677 164.636 75.1584 164.625 75.1499 164.616C75.0483 164.655 74.9462 164.693 74.8426 164.734C74.7163 164.781 74.5904 164.828 74.4624 164.877C74.2292 164.967 73.9924 165.058 73.7519 165.151C73.2713 165.339 72.7766 165.532 72.2754 165.73C72.1029 165.799 71.928 165.867 71.7507 165.938C66.2215 168.107 55.1182 171.876 53.6534 172.926C52.8081 173.532 51.2352 181.155 49.0518 188.156C44.5526 202.575 41.0222 221.669 40.8926 227.098C40.891 227.184 40.8894 227.266 40.8894 227.343C40.8894 227.972 42.0732 230.481 43.9639 234.09C46.8882 239.67 51.5012 247.88 56.0567 255.842C55.2166 257.409 54.4049 258.958 53.6534 260.475C52.5518 262.693 51.5842 264.839 50.8615 266.864C49.8231 269.774 48.3793 277.226 51.1421 278.61L65.6972 286.647C67.2774 281.326 80.0354 253.915 80.0354 253.915C84.2435 246.236 88.9832 239.816 90.4949 230.4C90.6403 229.491 90.7792 228.587 90.9107 227.691C91.1298 226.196 91.3314 224.72 91.5156 223.274C91.5844 222.726 91.6524 222.186 91.7172 221.649C92.4755 215.367 92.9277 209.77 93.2925 205.871C94.431 193.725 86.9937 180.574 81.2839 172.449ZM63.743 240.744C63.743 240.744 57.8243 230.732 57.4036 224.939C56.7036 215.332 63.9499 204.252 63.9499 204.252C63.9499 204.257 63.9518 204.262 63.9535 204.267C63.9551 204.271 63.9571 204.276 63.9571 204.281C63.9624 204.299 63.9677 204.316 63.9709 204.334C63.9814 204.369 63.9924 204.404 64.0009 204.441C64.0081 204.463 64.013 204.485 64.0183 204.507C64.0239 204.525 64.0288 204.541 64.0324 204.559C65.4831 210.275 66.0815 231.378 66.0815 231.378C66.2952 237.176 63.743 240.744 63.743 240.744Z" fill="#FFC05C"/>
<path d="M171.278 214.482C170.977 216.189 133.63 236.072 131.329 235.224C130.811 235.035 129.93 233.456 128.875 231.123C127.82 228.79 126.592 225.702 125.379 222.498C124.474 220.111 123.575 217.658 122.764 215.405C122.749 215.359 122.733 215.314 122.715 215.271C121.748 220.375 120.076 225.754 120.52 231.468C120.52 231.473 120.52 231.478 120.522 231.483C120.066 257.975 128.038 277.525 130.303 284.833C130.681 286.051 129.696 287.441 128.755 288.309L126.892 290.031L124.233 292.486C124.233 292.486 120.779 276.716 118.34 266.411C118.276 266.134 118.211 265.856 118.148 265.584C117.596 263.181 117.189 261.048 117.016 259.448V259.432C116.147 251.266 113.421 240.326 112.226 229.664V229.658C110.713 216.134 109.138 202.733 108.016 194.86C107.92 194.196 107.823 193.546 107.73 192.908C107.694 192.644 107.655 192.384 107.616 192.125C107.608 192.083 107.601 192.037 107.596 191.99C107.539 191.607 107.482 191.228 107.425 190.855C107.414 190.79 107.404 190.723 107.396 190.658C107.308 190.092 107.225 189.54 107.14 188.996C107.137 188.994 107.137 188.994 107.137 188.991C104.621 172.817 102.674 166.336 102.674 166.336L102.784 166.25C104.108 166.86 105.676 167.577 107.342 168.348C110.828 169.958 114.756 171.782 117.861 173.26C120.841 174.681 123.602 176.109 123.949 176.385L139.624 216.372L166.89 203.34C168.51 207.104 171.278 214.482 171.278 214.482Z" fill="#FFC05C"/>
<path d="M78.9885 182.344L85.7148 186.14L82.8411 189.071L90.4934 230.401C92.0537 220.714 92.7635 211.514 93.2918 205.872C95.0513 187.095 76.3152 165.913 75.1496 164.615C74.25 164.957 73.2779 165.334 72.2734 165.732L78.9885 182.344Z" fill="#EBB155"/>
<path d="M100.56 165.233C100.56 165.233 105.085 174.365 108.014 194.86C109.136 202.733 110.713 216.134 112.227 229.659L113.793 190.952L110.588 187.48L113.436 183.918L106.601 168.008C104.937 167.238 104.109 166.859 102.783 166.25L100.56 165.233Z" fill="#EBB155"/>
<path d="M74.813 164.698L81.3017 161.31C81.3017 161.31 82.8414 166.623 94.358 172.361L90.4358 183.413L74.813 164.698Z" fill="#F5E2D9"/>
<path d="M96.9614 162.629C96.9614 162.629 97.8149 166.154 94.3582 172.362L102.013 182.344L100.56 165.233L96.9614 162.629Z" fill="#F5E2D9"/>
<path d="M94.3371 172.362C94.3371 172.362 92.8537 178.298 93.3877 179.96C93.3877 179.96 96.6501 181.148 98.995 179.663C98.995 179.663 97.3339 175.508 94.3371 172.362Z" fill="#495055"/>
<path d="M102.006 257.976C102.837 253.787 102.047 241.237 102.013 240.705L101.302 240.751C101.31 240.879 102.12 253.74 101.308 257.838L102.006 257.976Z" fill="#AD9F99"/>
<path d="M96.198 256.045C96.198 256.045 102.893 256.845 105.107 257.397L104.817 264.904L96.0498 263.967L96.198 256.045Z" fill="#3480B5"/>
<path d="M97.6631 179.129C97.6631 179.129 105.13 197.993 103.912 219.107C102.649 240.999 100.578 248.936 100.578 248.936L95.974 254.713L93.9436 247.613C93.9436 247.613 100.122 219.703 96.1335 192.545C95.4108 187.623 94.3371 178.298 94.3371 178.298L97.6631 179.129Z" fill="#495055"/>
<path d="M125.379 222.498C124.475 220.111 123.575 217.658 122.764 215.405C122.749 215.359 122.733 215.314 122.715 215.271V215.268C122.715 215.268 122.754 210.768 122.502 205.702C122.269 200.903 121.777 195.599 120.756 193.119C120.891 193.346 125.224 200.787 125.581 214.768C125.643 217.153 125.589 219.732 125.379 222.498Z" fill="#B0843F"/>
<path d="M75.708 269.196C75.708 269.196 77.31 272.402 78.912 272.936C80.514 273.47 82.8509 276.075 82.8509 276.075L71.5687 282.019C71.5687 282.019 68.5646 276.142 68.431 272.402C68.297 268.662 75.708 269.196 75.708 269.196Z" fill="#EEA886"/>
<path d="M76.296 268.515L77.0434 270.018C77.0466 270.008 69.8862 275.234 67.9461 275.594L67.283 273.591L76.296 268.515Z" fill="#DECBC4"/>
<path d="M63.7427 240.744L77.5638 268.134L66.6006 274.451L56.0564 255.843C56.0564 255.843 56.9382 243.448 63.7427 240.744Z" fill="#FFC05C"/>
<path d="M182.455 195.242C182.455 195.242 176.261 199.232 175.94 199.905C175.618 200.578 174.14 198.326 174.455 197.77C174.77 197.215 179.334 193.108 179.876 192.809C180.417 192.511 182.747 193.37 182.455 195.242Z" fill="#EEA886"/>
<path d="M178.687 193.402C178.687 193.402 188.674 188.642 189.206 189.871C189.737 191.1 188.772 191.568 180.773 196.218C172.996 200.74 178.687 193.402 178.687 193.402Z" fill="#EEA886"/>
<path d="M65.5831 272.656L53.6531 260.476C54.4041 258.959 55.2158 257.409 56.0563 255.843L65.5831 272.656Z" fill="#B0843F"/>
<path d="M224.905 334.449C222.738 338.09 224.714 341.821 227.883 345.227C230.064 347.571 232.82 349.768 235.15 351.67C233.838 352.201 232.526 352.703 231.214 353.204C227.897 354.458 224.551 355.607 221.161 356.639C219.024 357.303 216.856 357.922 214.675 358.482C212.081 355.371 209.958 352.776 208.69 351.11C208.116 350.373 207.718 349.813 207.526 349.474C205.168 345.418 208.248 334.448 207.688 313.761C207.143 293.088 221.057 258.672 221.057 258.672C272.146 235.581 243.978 288.222 243.624 291.569C243.272 294.917 228.591 328.241 224.905 334.449Z" fill="#DB9B7B"/>
<path d="M240.087 340.051C239.085 342.617 238.775 344.741 240.869 345.242C242.623 345.669 244.48 346.024 246.588 346.525C241.576 349.016 236.447 351.243 231.214 353.204C227.897 354.458 224.551 355.607 221.161 356.639C220.1 354.974 219.746 352.29 220.115 347.925C220.35 345.02 220.925 341.378 221.824 336.822C223.122 330.305 229.504 308.776 231.332 300.77C233.101 293.014 236.801 281.379 236.801 281.379C236.801 281.379 228.56 235.891 265.205 255.796C265.205 255.796 275.921 273.963 270.762 286.894C265.692 299.59 244.834 328.948 243.021 333.489C242.195 335.539 240.913 337.943 240.087 340.051Z" fill="#EEA886"/>
<path d="M206.022 330.253C206.022 330.253 201.399 336.312 245.521 332.308C245.521 332.308 286.124 286.287 269.815 261.198C261.187 247.926 219.115 256.186 219.115 256.186C219.115 256.186 209.279 269.921 206.022 330.253Z" fill="#1D3B54"/>
<path d="M323.815 120.564C323.815 120.564 321.928 115.311 321.665 114.5C321.402 113.689 322.055 111.4 323.033 108.837C324.012 106.274 326.482 103.249 326.943 103.145C327.404 103.042 327.823 102.723 328.946 103.182C330.07 103.641 330.768 104.647 330.768 104.647C330.768 104.647 332.419 104.562 333.185 105.867C333.185 105.867 334.742 105.859 335.369 107.483C335.369 107.483 336.89 107.515 337.246 108.734C337.246 108.734 336.595 111.029 336.6 111.949C336.604 112.868 334.183 118.642 331.88 122.885C331.88 122.885 329.089 125.062 323.815 120.564Z" fill="#EEA886"/>
<path d="M327.46 113.524C327.46 113.524 329.364 115.582 329.607 116.43C329.85 117.279 335.551 114.552 335.551 114.552C335.551 114.552 330.022 111.275 327.46 113.524Z" fill="#CF8C6C"/>
<path d="M326.66 103.808C326.66 103.808 324.339 110.365 325.348 110.87C326.357 111.375 327.034 110.947 327.034 110.947L327.302 114.08C327.302 114.08 328.65 116.053 330.406 114.008C330.406 114.008 331.474 115.982 332.933 113.805C332.933 113.805 334.219 114.793 335.073 113.904C335.927 113.015 337.246 108.734 337.246 108.734C337.246 108.734 337.299 107.572 335.55 107.35C335.55 107.35 335.003 105.81 333.328 105.786C333.328 105.786 332.688 104.518 330.878 104.508C330.878 104.508 329.203 102.054 326.943 103.145C326.943 103.145 326.757 103.531 326.66 103.808Z" fill="#DB9C7C"/>
<path d="M321.716 114.287C321.716 114.287 325.185 111.009 327.865 110.052C328.471 109.835 329.098 109.736 329.528 110.217C329.957 110.699 329.805 111.932 328.375 113.429C326.945 114.925 325.78 117.514 325.78 117.514C325.78 117.514 323.86 118.622 321.716 114.287Z" fill="#EEA886"/>
<path d="M167.632 230.474C167.632 230.474 165.681 230.659 164.512 231.349C163.588 231.895 161.751 232.132 160.8 232.346C159.849 232.559 155.86 233.922 154.993 234.493C154.639 234.726 153.054 237.021 152.28 237.417C151.506 237.812 149.836 238.423 150.214 239.083C150.592 239.744 152.248 239.606 152.248 239.606C152.248 239.606 151.566 240.009 151.719 240.688C152.018 242.008 152.843 242.224 152.843 242.224C152.843 242.224 152.427 243.091 152.69 243.612C153.27 244.76 154.074 244.947 154.074 244.947C154.074 244.947 154.028 245.671 154.587 246.351C155.301 247.22 156.39 247.016 156.39 247.016C156.39 247.016 157.036 248.304 157.837 248.234C158.638 248.165 159.174 247.689 159.774 247.467C160.374 247.244 164.755 243.922 166.822 240.154C168.89 236.386 173.457 235.943 173.457 235.943L167.632 230.474Z" fill="#EEA886"/>
<path d="M152.542 239.147C152.542 239.147 156.465 236.158 158.113 236.55C159.76 236.943 158.406 238.1 158.406 238.1C158.406 238.1 159.725 236.932 160.787 237.894C161.849 238.856 160.189 240.127 160.189 240.127C160.189 240.127 161.432 239.512 162.119 240.832C162.806 242.152 161.183 242.89 161.183 242.89C161.183 242.89 163.433 243 162.675 244.672C161.396 247.495 157.973 248.331 157.973 248.331C157.973 248.331 156.917 248.482 156.345 247.167C156.345 247.167 154.155 247.503 153.97 245.052C153.97 245.052 151.667 244.002 152.737 242.266C152.737 242.266 150.312 240.782 152.542 239.147Z" fill="#DB9C7C"/>
<path d="M243.038 177.264C243.038 177.264 236.144 176.184 231.437 179.575C226.729 182.965 223.432 189.422 221.975 191.439C220.518 193.457 203.601 211.434 202.77 211.75C201.938 212.065 189.783 217.292 182.749 221.759C175.715 226.225 163.608 230.718 163.608 230.718L168.322 240.014C168.322 240.014 201.642 229.305 207.834 223.758C214.448 217.834 235.297 201.289 235.297 201.289C235.297 201.289 253.181 187.156 243.038 177.264Z" fill="#285173"/>
<path d="M252.719 175.436C252.719 175.436 245.441 177.26 243.039 177.264C240.637 177.268 229.361 187.139 226.946 191.08C224.531 195.022 224.838 201.713 226.588 209.845C228.338 217.976 224.793 219.867 224.787 227.651C224.78 235.433 222.93 251.547 221.828 255.653C220.726 259.759 258.233 268.017 268.332 262.141C268.332 262.141 262.259 247.483 261.517 245.413C260.774 243.344 263.697 233.449 265.226 231.061C266.756 228.674 277.837 209.4 277.837 209.4C277.837 209.4 286.777 192.19 282.546 187.313C278.872 183.076 267.271 179.524 265.291 178.362C263.312 177.201 257.192 175.651 252.719 175.436Z" fill="#EDDAD3"/>
<path d="M270.486 129.855C266.807 127.678 252.953 121.379 245.848 139.285C238.744 157.191 246.382 172.449 256.507 170.806C266.631 169.163 275.002 157.466 277.5 147.775C279.998 138.085 275.129 132.602 270.486 129.855Z" fill="#EEA886"/>
<path d="M245.848 139.285C245.848 139.285 248.29 123.24 264.205 125.822C280.121 128.403 281.792 142.264 278.617 151.495C275.442 160.725 267.907 164.432 267.907 164.432C267.907 164.432 269.997 156.868 267.325 154.266C264.653 151.665 253.148 145.25 249.621 134.94C249.621 134.94 246.557 137.365 245.848 139.285Z" fill="#252E3B"/>
<path d="M265.889 141.51C266.715 148.257 272.164 153.14 278.06 152.417C283.955 151.694 288.064 145.64 287.237 138.893C286.411 132.147 280.962 127.264 275.066 127.987C269.171 128.709 265.062 134.765 265.889 141.51Z" fill="#252E3B"/>
<path d="M251.066 167.124C251.066 167.124 249.973 179.6 248.907 183.521C248.907 183.521 254.447 191.825 265.291 178.362C265.291 178.362 263.21 171.513 267.374 163.57C271.538 155.626 251.066 167.124 251.066 167.124Z" fill="#EEA886"/>
<path d="M248.907 183.521L247.651 189.855L256.789 185.485L248.907 183.521Z" fill="#EEA886"/>
<path d="M266.432 178.899C266.432 178.899 254.064 193.876 251.786 199.834C246.262 214.277 248.745 251.371 248.907 267C249.068 282.631 279.945 272.693 279.945 272.693C279.945 272.693 264.737 241.95 274.5 223.361C284.262 204.772 286.949 192.729 286.949 192.729C286.949 192.729 284.225 185.583 278.096 183.354C271.967 181.126 266.432 178.899 266.432 178.899Z" fill="#285173"/>
<path d="M225.187 192.543C225.187 192.543 223.885 207.002 225.357 214.598C225.357 214.598 222.615 230.366 221.486 235.622C219.636 244.232 211.457 259.814 211.457 259.814L219.328 267.012C220.19 267.801 221.582 267.279 221.711 266.117C223.259 252.109 231.99 189.644 248.349 176.44L241.861 177.146C241.861 177.147 229.217 184.982 225.187 192.543Z" fill="#285173"/>
<path d="M266.403 150.59C267.267 149.246 269.269 149.217 270.213 150.27C271.157 151.322 271.309 153.946 268.911 156.835C266.514 159.723 259.874 160.749 266.403 150.59Z" fill="#EEA886"/>
<path d="M259.269 214.928C259.269 214.928 268.037 225.346 274.763 217.123C281.864 208.442 284.278 203.642 286.734 199.695C289.054 195.968 304.938 174.759 305.691 173.752C306.444 172.745 314.756 158.775 317.251 153.458C319.149 149.415 332.47 124.653 333.099 123.694C333.728 122.735 321.554 118.405 321.554 118.405C321.554 118.405 307.947 142.913 306.547 145.385C305.148 147.859 298.908 160.513 295.973 163.746C292.525 167.544 280.344 183.194 278.097 183.355C275.447 183.545 253.91 209.214 259.269 214.928Z" fill="#285173"/>
<path d="M250.807 169.866L250.548 172.373C250.548 172.373 255.842 174.48 264.774 167.132C264.774 167.132 258.443 172.341 250.807 169.866Z" fill="#A77860"/>
<path d="M222.221 211.774C222.221 211.774 221.097 201.641 224.203 195.257C224.203 195.257 222.783 201.156 224.786 209.707L222.221 211.774Z" fill="#1D3B54"/>
<path d="M251.573 184.607L247.651 189.855L259.402 184.082L251.573 184.607Z" fill="#D6C5BE"/>
<path d="M264.951 176.646C264.951 176.646 255.484 182.828 251.572 184.606L257.674 191.864L267.231 179.227L264.951 176.646Z" fill="#FAE6DE"/>
<path d="M247.651 189.855C247.651 189.855 250.325 177.499 250.159 175.792L246.152 183.521L247.651 189.855Z" fill="#D6C5BE"/>
<path d="M250.159 175.792L248.349 176.441L239.41 185.603L246.152 183.521L250.159 175.792Z" fill="#FAE6DE"/>
<path d="M170.897 364.123C265.326 364.123 341.795 287.653 341.795 193.153C341.795 98.9788 265.574 22.1965 170.897 22.1965C76.3984 22.1965 0 98.7597 0 193.153C0 287.609 76.43 364.123 170.897 364.123ZM170.897 30.7777C260.184 30.7777 333.231 103.399 333.231 193.152C333.231 282.7 260.414 355.542 170.897 355.542C81.3802 355.542 8.56405 282.7 8.56405 193.152C8.56405 103.054 81.9138 30.7777 170.897 30.7777Z" fill="url(#paint0_linear_3_1003)"/>
<defs>
<linearGradient id="paint0_linear_3_1003" x1="241.292" y1="-50.1365" x2="32.2398" y2="671.896" gradientUnits="userSpaceOnUse">
<stop stop-color="#40CDE6"/>
<stop offset="0.9896" stop-color="#5680DB"/>
</linearGradient>
</defs>
</svg>
