<svg width="327" height="328" viewBox="0 0 327 328" fill="none" xmlns="http://www.w3.org/2000/svg">
<path d="M176.095 276.28C169.845 276.28 164.419 275.642 160.161 274.877C150.636 273.166 144.738 270.469 144.679 270.442C144.532 270.374 144.468 270.2 144.536 270.053C144.604 269.906 144.779 269.842 144.925 269.91C144.983 269.937 150.829 272.608 160.286 274.304C169.01 275.868 182.68 276.9 198.262 272.928C198.419 272.888 198.578 272.983 198.618 273.14C198.658 273.297 198.564 273.456 198.407 273.496C190.319 275.558 182.742 276.28 176.095 276.28Z" fill="#232526"/>
<path d="M170.513 280.919C168.239 280.919 165.471 280.81 162.39 280.468C154.629 279.607 143.23 277.046 132.996 269.742C132.864 269.648 132.834 269.464 132.928 269.333C133.022 269.201 133.205 269.17 133.337 269.264C152.723 283.101 176.615 280.04 176.854 280.008C177.014 279.985 177.162 280.099 177.184 280.259C177.206 280.42 177.094 280.567 176.933 280.589C176.895 280.595 174.442 280.919 170.513 280.919Z" fill="#232526"/>
<path d="M200.721 64.5175C200.663 64.5175 200.603 64.4999 200.552 64.4631C200.485 64.4159 193.759 59.7002 181.274 56.9544C169.749 54.4195 150.82 53.0936 126.091 61.1684C125.937 61.2194 125.771 61.1345 125.721 60.9807C125.671 60.8267 125.755 60.6611 125.909 60.6109C150.782 52.489 169.833 53.8321 181.435 56.3895C194.024 59.1643 200.824 63.9377 200.892 63.9856C201.024 64.0795 201.054 64.2626 200.96 64.3944C200.903 64.4746 200.813 64.5175 200.721 64.5175Z" fill="#232526"/>
<path d="M208.813 62.5886C208.745 62.5886 208.676 62.5649 208.621 62.5171C208.561 62.4651 202.48 57.2771 190.492 53.504C179.425 50.0212 160.917 47.0668 135.595 52.7702C135.437 52.8057 135.28 52.7067 135.245 52.5487C135.209 52.3908 135.308 52.2338 135.466 52.1983C160.937 46.4614 179.563 49.444 190.704 52.9561C202.794 56.7679 208.944 62.0213 209.005 62.0739C209.127 62.18 209.14 62.3651 209.035 62.4875C208.976 62.5542 208.895 62.5886 208.813 62.5886Z" fill="#232526"/>
<path d="M219.627 63.7417C219.233 63.7417 218.89 63.6491 218.597 63.4644C217.898 63.0242 217.787 62.2448 217.679 61.4914C217.577 60.7812 217.481 60.1103 216.934 59.6822C216.281 59.1697 215.412 59.3678 214.494 59.5772C213.486 59.807 212.443 60.0445 211.566 59.3742C210.789 58.7805 210.687 57.8662 210.597 57.0594C210.511 56.2869 210.437 55.6197 209.855 55.2722C209.358 54.9758 208.782 55.0812 208.173 55.1926C207.459 55.3232 206.651 55.4711 205.968 54.8875C205.61 54.5822 205.473 54.2379 205.353 53.9342C205.234 53.6352 205.14 53.399 204.853 53.2207C204.392 52.9345 203.711 52.9658 202.829 53.3129C202.678 53.372 202.508 53.2981 202.448 53.1474C202.389 52.9966 202.463 52.8265 202.614 52.7672C203.678 52.3483 204.536 52.3335 205.162 52.7226C205.614 53.0029 205.765 53.3829 205.898 53.718C206.007 53.9931 206.101 54.2307 206.348 54.4418C206.819 54.8439 207.397 54.7385 208.067 54.6159C208.725 54.4959 209.469 54.3597 210.155 54.7688C210.987 55.2657 211.085 56.1447 211.18 56.9948C211.264 57.7519 211.344 58.4669 211.922 58.9087C212.581 59.4122 213.446 59.2147 214.363 59.0058C215.376 58.7751 216.422 58.5364 217.296 59.221C218.028 59.7943 218.151 60.652 218.259 61.4085C218.356 62.087 218.44 62.6727 218.91 62.9684C219.571 63.3858 220.775 63.0817 222.388 62.0905C222.525 62.0059 222.706 62.0486 222.791 62.1869C222.876 62.3248 222.833 62.5054 222.695 62.5902C221.443 63.3594 220.428 63.7417 219.627 63.7417Z" fill="#232526"/>
<path d="M52.1747 194.482C52.1126 194.482 52.0501 194.462 51.997 194.422C51.8683 194.323 51.8438 194.139 51.9422 194.011L53.3242 192.204C53.423 192.076 53.6067 192.051 53.7352 192.149C53.8639 192.248 53.8883 192.432 53.79 192.56L52.4079 194.367C52.3501 194.442 52.2629 194.482 52.1747 194.482Z" fill="#232526"/>
<path d="M48.9556 198.69C48.8934 198.69 48.8308 198.67 48.7777 198.629C48.649 198.531 48.6246 198.347 48.7229 198.218L50.1048 196.412C50.2036 196.283 50.3879 196.259 50.5158 196.357C50.6445 196.456 50.669 196.64 50.5706 196.768L49.1887 198.575C49.1309 198.65 49.0436 198.69 48.9556 198.69Z" fill="#232526"/>
<path d="M50.0555 194.764C49.9933 194.764 49.9308 194.744 49.8777 194.704L48.0713 193.322C47.9426 193.223 47.9181 193.039 48.0165 192.911C48.1154 192.782 48.2994 192.758 48.4275 192.856L50.2338 194.238C50.3625 194.336 50.387 194.52 50.2886 194.649C50.2308 194.724 50.1436 194.764 50.0555 194.764Z" fill="#232526"/>
<path d="M54.2634 197.983C54.2012 197.983 54.1386 197.964 54.0855 197.923L52.2792 196.541C52.1505 196.442 52.126 196.258 52.2244 196.13C52.3231 196.001 52.5074 195.977 52.6354 196.075L54.4417 197.457C54.5704 197.556 54.5949 197.74 54.4965 197.868C54.4387 197.944 54.3515 197.983 54.2634 197.983Z" fill="#232526"/>
<path d="M230.006 76.1536C229.646 76.1536 229.286 76.0867 228.941 75.9522C228.188 75.6595 227.595 75.0841 227.271 74.3321C226.61 72.7978 227.295 70.9992 228.8 70.3227C229.524 69.9973 230.329 69.9761 231.069 70.2636C231.822 70.5562 232.415 71.1317 232.739 71.8838C233.4 73.4181 232.714 75.2167 231.21 75.8932C230.824 76.0667 230.416 76.1536 230.006 76.1536ZM229.04 70.8575C227.826 71.4034 227.274 72.8581 227.809 74.1003C228.071 74.7069 228.548 75.1705 229.153 75.4059C229.745 75.6359 230.39 75.6192 230.97 75.3585C232.184 74.8127 232.736 73.3579 232.2 72.1157C231.939 71.5092 231.462 71.0454 230.856 70.8102C230.264 70.58 229.619 70.5971 229.04 70.8575Z" fill="#232526"/>
<path d="M271.645 80.8802H270.743L254.24 258.247H256.19C260.346 258.247 264.009 254.878 264.371 250.722L278.514 88.4049C278.876 84.2491 275.8 80.8802 271.645 80.8802Z" fill="white"/>
<path d="M256.19 258.54H254.24C254.158 258.54 254.079 258.505 254.024 258.444C253.968 258.383 253.941 258.302 253.948 258.219L270.451 80.853C270.465 80.7022 270.591 80.587 270.743 80.587H271.645C273.732 80.587 275.627 81.3999 276.98 82.876C278.34 84.3596 278.989 86.3321 278.806 88.4303L264.663 250.747C264.288 255.044 260.488 258.54 256.19 258.54ZM254.562 257.953H256.19C260.191 257.953 263.73 254.698 264.079 250.697L278.222 88.3793C278.39 86.4469 277.796 84.6331 276.548 83.2722C275.307 81.9186 273.566 81.1732 271.645 81.1732H271.01L254.562 257.953Z" fill="#232526"/>
<path d="M267.975 80.8801H82.1872C78.0314 80.8801 74.369 84.2491 74.0068 88.4047L59.8638 250.722C59.5017 254.878 62.5771 258.247 66.7329 258.247H252.521C256.677 258.247 260.339 254.878 260.702 250.722L274.845 88.4047C275.207 84.2491 272.131 80.8801 267.975 80.8801Z" fill="white"/>
<path d="M252.521 258.54H66.7328C64.6453 258.54 62.7502 257.727 61.3974 256.251C60.0374 254.767 59.3891 252.795 59.5718 250.696L73.7148 88.3793C74.0892 84.0826 77.8898 80.587 82.1871 80.587H267.975C270.063 80.587 271.958 81.3998 273.311 82.8757C274.671 84.3594 275.319 86.332 275.136 88.4303L260.993 250.747C260.619 255.044 256.818 258.54 252.521 258.54ZM82.1871 81.1733C78.1861 81.1733 74.6477 84.4288 74.2988 88.4303L60.1558 250.747C59.9875 252.68 60.5818 254.494 61.8295 255.855C63.07 257.208 64.8114 257.953 66.7327 257.953H252.521C256.522 257.953 260.061 254.698 260.409 250.697L274.553 88.3793C274.721 86.4468 274.126 84.633 272.879 83.2719C271.638 81.9185 269.897 81.1732 267.976 81.1732L82.1871 81.1733Z" fill="#232526"/>
<path d="M262.816 111.278H82.1001C81.9382 111.278 81.807 111.147 81.807 110.985C81.807 110.823 81.9383 110.692 82.1001 110.692H262.816C262.978 110.692 263.109 110.823 263.109 110.985C263.109 111.147 262.978 111.278 262.816 111.278Z" fill="#232526"/>
<path d="M139.637 248.107C139.629 248.107 139.62 248.107 139.611 248.106C139.45 248.092 139.331 247.95 139.345 247.789L152.816 93.186C152.83 93.0248 152.969 92.9036 153.133 92.9194C153.295 92.9334 153.414 93.0756 153.4 93.2369L139.929 247.84C139.916 247.992 139.788 248.107 139.637 248.107Z" fill="#232526"/>
<path d="M178.838 246.88C178.829 246.88 178.821 246.879 178.812 246.879C178.651 246.865 178.531 246.722 178.545 246.561L192.016 91.9582C192.03 91.7971 192.175 91.6762 192.334 91.6916C192.495 91.7056 192.614 91.8478 192.6 92.0091L179.129 246.612C179.116 246.765 178.988 246.88 178.838 246.88Z" fill="#232526"/>
<path d="M102.585 248.107C102.576 248.107 102.568 248.107 102.559 248.106C102.398 248.092 102.279 247.95 102.293 247.789L115.763 93.186C115.777 93.0248 115.918 92.9036 116.081 92.9194C116.242 92.9334 116.361 93.0756 116.347 93.2369L102.877 247.84C102.863 247.992 102.736 248.107 102.585 248.107Z" fill="#232526"/>
<path d="M219.443 247.187C219.434 247.187 219.426 247.187 219.417 247.186C219.256 247.172 219.137 247.03 219.151 246.869L232.621 92.2657C232.635 92.1043 232.782 91.9834 232.939 91.9991C233.1 92.0131 233.219 92.1553 233.205 92.3166L219.735 246.919C219.721 247.072 219.593 247.187 219.443 247.187Z" fill="#232526"/>
<path d="M146.903 106.712H120.815C120.733 106.712 120.656 106.678 120.601 106.619C120.545 106.559 120.517 106.48 120.522 106.399L121.333 94.274C121.343 94.12 121.471 94.0005 121.625 94.0005H147.713C147.794 94.0005 147.872 94.0341 147.927 94.0934C147.983 94.1526 148.011 94.2323 148.006 94.3132L147.196 106.438C147.185 106.592 147.058 106.712 146.903 106.712ZM121.128 106.125H146.629L147.4 94.5867H121.899L121.128 106.125Z" fill="#232526"/>
<path d="M184.271 106.712H158.183C158.102 106.712 158.024 106.678 157.969 106.619C157.913 106.559 157.885 106.48 157.89 106.399L158.7 94.274C158.711 94.12 158.838 94.0005 158.993 94.0005H185.081C185.162 94.0005 185.24 94.0341 185.295 94.0934C185.351 94.1526 185.379 94.2323 185.374 94.3132L184.564 106.438C184.553 106.592 184.426 106.712 184.271 106.712ZM158.496 106.125H183.997L184.768 94.5867H159.267L158.496 106.125Z" fill="#232526"/>
<path d="M110.763 106.712H84.6746C84.5935 106.712 84.5159 106.678 84.4605 106.619C84.405 106.559 84.3768 106.48 84.3821 106.399L85.1922 94.274C85.2024 94.12 85.3303 94.0005 85.4846 94.0005H111.573C111.654 94.0005 111.732 94.0341 111.787 94.0934C111.843 94.1526 111.871 94.2323 111.866 94.3132L111.055 106.438C111.045 106.592 110.917 106.712 110.763 106.712ZM84.988 106.125H110.489L111.26 94.5867H85.7591L84.988 106.125Z" fill="#232526"/>
<path d="M263.968 106.711H237.88C237.799 106.711 237.721 106.678 237.666 106.618C237.61 106.559 237.582 106.479 237.587 106.399L238.397 94.2737C238.407 94.1198 238.535 94.0002 238.69 94.0002H264.778C264.859 94.0002 264.937 94.0339 264.992 94.0931C265.047 94.1524 265.076 94.232 265.071 94.313L264.26 106.438C264.25 106.591 264.122 106.711 263.968 106.711ZM238.193 106.125H263.694L264.465 94.5865H238.964L238.193 106.125Z" fill="#232526"/>
<path d="M224.806 106.507H198.718C198.637 106.507 198.559 106.473 198.504 106.414C198.448 106.355 198.42 106.275 198.425 106.194L199.236 94.0692C199.246 93.9152 199.374 93.7955 199.528 93.7955H225.617C225.698 93.7955 225.775 93.8292 225.831 93.8884C225.886 93.9477 225.915 94.0273 225.909 94.1083L225.099 106.233C225.089 106.387 224.96 106.507 224.806 106.507ZM199.031 105.92H224.532L225.303 94.3819H199.802L199.031 105.92Z" fill="#232526"/>
<path d="M216.002 246.749H181.985L185.926 201.517H219.943L216.002 246.749Z" fill="white"/>
<path d="M179.306 211.518H145.839C145.756 211.518 145.678 211.484 145.623 211.423C145.567 211.363 145.539 211.282 145.546 211.2L149.424 165.968C149.437 165.816 149.564 165.7 149.716 165.7H183.184C183.266 165.7 183.344 165.734 183.399 165.795C183.455 165.855 183.483 165.936 183.476 166.018L179.598 211.25C179.585 211.401 179.458 211.518 179.306 211.518ZM146.158 210.932H179.037L182.864 166.286H149.985L146.158 210.932Z" fill="#232526"/>
<path d="M106.923 144.989H76.2081L78.5105 116.602H109.225L106.923 144.989Z" fill="white"/>
<path d="M232.021 145.73C232.013 145.73 232.005 145.73 231.997 145.729C231.836 145.716 231.715 145.574 231.728 145.413L234.03 117.026C234.043 116.873 234.17 116.756 234.323 116.756H265.037C265.119 116.756 265.197 116.79 265.253 116.851C265.309 116.911 265.336 116.991 265.33 117.073L264.105 132.176C264.092 132.337 263.949 132.459 263.789 132.444C263.628 132.431 263.507 132.289 263.52 132.128L264.72 117.343H234.593L232.313 145.46C232.3 145.614 232.172 145.73 232.021 145.73Z" fill="#232526"/>
<path d="M256.017 222.659H225.302C225.22 222.659 225.142 222.625 225.086 222.565C225.031 222.505 225.003 222.424 225.01 222.342L227.312 193.955C227.324 193.803 227.452 193.686 227.604 193.686H258.319C258.401 193.686 258.479 193.72 258.534 193.78C258.59 193.84 258.618 193.921 258.611 194.003L256.309 222.39C256.297 222.542 256.169 222.659 256.017 222.659ZM225.62 222.073H255.746L258.001 194.272H227.875L225.62 222.073Z" fill="#232526"/>
<path d="M191.589 145.319C191.581 145.319 191.573 145.319 191.565 145.318C191.403 145.305 191.284 145.163 191.297 145.002L193.663 116.615C193.676 116.463 193.803 116.346 193.955 116.346H225.526C225.608 116.346 225.687 116.38 225.742 116.44C225.798 116.501 225.825 116.582 225.818 116.663L225.607 119.205C225.593 119.366 225.454 119.486 225.29 119.473C225.129 119.459 225.009 119.318 225.022 119.156L225.208 116.932H194.225L191.881 145.051C191.869 145.203 191.74 145.319 191.589 145.319Z" fill="#232526"/>
<path d="M183.951 145.04H152.095L154.483 116.652H186.339L183.951 145.04Z" fill="white"/>
<path d="M102.056 206.807H70.2C70.118 206.807 70.0396 206.772 69.9842 206.712C69.9287 206.651 69.901 206.571 69.9079 206.489L72.2959 178.102C72.3086 177.95 72.4356 177.833 72.5881 177.833H86.7158C86.8778 177.833 87.009 177.964 87.009 178.126C87.009 178.288 86.8776 178.419 86.7158 178.419H72.8576L70.519 206.22H101.787L103.744 182.947C103.758 182.786 103.897 182.665 104.061 182.68C104.222 182.693 104.342 182.835 104.329 182.996L102.348 206.538C102.336 206.69 102.209 206.807 102.056 206.807Z" fill="#232526"/>
<path d="M143.492 172.896H111.636L114.024 144.508H145.88L143.492 172.896Z" fill="white"/>
<path d="M216.002 247.042H207.748C207.586 247.042 207.455 246.911 207.455 246.749C207.455 246.587 207.586 246.456 207.748 246.456H215.733L219.623 201.811H186.195L185.701 207.474C185.687 207.636 185.543 207.758 185.384 207.741C185.223 207.727 185.103 207.585 185.117 207.424L185.634 201.492C185.647 201.34 185.774 201.224 185.926 201.224H219.943C220.025 201.224 220.104 201.259 220.159 201.319C220.215 201.38 220.242 201.461 220.235 201.543L216.294 246.775C216.281 246.926 216.154 247.042 216.002 247.042Z" fill="#232526"/>
<path d="M107.491 138.283C107.483 138.283 107.475 138.283 107.467 138.282C107.305 138.269 107.185 138.128 107.198 137.966L108.907 116.895H94.3349C94.1729 116.895 94.0417 116.764 94.0417 116.602C94.0417 116.44 94.1731 116.309 94.3349 116.309H109.225C109.307 116.309 109.385 116.343 109.441 116.404C109.496 116.464 109.524 116.544 109.517 116.626L107.783 138.014C107.77 138.167 107.642 138.283 107.491 138.283Z" fill="#232526"/>
<path d="M90.8007 145.283H76.2081C76.1262 145.283 76.048 145.249 75.9925 145.188C75.9371 145.128 75.9092 145.048 75.9159 144.966L78.2182 116.579C78.2305 116.426 78.3577 116.309 78.5104 116.309H84.4488C84.6107 116.309 84.7419 116.44 84.7419 116.602C84.7419 116.764 84.6106 116.895 84.4488 116.895H78.7808L76.5259 144.696H90.8005C90.9625 144.696 91.0937 144.828 91.0937 144.989C91.0937 145.151 90.9626 145.283 90.8007 145.283Z" fill="#232526"/>
<path d="M159.931 145.333H152.095C152.013 145.333 151.935 145.298 151.879 145.238C151.824 145.178 151.796 145.097 151.803 145.015L154.191 116.628C154.204 116.476 154.331 116.359 154.483 116.359H174.307C174.469 116.359 174.6 116.491 174.6 116.652C174.6 116.814 174.469 116.946 174.307 116.946H154.753L152.414 144.746H159.931C160.093 144.746 160.225 144.878 160.225 145.04C160.224 145.201 160.093 145.333 159.931 145.333Z" fill="#232526"/>
<path d="M113.04 156.503C113.032 156.503 113.024 156.503 113.015 156.502C112.854 156.488 112.734 156.346 112.748 156.185L113.732 144.484C113.744 144.332 113.871 144.215 114.024 144.215H122.556C122.717 144.215 122.849 144.347 122.849 144.508C122.849 144.67 122.717 144.802 122.556 144.802H114.293L113.332 156.234C113.319 156.387 113.191 156.503 113.04 156.503Z" fill="#232526"/>
<path d="M135.266 173.189H111.636C111.554 173.189 111.476 173.154 111.42 173.094C111.365 173.034 111.337 172.953 111.344 172.871L112.044 164.549C112.058 164.388 112.196 164.266 112.361 164.281C112.522 164.295 112.642 164.437 112.629 164.598L111.955 172.602H135.267C135.429 172.602 135.56 172.734 135.56 172.896C135.56 173.057 135.428 173.189 135.266 173.189Z" fill="#232526"/>
<path d="M144.984 155.458C144.976 155.458 144.968 155.457 144.959 155.457C144.798 155.443 144.678 155.301 144.692 155.14L145.561 144.802H137.536C137.374 144.802 137.243 144.67 137.243 144.508C137.243 144.346 137.374 144.215 137.536 144.215H145.88C145.962 144.215 146.041 144.25 146.096 144.31C146.151 144.37 146.179 144.451 146.172 144.533L145.276 155.189C145.263 155.342 145.135 155.458 144.984 155.458Z" fill="#232526"/>
<path d="M78.403 110.196C96.5946 110.196 111.342 95.4485 111.342 77.2568C111.342 59.0652 96.5946 44.318 78.403 44.318C60.2113 44.318 45.4641 59.0652 45.4641 77.2568C45.4641 95.4485 60.2113 110.196 78.403 110.196Z" fill="#232526"/>
<path d="M78.3605 106.969C94.7639 106.969 108.062 93.6709 108.062 77.2674C108.062 60.8639 94.7639 47.5663 78.3605 47.5663C61.957 47.5663 48.6593 60.8639 48.6593 77.2674C48.6593 93.6709 61.957 106.969 78.3605 106.969Z" fill="white"/>
<path d="M101.995 93.4574C101.939 93.4574 101.881 93.4411 101.831 93.4072C101.697 93.3166 101.662 93.1344 101.752 93.0002C102.602 91.7425 103.354 90.4077 103.988 89.0324C104.056 88.8853 104.23 88.8211 104.377 88.8889C104.524 88.9567 104.588 89.1308 104.521 89.278C103.874 90.6817 103.105 92.0445 102.238 93.3282C102.181 93.4122 102.089 93.4574 101.995 93.4574Z" fill="#232526"/>
<path d="M106.545 81.7639C106.53 81.7639 106.516 81.7629 106.501 81.7608C106.341 81.737 106.231 81.5879 106.254 81.4276C106.458 80.0566 106.561 78.6535 106.561 77.2568C106.561 66.5364 100.325 56.5853 90.6727 51.9053C90.5271 51.8345 90.4663 51.6593 90.5368 51.5134C90.6076 51.3678 90.7828 51.3071 90.9285 51.3775C95.7164 53.6992 99.7653 57.3007 102.638 61.793C105.588 66.4071 107.147 71.7543 107.147 77.2567C107.147 78.6819 107.042 80.1141 106.834 81.5137C106.813 81.6594 106.688 81.7639 106.545 81.7639Z" fill="#232526"/>
<path d="M71.3327 49.9839C71.2019 49.9839 71.0827 49.8959 71.0489 49.7634C71.0088 49.6066 71.1034 49.4469 71.2604 49.4068C75.631 48.289 80.3315 48.2222 84.7339 49.2118C84.8919 49.2473 84.9912 49.4042 84.9556 49.5621C84.9203 49.7201 84.7635 49.8194 84.6054 49.7838C80.2925 48.8143 75.6868 48.88 71.4055 49.9748C71.3811 49.9811 71.3566 49.9839 71.3327 49.9839Z" fill="#232526"/>
<path d="M52.3562 66.0844C52.3167 66.0844 52.2767 66.0763 52.2381 66.0594C52.0899 65.9942 52.0228 65.8211 52.0881 65.6729C53.4738 62.5293 55.3968 59.6816 57.8034 57.2091C57.9167 57.0931 58.102 57.0907 58.2181 57.2035C58.3342 57.3164 58.3365 57.5021 58.2238 57.618C55.866 60.0401 53.9823 62.8298 52.6247 65.9094C52.5762 66.019 52.4688 66.0844 52.3562 66.0844Z" fill="#232526"/>
<path d="M63.1967 101.601C63.143 101.601 63.0887 101.587 63.0401 101.556C60.6092 100.016 58.4266 98.1244 56.5529 95.9344C56.4478 95.8114 56.462 95.6264 56.5851 95.5211C56.7082 95.4159 56.8931 95.4302 56.9984 95.5532C58.8342 97.6988 60.9725 99.5515 63.3539 101.06C63.4907 101.147 63.5312 101.328 63.4447 101.465C63.3888 101.553 63.2937 101.601 63.1967 101.601Z" fill="#232526"/>
<path d="M102.251 68.5676C98.7035 58.8326 89.3651 51.8812 78.4029 51.8812C78.3914 51.8812 78.38 51.8816 78.3685 51.8817L78.4029 76.7697L102.251 68.5676Z" fill="#232526"/>
<path d="M78.4029 53.3184C79.2579 53.3184 79.951 52.6253 79.951 51.7703C79.951 50.9152 79.2579 50.2221 78.4029 50.2221C77.5479 50.2221 76.8547 50.9152 76.8547 51.7703C76.8547 52.6253 77.5479 53.3184 78.4029 53.3184Z" fill="white"/>
<path d="M78.4029 53.6115C77.3875 53.6115 76.5615 52.7855 76.5615 51.7702C76.5615 50.7548 77.3875 49.9288 78.4029 49.9288C79.4182 49.9288 80.2442 50.7548 80.2442 51.7702C80.2442 52.7855 79.4182 53.6115 78.4029 53.6115ZM78.4029 50.5152C77.7109 50.5152 77.1479 51.0783 77.1479 51.7702C77.1479 52.4623 77.711 53.0251 78.4029 53.0251C79.0949 53.0251 79.6578 52.4623 79.6578 51.7702C79.6578 51.0783 79.095 50.5152 78.4029 50.5152Z" fill="#232526"/>
<path d="M78.4029 104.292C79.2579 104.292 79.951 103.598 79.951 102.743C79.951 101.888 79.2579 101.195 78.4029 101.195C77.5479 101.195 76.8547 101.888 76.8547 102.743C76.8547 103.598 77.5479 104.292 78.4029 104.292Z" fill="white"/>
<path d="M78.4029 104.585C77.3875 104.585 76.5615 103.759 76.5615 102.743C76.5615 101.728 77.3875 100.902 78.4029 100.902C79.4182 100.902 80.2442 101.728 80.2442 102.743C80.2442 103.759 79.4182 104.585 78.4029 104.585ZM78.4029 101.489C77.7109 101.489 77.1479 102.051 77.1479 102.743C77.1479 103.436 77.711 103.999 78.4029 103.999C79.0949 103.999 79.6578 103.436 79.6578 102.743C79.6578 102.051 79.095 101.489 78.4029 101.489Z" fill="#232526"/>
<path d="M54.4235 77.6111C54.6209 76.7791 54.1066 75.9447 53.2746 75.7472C52.4427 75.5498 51.6082 76.0642 51.4108 76.8961C51.2134 77.7281 51.7278 78.5625 52.5597 78.7599C53.3916 78.9574 54.2261 78.443 54.4235 77.6111Z" fill="white"/>
<path d="M52.9161 79.0982C51.9008 79.0982 51.0748 78.2722 51.0748 77.2569C51.0748 76.2416 51.9008 75.4156 52.9161 75.4156C53.9314 75.4156 54.7574 76.2416 54.7574 77.2569C54.7574 78.2722 53.9314 79.0982 52.9161 79.0982ZM52.9161 76.002C52.224 76.002 51.6612 76.5649 51.6612 77.2569C51.6612 77.949 52.224 78.5118 52.9161 78.5118C53.6082 78.5118 54.171 77.949 54.171 77.2569C54.171 76.5649 53.6082 76.002 52.9161 76.002Z" fill="#232526"/>
<path d="M105.396 77.6096C105.593 76.7777 105.079 75.9433 104.247 75.7458C103.415 75.5484 102.58 76.0628 102.383 76.8947C102.186 77.7266 102.7 78.5611 103.532 78.7585C104.364 78.956 105.198 78.4416 105.396 77.6096Z" fill="white"/>
<path d="M103.889 79.0981C102.874 79.0981 102.048 78.2721 102.048 77.2569C102.048 76.2416 102.874 75.4156 103.889 75.4156C104.905 75.4156 105.731 76.2416 105.731 77.2569C105.731 78.2721 104.905 79.0981 103.889 79.0981ZM103.889 76.002C103.197 76.002 102.635 76.5648 102.635 77.2569C102.635 77.9489 103.197 78.5117 103.889 78.5117C104.582 78.5117 105.144 77.9489 105.144 77.2569C105.144 76.5648 104.582 76.002 103.889 76.002Z" fill="#232526"/>
<path d="M66.3731 54.7729C66.6006 55.167 66.4656 55.6708 66.0715 55.8983C65.6774 56.1257 65.1735 55.9907 64.9461 55.5968C64.7186 55.2027 64.8536 54.6988 65.2477 54.4714C65.6417 54.2438 66.1455 54.3788 66.3731 54.7729Z" fill="white"/>
<path d="M65.6615 56.3015C65.2751 56.3015 64.899 56.1013 64.6923 55.7435C64.3843 55.2099 64.5678 54.5253 65.1012 54.2174C65.3598 54.0682 65.6604 54.0282 65.9488 54.1059C66.2369 54.1831 66.4779 54.3679 66.6271 54.6261L66.6272 54.6262C66.7763 54.8846 66.8158 55.1857 66.7388 55.474C66.6615 55.7621 66.4767 56.003 66.2182 56.1521C66.0427 56.2534 65.8509 56.3015 65.6615 56.3015ZM65.6587 54.6538C65.5667 54.6538 65.4761 54.6779 65.3944 54.7251C65.1408 54.8716 65.0537 55.1967 65.2001 55.4501C65.3462 55.7032 65.6712 55.7905 65.925 55.6443C66.0478 55.5734 66.1356 55.459 66.1723 55.322C66.2089 55.1851 66.1901 55.042 66.1193 54.9194C66.0483 54.7965 65.9339 54.7086 65.7969 54.672C65.7511 54.6599 65.7047 54.6538 65.6587 54.6538Z" fill="#232526"/>
<path d="M55.9189 89.2866C56.313 89.0592 56.8168 89.1942 57.0443 89.5881C57.2717 89.9822 57.1367 90.4861 56.7426 90.7135C56.3485 90.941 55.8447 90.806 55.6172 90.412C55.3899 90.0181 55.5249 89.5141 55.9189 89.2866Z" fill="white"/>
<path d="M56.3328 91.1171C55.9464 91.1171 55.5702 90.9168 55.3634 90.559C55.0554 90.0253 55.2389 89.3407 55.7723 89.0328C56.3051 88.7249 56.9902 88.9081 57.2982 89.4418C57.4476 89.7003 57.4871 90.0012 57.4099 90.2894C57.3326 90.5775 57.1478 90.8185 56.8895 90.9676C56.714 91.0688 56.5221 91.1171 56.3328 91.1171ZM56.3299 89.4697C56.2399 89.4697 56.1488 89.4925 56.0655 89.5407C55.9426 89.6116 55.8549 89.7259 55.8181 89.863C55.7815 89.9998 55.8003 90.1429 55.8712 90.2657C56.0174 90.5191 56.3427 90.6063 56.5961 90.4599C56.7189 90.3889 56.8067 90.2746 56.8434 90.1375C56.8801 90.0007 56.8612 89.8576 56.7903 89.7349C56.6922 89.5649 56.5134 89.4697 56.3299 89.4697Z" fill="#232526"/>
<path d="M100.063 63.8001C100.457 63.5726 100.961 63.7076 101.189 64.1017C101.416 64.4958 101.281 64.9996 100.887 65.2271C100.493 65.4546 99.9891 65.3196 99.7616 64.9255C99.5342 64.5314 99.6691 64.0275 100.063 63.8001Z" fill="white"/>
<path d="M100.477 65.631C100.38 65.631 100.282 65.6183 100.186 65.5925C99.8978 65.5152 99.6568 65.3304 99.5077 65.0721C99.3586 64.8139 99.3188 64.5128 99.396 64.2245C99.4733 63.9363 99.6581 63.6955 99.9165 63.5464C100.175 63.3969 100.476 63.357 100.764 63.4347C101.052 63.5119 101.293 63.6967 101.442 63.9551C101.591 64.2134 101.631 64.5145 101.554 64.8028C101.477 65.0909 101.292 65.3319 101.034 65.481C100.861 65.5804 100.671 65.631 100.477 65.631ZM100.474 63.9827C100.382 63.9827 100.291 64.0068 100.21 64.0539C100.21 64.0541 100.21 64.0541 100.21 64.0541C100.087 64.125 99.9991 64.2393 99.9625 64.3761C99.9258 64.513 99.9446 64.656 100.015 64.7787C100.087 64.9017 100.201 64.9894 100.338 65.0262C100.474 65.0625 100.618 65.044 100.741 64.9731C100.863 64.9022 100.951 64.7879 100.988 64.6508C101.024 64.514 101.006 64.3709 100.935 64.248C100.864 64.1254 100.75 64.0375 100.612 64.0008C100.567 63.9887 100.52 63.9827 100.474 63.9827Z" fill="#232526"/>
<path d="M56.7428 63.8C57.1369 64.0275 57.2719 64.5314 57.0444 64.9254C56.817 65.3195 56.313 65.4545 55.919 65.227C55.5249 64.9996 55.3899 64.4956 55.6175 64.1016C55.8449 63.7075 56.3488 63.5724 56.7428 63.8Z" fill="white"/>
<path d="M56.3289 65.6303C56.1395 65.6303 55.9479 65.5821 55.7724 65.4809C55.239 65.173 55.0555 64.4884 55.3634 63.9548C55.6717 63.4214 56.3563 63.2379 56.8894 63.5461C57.1477 63.6952 57.3325 63.936 57.4099 64.2242C57.487 64.5123 57.4475 64.8134 57.2983 65.0717C57.0916 65.4299 56.7153 65.6303 56.3289 65.6303ZM56.3318 63.983C56.1483 63.983 55.9695 64.0781 55.8711 64.2482C55.8004 64.3709 55.7815 64.5139 55.8181 64.6508C55.8549 64.7878 55.9427 64.9022 56.0655 64.9731C56.3187 65.1194 56.644 65.0324 56.7905 64.7789C56.8613 64.6562 56.8801 64.5132 56.8435 64.3763C56.8067 64.2393 56.719 64.1249 56.5961 64.054V64.0539C56.5128 64.0057 56.4217 63.983 56.3318 63.983Z" fill="#232526"/>
<path d="M100.887 89.2866C101.281 89.5141 101.416 90.0181 101.188 90.412C100.961 90.806 100.457 90.9411 100.063 90.7135C99.669 90.4861 99.534 89.9821 99.7616 89.5881C99.989 89.1942 100.493 89.0592 100.887 89.2866Z" fill="white"/>
<path d="M100.473 91.1177C100.28 91.1177 100.089 91.0668 99.9166 90.9674C99.6582 90.8184 99.4735 90.5775 99.3962 90.2894C99.319 90.0011 99.3586 89.7 99.508 89.4416C99.657 89.1834 99.8979 88.9986 100.186 88.9213C100.474 88.8441 100.775 88.8835 101.034 89.0329C101.292 89.182 101.477 89.4229 101.554 89.7111C101.631 89.9994 101.592 90.3005 101.443 90.5588C101.293 90.8171 101.052 91.0019 100.764 91.0791C100.668 91.105 100.57 91.1177 100.473 91.1177ZM100.476 89.4694C100.43 89.4694 100.384 89.4754 100.338 89.4876C100.201 89.5243 100.087 89.6121 100.016 89.7349C99.9446 89.8577 99.9258 90.0005 99.9625 90.1376C99.9992 90.2744 100.087 90.3889 100.21 90.4597C100.333 90.5307 100.476 90.5495 100.612 90.5128C100.749 90.4761 100.864 90.3882 100.935 90.2655C101.006 90.1427 101.024 89.9998 100.988 89.8628C100.951 89.7259 100.863 89.6114 100.741 89.5405C100.659 89.4933 100.568 89.4694 100.476 89.4694Z" fill="#232526"/>
<path d="M64.9461 98.9171C65.1736 98.523 65.6776 98.388 66.0715 98.6154C66.4656 98.8429 66.6006 99.3469 66.3731 99.7408C66.1457 100.135 65.6417 100.27 65.2477 100.042C64.8536 99.8149 64.7185 99.311 64.9461 98.9171Z" fill="white"/>
<path d="M65.6577 100.446C65.4683 100.446 65.2764 100.398 65.1011 100.296C64.5677 99.9886 64.3842 99.304 64.6921 98.7704L64.6922 98.7703C65.0004 98.2371 65.6846 98.0539 66.2181 98.3615C66.4765 98.5107 66.6614 98.7516 66.7387 99.0397C66.8159 99.328 66.7764 99.6291 66.6271 99.8875C66.4202 100.245 66.044 100.446 65.6577 100.446ZM65.1999 99.0637C65.0538 99.317 65.1409 99.6423 65.3942 99.7884C65.648 99.9349 65.9729 99.8476 66.1192 99.5942C66.19 99.4715 66.2088 99.3285 66.1722 99.1916C66.1355 99.0547 66.0477 98.9402 65.9249 98.8693C65.6715 98.7232 65.3465 98.8104 65.1999 99.0637Z" fill="#232526"/>
<path d="M90.4329 54.7728C90.6603 54.3787 91.1643 54.2437 91.5583 54.4712C91.9524 54.6987 92.0874 55.2026 91.8598 55.5966C91.6323 55.9907 91.1283 56.1257 90.7344 55.8981C90.3404 55.6706 90.2054 55.1668 90.4329 54.7728Z" fill="white"/>
<path d="M91.1445 56.3015C90.9551 56.3016 90.7633 56.2534 90.5878 56.1521C90.3295 56.0029 90.1447 55.7621 90.0675 55.4739C89.9902 55.1856 90.0299 54.8845 90.1792 54.6262C90.3283 54.3677 90.5691 54.183 90.8573 54.1059C91.1452 54.0283 91.4465 54.0681 91.705 54.2176C91.9632 54.3666 92.148 54.6075 92.2253 54.8958C92.3025 55.1841 92.263 55.4852 92.1138 55.7435C91.9071 56.1012 91.5309 56.3015 91.1445 56.3015ZM91.1473 54.6538C91.1012 54.6538 91.0548 54.6598 91.0092 54.6721C90.8722 54.7087 90.7578 54.7966 90.6869 54.9193C90.616 55.0421 90.5971 55.1851 90.6338 55.3221C90.6704 55.459 90.7583 55.5735 90.881 55.6443C91.1341 55.791 91.4598 55.7037 91.6059 55.4502C91.7521 55.1967 91.6651 54.8716 91.4116 54.7253C91.3299 54.678 91.2391 54.6538 91.1473 54.6538Z" fill="#232526"/>
<path d="M91.9752 99.7206C91.9777 99.2656 91.6109 98.8947 91.1558 98.8922C90.7008 98.8897 90.3299 99.2565 90.3274 99.7116C90.3249 100.167 90.6918 100.537 91.1468 100.54C91.6018 100.542 91.9727 100.176 91.9752 99.7206Z" fill="white"/>
<path d="M91.1445 100.83C90.9551 100.83 90.7633 100.782 90.5878 100.681C90.3295 100.532 90.1447 100.291 90.0675 100.003C89.9902 99.7145 90.0299 99.4134 90.1792 99.1551C90.3283 98.8968 90.5691 98.7119 90.8573 98.6348C91.1456 98.5571 91.4465 98.5971 91.705 98.7465C91.9632 98.8955 92.148 99.1364 92.2253 99.4245C92.3025 99.7127 92.263 100.014 92.1138 100.272C91.9071 100.63 91.5309 100.83 91.1445 100.83ZM91.1473 99.1826C91.1012 99.1826 91.0548 99.1886 91.0092 99.2009C90.8722 99.2375 90.7578 99.3254 90.6869 99.4481C90.616 99.5709 90.5971 99.7139 90.6338 99.8508C90.6704 99.9878 90.7583 100.102 90.881 100.173C91.0038 100.244 91.147 100.263 91.2837 100.226C91.4207 100.189 91.5351 100.102 91.606 99.9789C91.6769 99.8562 91.6957 99.7132 91.6591 99.5763C91.6223 99.4393 91.5346 99.3249 91.4118 99.254C91.3299 99.2068 91.2391 99.1826 91.1473 99.1826Z" fill="#232526"/>
<path d="M88.1544 75.7847C80.709 78.365 78.3681 78.3031 78.0348 77.3414C77.7015 76.3798 79.5021 74.8825 86.9475 72.3024C92.2695 70.458 99.2056 69.0508 102.729 68.3981C103.267 68.2985 103.451 68.8317 102.967 69.0863C99.7958 70.7537 93.4764 73.9402 88.1544 75.7847Z" fill="white"/>
<path d="M79.4917 78.2412C78.2943 78.2412 77.9061 77.8649 77.7579 77.4375C77.4322 76.4978 78.1717 75.0335 86.8515 72.0252C92.1607 70.1852 99.0446 68.7822 102.676 68.1097C103.125 68.0267 103.418 68.2524 103.509 68.5132C103.599 68.7742 103.509 69.1328 103.104 69.3456C99.8361 71.064 93.5612 74.2212 88.2507 76.0616C83.5199 77.701 80.9256 78.2412 79.4917 78.2412ZM102.856 68.679C102.835 68.679 102.811 68.6809 102.782 68.6863C99.1675 69.3558 92.3162 70.7519 87.0436 72.5793C79.0047 75.3653 78.1223 76.6987 78.3119 77.2454C78.5015 77.7924 80.0195 78.2937 88.0584 75.5076C93.3327 73.6798 99.5776 70.5374 102.831 68.8266C102.931 68.7742 102.957 68.7183 102.954 68.705C102.95 68.6965 102.918 68.679 102.856 68.679Z" fill="#232526"/>
<path d="M80.9897 69.2721C81.1638 74.2804 80.1666 75.7097 78.8768 75.7546C77.5869 75.7995 76.4929 74.4428 76.3187 69.4346C76.1943 65.8546 77.2326 61.355 77.8349 59.0796C77.9269 58.7322 78.6421 58.7073 78.758 59.0475C79.5169 61.2756 80.8653 65.6923 80.9897 69.2721Z" fill="white"/>
<path d="M78.8147 76.0489C78.0063 76.0489 77.3673 75.567 76.9146 74.6155C76.3998 73.5334 76.109 71.8421 76.0256 69.4447C75.9006 65.8478 76.9279 61.3597 77.5515 59.0045C77.6273 58.7183 77.9122 58.5254 78.2773 58.5127C78.646 58.4993 78.9399 58.6729 79.0354 58.9528C79.821 61.2595 81.1576 65.6659 81.2827 69.2621C81.366 71.6594 81.1933 73.3667 80.755 74.4819C80.358 75.4916 79.7296 76.0183 78.8868 76.0476C78.8627 76.0485 78.8387 76.0489 78.8147 76.0489ZM78.3131 59.0984C78.3081 59.0984 78.303 59.0985 78.2978 59.0987C78.1928 59.1022 78.127 59.1414 78.1173 59.1573C77.5032 61.4784 76.4894 65.903 76.6118 69.4244C76.6912 71.7077 76.9712 73.3695 77.4442 74.3635C77.8055 75.1231 78.2707 75.4808 78.8665 75.4616C79.4623 75.4409 79.9016 75.0504 80.2093 74.2675C80.6121 73.243 80.7761 71.5657 80.6966 69.2825C80.5743 65.7616 79.2555 61.4179 78.4804 59.1421C78.4715 59.1302 78.4095 59.0984 78.3131 59.0984Z" fill="#232526"/>
<path d="M79.9065 80.0999C81.5868 79.4204 82.398 77.5074 81.7185 75.8272C81.039 74.147 79.126 73.3358 77.4458 74.0153C75.7655 74.6948 74.9543 76.6078 75.6338 78.288C76.3134 79.9682 78.2263 80.7795 79.9065 80.0999Z" fill="white"/>
<path d="M78.6831 80.6333C76.7117 80.6333 75.1079 79.0296 75.1079 77.0582C75.1079 75.0869 76.7117 73.4832 78.6831 73.4832C80.6544 73.4832 82.2581 75.0869 82.2581 77.0582C82.2581 79.0296 80.6544 80.6333 78.6831 80.6333ZM78.6831 74.0695C77.0351 74.0695 75.6943 75.4102 75.6943 77.0582C75.6943 78.7061 77.0351 80.047 78.6831 80.047C80.331 80.047 81.6717 78.7061 81.6717 77.0582C81.6717 75.4102 80.3311 74.0695 78.6831 74.0695Z" fill="#232526"/>
<path d="M49.7452 260.815C37.5845 249.606 43.8791 242.376 43.8791 242.376C43.8791 242.376 49.3115 233.575 68.3753 245.08C87.4392 256.586 105.892 252.308 110.065 250.584C114.237 248.859 128.819 238.018 137.035 237.409C141.607 237.071 147.08 240.508 142.279 249.8C132.351 269.016 105.389 271.209 105.389 271.209C105.389 271.209 92.3193 273.664 78.8928 271.286C78.8928 271.286 61.906 272.025 49.7452 260.815Z" fill="white"/>
<path d="M91.4391 272.609C87.5693 272.609 83.232 272.35 78.872 271.58C78.0125 271.606 61.4 271.958 49.5462 261.031C43.1847 255.167 41.9087 250.375 41.9585 247.387C42.0111 244.242 43.4656 242.412 43.6425 242.201C43.8012 241.957 45.247 239.874 48.9196 239.126C53.9589 238.1 60.5554 240.019 68.5265 244.829C76.6455 249.729 85.4884 252.31 94.8097 252.5C102.22 252.65 107.814 251.196 109.952 250.313C111.192 249.8 113.46 248.412 116.086 246.805C122.468 242.898 131.21 237.547 137.014 237.117C139.138 236.959 141.944 237.603 143.449 239.88C144.546 241.54 145.279 244.633 142.539 249.935C137.368 259.945 127.544 265.276 120.213 267.986C112.468 270.848 105.796 271.468 105.428 271.5C105.084 271.563 99.2077 272.609 91.4391 272.609ZM78.8928 270.992C78.9099 270.992 78.9271 270.994 78.9439 270.997C92.1601 273.338 105.205 270.945 105.335 270.921C105.345 270.919 105.355 270.918 105.365 270.917C105.433 270.911 112.17 270.336 120.024 267.43C127.252 264.757 136.936 259.504 142.019 249.666C144.628 244.616 143.971 241.733 142.96 240.203C141.595 238.138 139.017 237.558 137.057 237.702C131.395 238.122 122.724 243.429 116.392 247.305C113.636 248.992 111.459 250.325 110.176 250.855C107.997 251.756 102.302 253.239 94.7979 253.086C85.3726 252.894 76.4318 250.285 68.2238 245.331C58.4969 239.461 52.4518 239.024 49.0935 239.69C45.4941 240.404 44.1415 242.51 44.1282 242.531C44.1203 242.543 44.1105 242.557 44.1006 242.568C44.0855 242.586 42.5826 244.36 42.5444 247.439C42.5091 250.299 43.764 254.903 49.9439 260.6C61.8714 271.595 78.7124 271 78.8802 270.993C78.8844 270.993 78.8886 270.992 78.8928 270.992Z" fill="#232526"/>
<path d="M81.3026 263.111L85.6089 265.52L83.4589 269.988L79.8943 267.706L81.3026 263.111Z" fill="white"/>
<path d="M83.4589 270.281C83.4033 270.281 83.3485 270.265 83.3009 270.235L79.7363 267.953C79.6255 267.882 79.5756 267.745 79.614 267.62L81.0224 263.025C81.0483 262.94 81.1113 262.872 81.1935 262.839C81.276 262.806 81.3686 262.812 81.4459 262.855L85.7521 265.264C85.8872 265.34 85.9403 265.508 85.8731 265.647L83.723 270.115C83.6866 270.191 83.6197 270.247 83.5388 270.27C83.5127 270.277 83.4857 270.281 83.4589 270.281ZM80.2399 267.579L83.3382 269.563L85.2252 265.642L81.4765 263.544L80.2399 267.579Z" fill="#232526"/>
<path d="M83.9188 264.951C84.4174 264.308 85.3907 264.316 85.8736 264.971L87.9638 267.807L85.1399 271.444L81.4006 269.724C81.6577 268.111 82.9659 266.181 83.9188 264.951Z" fill="#232526"/>
<path d="M83.4851 267.97L84.6267 266.814C85.0375 266.399 85.68 266.319 86.1798 266.622L86.9914 267.114L87.166 266.737C87.355 266.328 87.8196 266.125 88.247 266.268C90.8513 267.138 99.5022 270.119 102.396 272.263C105.819 274.798 103.388 280.44 97.4185 279.864C92.688 279.408 86.2226 274.133 83.7429 271.963C83.2555 271.537 83.3786 270.749 83.9715 270.489L83.9775 270.486L83.3462 269.578C82.9989 269.079 83.0572 268.402 83.4851 267.97Z" fill="white"/>
<path d="M98.2775 280.2C97.9925 280.2 97.6969 280.186 97.3905 280.156C92.5932 279.694 86.1131 274.427 83.5498 272.184C83.2457 271.918 83.1008 271.52 83.1621 271.121C83.2059 270.836 83.3494 270.584 83.5622 270.403L83.1055 269.746C82.6777 269.13 82.7494 268.297 83.2764 267.764L84.418 266.608C84.9263 266.094 85.7134 265.997 86.3319 266.372L86.863 266.694L86.8998 266.614C87.152 266.068 87.771 265.801 88.3398 265.99C90.9379 266.858 99.6429 269.858 102.57 272.027C104.116 273.172 104.651 274.992 103.966 276.775C103.336 278.415 101.484 280.2 98.2775 280.2ZM83.6935 268.176C83.3651 268.508 83.3204 269.027 83.5869 269.411L84.2184 270.319C84.2679 270.39 84.2833 270.48 84.2607 270.563C84.2379 270.647 84.1795 270.716 84.101 270.752C83.9001 270.841 83.7733 271.006 83.7419 271.21C83.7107 271.413 83.7814 271.607 83.936 271.742C86.4567 273.948 92.8191 279.127 97.4468 279.573C100.874 279.903 102.806 278.158 103.419 276.565C104.005 275.038 103.546 273.48 102.221 272.498C99.3634 270.381 90.7316 267.407 88.1542 266.546C87.8693 266.451 87.5588 266.586 87.4323 266.86L87.2577 267.237C87.2226 267.313 87.1571 267.37 87.0772 267.395C86.9973 267.419 86.911 267.408 86.8395 267.365L86.0281 266.873C85.6427 266.639 85.1522 266.7 84.8354 267.02L83.6935 268.176Z" fill="#232526"/>
<path d="M90.9097 274.427C90.8674 274.427 90.8245 274.418 90.7838 274.398C90.6377 274.329 90.5756 274.154 90.6449 274.008L92.5785 269.942C92.6481 269.796 92.8235 269.733 92.9694 269.803C93.1155 269.872 93.1776 270.047 93.1083 270.194L91.1747 274.259C91.1244 274.365 91.0192 274.427 90.9097 274.427Z" fill="#232526"/>
<path d="M99.8694 263.047C99.788 263.047 99.7073 263.013 99.6494 262.947L99.0174 262.23C98.9637 262.169 98.9376 262.089 98.9453 262.009C98.953 261.928 98.9938 261.854 99.058 261.804L119.161 246.292C119.289 246.193 119.473 246.217 119.572 246.345C119.671 246.473 119.648 246.657 119.519 246.756L99.664 262.077L100.089 262.559C100.196 262.681 100.184 262.866 100.063 262.973C100.007 263.022 99.9382 263.047 99.8694 263.047Z" fill="#232526"/>
<path d="M100.562 264.007L91.8109 267.149L93.196 271.91L103.761 269.029L100.562 264.007Z" fill="white"/>
<path d="M93.1956 272.203C93.0684 272.203 92.9516 272.119 92.9143 271.991L91.5293 267.231C91.4858 267.082 91.5657 266.925 91.7116 266.873L100.463 263.731C100.592 263.685 100.736 263.734 100.809 263.85L104.008 268.871C104.058 268.95 104.068 269.047 104.034 269.134C104.001 269.221 103.928 269.287 103.838 269.312L93.2727 272.192C93.2472 272.199 93.2212 272.203 93.1956 272.203ZM92.1693 267.332L93.3968 271.551L103.3 268.85L100.441 264.362L92.1693 267.332Z" fill="#232526"/>
<path d="M93.5717 266.866C93.1859 266.149 92.2245 265.997 91.6402 266.564L89.1116 269.017L91.298 273.069L95.2695 271.989C95.2817 270.355 94.3092 268.235 93.5717 266.866Z" fill="#232526"/>
<path d="M93.5026 269.914L92.5667 268.587C92.2299 268.109 91.6092 267.925 91.0664 268.142L90.1848 268.493L90.0748 268.092C89.9557 267.657 89.5307 267.382 89.0857 267.452C86.3737 267.881 77.3501 269.397 74.1429 271.035C70.3495 272.972 71.818 278.937 77.8006 279.353C82.5417 279.682 89.7875 275.543 92.5905 273.811C93.1414 273.471 93.1497 272.674 92.6076 272.32L92.6021 272.316L93.3744 271.524C93.7994 271.088 93.8533 270.412 93.5026 269.914Z" fill="white"/>
<path d="M78.3466 279.664C78.1542 279.664 77.9657 279.658 77.7801 279.645C74.0163 279.384 72.2339 277.102 71.8511 275.227C71.4689 273.355 72.296 271.649 74.0095 270.774C77.2534 269.117 86.334 267.591 89.0399 267.162C89.6307 267.069 90.1984 267.435 90.3574 268.014L90.3807 268.099L90.9577 267.869C91.6296 267.601 92.3897 267.827 92.8063 268.418L93.7421 269.745C94.174 270.358 94.1077 271.192 93.5844 271.729L93.0252 272.302C93.2063 272.516 93.3058 272.788 93.3021 273.075C93.297 273.48 93.0885 273.848 92.7445 274.06C89.9585 275.782 83.1408 279.664 78.3466 279.664ZM89.224 267.734C89.1936 267.734 89.1626 267.737 89.1316 267.742C86.4473 268.167 77.4432 269.679 74.2762 271.296C72.8076 272.046 72.0985 273.507 72.4257 275.11C72.7673 276.783 74.3853 278.821 77.8209 279.06C77.9962 279.072 78.1758 279.078 78.3577 279.078C82.992 279.079 89.6945 275.255 92.4365 273.561C92.6114 273.453 92.7133 273.273 92.7159 273.068C92.7185 272.861 92.6205 272.678 92.4473 272.565C92.3738 272.517 92.3231 272.437 92.3135 272.35C92.304 272.262 92.3312 272.174 92.3924 272.111L93.1648 271.319C93.4909 270.985 93.5322 270.465 93.263 270.083L92.3273 268.756C92.0675 268.387 91.5938 268.247 91.1753 268.414L90.2936 268.766C90.2163 268.797 90.1289 268.793 90.0542 268.756C89.9795 268.719 89.9242 268.651 89.9022 268.571L89.7922 268.17C89.7207 267.909 89.4854 267.734 89.224 267.734Z" fill="#232526"/>
<path d="M85.1639 275.065C85.0364 275.065 84.9189 274.981 84.8822 274.852L83.6445 270.524C83.6001 270.368 83.6902 270.206 83.8458 270.161C84.0019 270.116 84.1638 270.207 84.2083 270.362L85.4458 274.691C85.4903 274.847 85.4001 275.009 85.2445 275.054C85.2178 275.061 85.1906 275.065 85.1639 275.065Z" fill="#232526"/>
<path d="M78.1411 278.399C78.088 278.399 78.0341 278.385 77.9858 278.355C73.1697 275.339 75.0824 271.432 75.1024 271.393C75.1761 271.249 75.3527 271.191 75.4967 271.264C75.6408 271.338 75.6984 271.514 75.6255 271.658C75.5545 271.799 73.9479 275.134 78.2971 277.858C78.4344 277.943 78.4759 278.124 78.39 278.262C78.3343 278.351 78.2388 278.399 78.1411 278.399Z" fill="#232526"/>
<path d="M81.5747 262.33C81.5553 262.33 81.5357 262.328 81.516 262.324C81.3573 262.292 81.2549 262.137 81.2871 261.978L81.5551 260.659C80.7017 259.979 75.9802 256.239 68.4689 250.715C60.1886 244.625 58.3751 243.379 58.3577 243.367C58.2241 243.275 58.1899 243.093 58.2814 242.959C58.3729 242.826 58.5555 242.791 58.6889 242.883C58.7063 242.895 60.5201 244.141 68.8163 250.242C77.1138 256.345 82.0133 260.274 82.0618 260.313C82.1472 260.381 82.1874 260.492 82.1654 260.6L81.8618 262.095C81.8335 262.234 81.7112 262.33 81.5747 262.33Z" fill="#232526"/>
<path d="M124.606 233.121C123.981 230.323 119.99 220.006 116.981 212.406C114.579 206.34 108.773 201.966 101.861 201.087C96.7162 200.432 91.1385 200.3 85.7751 200.723C76.8321 201.427 69.1512 206.901 66.1932 214.748C63.5291 221.816 60.625 230.493 60.5594 234.889C60.4894 239.571 63.3185 244.046 66.4061 247.52C70.301 251.904 75.8575 254.637 81.8579 255.193C90.4303 255.987 103.807 256.782 109.883 254.797C119.201 251.753 126.119 239.893 124.606 233.121Z" fill="#232526"/>
<path d="M112.542 219.435H72.0375C70.1994 219.435 68.7095 220.926 68.7095 222.764V249.544C68.7095 251.383 70.1994 252.873 72.0375 252.873H112.542C114.38 252.873 115.87 251.382 115.87 249.544V222.764C115.87 220.925 114.38 219.435 112.542 219.435Z" fill="white"/>
<path d="M112.542 253.166H72.0377C70.041 253.166 68.4165 251.541 68.4165 249.545V222.764C68.4165 220.767 70.041 219.142 72.0377 219.142H112.542C114.539 219.142 116.163 220.767 116.163 222.764V249.545C116.163 251.541 114.539 253.166 112.542 253.166ZM72.0377 219.729C70.3642 219.729 69.0029 221.09 69.0029 222.763V249.544C69.0029 251.218 70.3642 252.579 72.0377 252.579H112.542C114.215 252.579 115.577 251.218 115.577 249.544V222.763C115.577 221.09 114.215 219.729 112.542 219.729H72.0377Z" fill="#232526"/>
<path d="M115.225 253.034H68.6636C67.5065 253.034 66.5685 253.972 66.5685 255.129C66.5685 256.286 67.5065 257.224 68.6636 257.224H115.225C116.382 257.224 117.32 256.286 117.32 255.129C117.32 253.972 116.382 253.034 115.225 253.034Z" fill="white"/>
<path d="M115.225 257.517H68.6638C67.3468 257.517 66.2754 256.446 66.2754 255.129C66.2754 253.812 67.3468 252.74 68.6638 252.74H115.225C116.542 252.74 117.614 253.812 117.614 255.129C117.614 256.446 116.542 257.517 115.225 257.517ZM68.6638 253.327C67.6701 253.327 66.8618 254.135 66.8618 255.129C66.8618 256.123 67.6701 256.931 68.6638 256.931H115.225C116.219 256.931 117.027 256.123 117.027 255.129C117.027 254.135 116.219 253.327 115.225 253.327H68.6638Z" fill="#232526"/>
<path d="M95.8719 200.926L96.3082 194.743C96.6036 194.723 96.8077 194.71 96.8677 194.71C98.5928 194.69 99.1532 194.131 99.3016 192.714C99.3945 191.828 99.4272 190.512 98.9952 188.866C98.9491 188.69 98.9592 188.503 99.0305 188.336L99.3253 187.645C99.3865 187.419 99.3079 187.174 99.1265 187.026L98.9694 186.897C98.407 186.435 97.9391 185.868 97.564 185.239C97.2188 184.659 96.6323 183.574 96.2299 183.382C95.0967 182.84 90.4983 180.435 87.9279 184.638C85.9239 187.916 89.1986 192.427 90.3887 193.905C90.6763 194.262 88.4459 201.268 88.4459 201.268L85.562 201.965C85.562 201.965 87.7873 205.917 94.5464 204.282C99.3597 203.118 98.5951 201.328 98.5951 201.328L95.8719 200.926Z" fill="white"/>
<path d="M91.4292 204.976C86.9824 204.977 85.3853 202.248 85.3065 202.109C85.2615 202.029 85.2565 201.932 85.2931 201.848C85.3297 201.763 85.4038 201.701 85.4931 201.68L88.2166 201.022C89.1904 197.951 90.1427 194.592 90.1228 194.042C88.679 192.237 85.6506 187.801 87.678 184.485C89.4195 181.637 92.2985 181.157 96.2355 183.059L96.3566 183.117C96.7534 183.307 97.1653 183.974 97.6626 184.827L97.816 185.089C98.1897 185.716 98.6403 186.248 99.1554 186.67L99.3128 186.799C99.5839 187.021 99.7001 187.384 99.6085 187.722C99.605 187.735 99.6005 187.748 99.5952 187.76L99.3005 188.451C99.2563 188.555 99.2487 188.675 99.279 188.791C99.6293 190.127 99.7323 191.42 99.5935 192.745C99.4231 194.37 98.6852 194.982 96.8713 195.003C96.8324 195.003 96.7311 195.009 96.5827 195.019L96.1838 200.676L98.638 201.037C98.7388 201.052 98.8248 201.118 98.8648 201.212C98.8856 201.261 99.058 201.701 98.7607 202.294C98.2792 203.254 96.8845 204.019 94.6154 204.567C93.42 204.856 92.3616 204.976 91.4292 204.976ZM86.0465 202.149C86.7451 203.035 89.1202 205.293 94.4775 203.997C97.0518 203.375 97.9351 202.599 98.2227 202.058C98.3276 201.86 98.349 201.697 98.3464 201.587L95.8292 201.216C95.6776 201.194 95.5688 201.058 95.5795 200.905L96.0157 194.723C96.026 194.577 96.1421 194.461 96.2879 194.451C96.5923 194.43 96.8026 194.417 96.8643 194.416C98.5469 194.397 98.8862 193.866 99.0102 192.684C99.1416 191.43 99.0439 190.206 98.7118 188.94C98.6485 188.699 98.666 188.443 98.7609 188.221L99.0463 187.552C99.0692 187.442 99.028 187.324 98.9407 187.252L98.7833 187.123C98.2158 186.658 97.7207 186.074 97.3121 185.389L97.1558 185.122C96.881 184.651 96.3691 183.773 96.1036 183.646L95.9803 183.587C94.6316 182.935 90.5262 180.952 88.178 184.791C86.3272 187.818 89.2672 192.044 90.6169 193.721C90.7326 193.865 91.0035 194.201 88.7252 201.357C88.6941 201.454 88.6144 201.529 88.5147 201.553L86.0465 202.149Z" fill="#232526"/>
<path d="M89.3451 179.293C90.5915 179.025 92.0238 179.216 92.6285 178.994C93.604 178.635 93.6311 177.467 94.9805 177.139C96.6143 176.741 97.2959 177.439 97.9348 178.411C98.0412 178.573 98.1349 178.754 98.2116 178.96C99.2386 181.714 97.942 183.057 97.3646 183.495C97.3646 183.495 93.6893 185.394 93.06 185.936C92.4714 186.444 91.7923 187.645 92.2193 189.372C92.2744 189.595 92.1773 189.826 91.9889 189.94C91.7678 190.073 91.4818 190.01 91.3303 189.79C90.8526 189.097 89.8086 187.757 89.0656 188.075C88.1324 188.473 88.423 191.271 90.482 191.593C91.1139 191.692 91.628 192.34 91.5656 193.001C91.5249 193.433 91.1177 193.957 90.5123 194.096C90.1431 194.181 89.7784 194.032 89.4531 193.824C88.1095 192.966 84.3194 189.329 83.8487 186.067C83.2814 182.139 87.6867 179.651 89.3451 179.293Z" fill="#232526"/>
<path d="M96.7723 194.974C96.7688 194.974 96.765 194.974 96.7615 194.974C96.6988 194.972 95.215 194.907 94.1451 193.999C94.0217 193.894 94.0067 193.709 94.1115 193.586C94.2164 193.462 94.4012 193.447 94.5248 193.552C95.4367 194.326 96.7702 194.388 96.7834 194.388C96.9451 194.395 97.0712 194.531 97.0651 194.692C97.0589 194.85 96.9291 194.974 96.7723 194.974Z" fill="#232526"/>
<path d="M241.313 137.565C241.538 136.166 241.171 135.804 241.501 134.568C241.794 133.471 242.36 132.163 243.445 131.061C243.647 130.856 245.173 129.332 247.415 128.968C252.772 128.097 257.814 131.418 259.443 133.274C260.899 134.933 261.194 138.085 262.299 139.119C265.663 142.266 268.116 141.406 270.893 144.124C272.896 146.084 273.589 148.456 273.916 149.573C274.19 150.512 274.812 153.016 273.972 157.156C272.756 163.154 270.401 163.081 269.495 167.628C268.349 173.375 271.748 175.308 270.163 179.738C268.917 183.217 265.396 186.004 261.54 186.214C254.007 186.623 249.202 177.003 249.012 176.384C248.213 173.778 246.712 172.533 249.582 165.579C251.377 161.23 249.924 155.24 248.408 153.745C247.177 152.532 240.973 157.021 238.372 150.494C237.876 149.252 237.236 148.326 237.128 147.321C236.975 145.907 237.704 145.377 239.944 141.023C240.865 139.233 241.155 138.549 241.313 137.565Z" fill="#232526"/>
<path d="M267.499 254.914C267.499 254.914 271.105 259.697 270.847 262.844L270.92 264.061L278.446 257.213L277.395 256.787C275.729 255.648 273.97 254.971 273.002 253.2L267.499 254.914Z" fill="white"/>
<path d="M270.92 264.354C270.883 264.354 270.845 264.347 270.81 264.332C270.705 264.29 270.634 264.191 270.628 264.078L270.554 262.861C270.553 262.847 270.553 262.833 270.554 262.82C270.801 259.819 267.301 255.137 267.265 255.09C267.208 255.014 267.191 254.915 267.22 254.824C267.249 254.733 267.321 254.662 267.412 254.634L272.915 252.92C273.047 252.878 273.193 252.937 273.259 253.06C273.95 254.322 275.094 255.016 276.305 255.751C276.707 255.995 277.123 256.247 277.534 256.526L278.556 256.941C278.649 256.978 278.717 257.062 278.734 257.161C278.752 257.26 278.717 257.361 278.643 257.429L271.117 264.277C271.062 264.327 270.992 264.354 270.92 264.354ZM271.141 262.846L271.176 263.432L277.904 257.309L277.284 257.058C277.265 257.05 277.247 257.04 277.229 257.029C276.823 256.751 276.405 256.497 276.001 256.252C274.785 255.515 273.634 254.817 272.865 253.55L267.977 255.072C268.796 256.229 271.353 260.08 271.141 262.846Z" fill="#232526"/>
<path d="M269.554 261.274L269.671 262.757C269.901 265.693 269.415 268.642 268.253 271.349L267.359 273.429C267.274 273.627 267.293 273.854 267.409 274.036L267.468 274.128C268.123 275.155 271.014 276.041 274.67 273.562C276.932 272.028 281.52 267.77 284.656 260.331C284.854 259.861 284.725 259.317 284.335 258.99C282.91 257.795 279.395 255.067 276.653 254.761C276.348 254.727 276.078 254.957 276.075 255.264L276.048 258.216C276.036 259.54 274.95 260.603 273.625 260.585L270.242 260.54C269.841 260.535 269.523 260.875 269.554 261.274Z" fill="white"/>
<path d="M270.121 275.455C269.695 275.455 269.34 275.409 269.067 275.353C268.214 275.177 267.541 274.788 267.221 274.286L267.162 274.193C266.993 273.93 266.967 273.601 267.09 273.313L267.983 271.233C269.122 268.581 269.605 265.657 269.378 262.78L269.262 261.297C269.241 261.024 269.335 260.754 269.522 260.555C269.709 260.355 269.975 260.248 270.246 260.247L273.629 260.292C274.178 260.297 274.722 260.087 275.124 259.694C275.526 259.301 275.75 258.775 275.755 258.213L275.782 255.261C275.784 255.035 275.882 254.82 276.05 254.67C276.223 254.517 276.455 254.445 276.686 254.47C279.514 254.786 283.109 257.579 284.523 258.765C285.014 259.177 285.177 259.852 284.927 260.445C281.264 269.131 275.877 273.098 274.835 273.804C272.879 275.13 271.249 275.455 270.121 275.455ZM269.847 261.251L269.963 262.734C270.197 265.706 269.698 268.725 268.522 271.465L267.629 273.544C267.582 273.653 267.592 273.778 267.656 273.878L267.715 273.97C267.895 274.251 268.375 274.611 269.185 274.778C270.093 274.966 271.991 275.024 274.506 273.319C275.524 272.628 280.788 268.751 284.386 260.217C284.536 259.863 284.439 259.46 284.146 259.214C282.773 258.062 279.29 255.351 276.621 255.053C276.556 255.045 276.488 255.065 276.44 255.109C276.394 255.149 276.369 255.205 276.368 255.266L276.342 258.218C276.335 258.938 276.049 259.611 275.534 260.114C275.02 260.617 274.35 260.882 273.621 260.879L270.238 260.834C270.125 260.835 270.026 260.876 269.95 260.956C269.875 261.036 269.838 261.141 269.847 261.251Z" fill="#232526"/>
<path d="M267.738 272.967C267.625 272.967 267.517 272.901 267.469 272.79C267.404 272.642 267.473 272.469 267.621 272.404L268.088 272.202C270.471 271.168 272.353 269.175 273.249 266.735L273.561 265.886C273.679 265.564 273.966 265.351 274.309 265.33C274.647 265.307 274.962 265.488 275.117 265.794L275.52 266.588C275.573 266.691 275.668 266.76 275.782 266.778C275.898 266.795 276.009 266.758 276.09 266.676C278.286 264.443 279.963 261.826 281.075 258.898L281.715 257.215C281.772 257.063 281.941 256.988 282.093 257.045C282.244 257.102 282.32 257.272 282.263 257.423L281.623 259.107C280.482 262.111 278.761 264.796 276.508 267.087C276.293 267.306 275.997 267.405 275.692 267.357C275.39 267.31 275.136 267.127 274.998 266.853L274.594 266.06C274.522 265.917 274.386 265.913 274.344 265.916C274.303 265.918 274.167 265.938 274.111 266.088L273.799 266.938C272.848 269.527 270.851 271.642 268.322 272.74L267.855 272.942C267.816 272.959 267.777 272.967 267.738 272.967Z" fill="#232526"/>
<path d="M240.078 268.347C240.078 268.347 240.491 273.056 238.54 275.29L237.931 276.249L247.086 275.764L246.644 274.762C245.857 272.979 245.253 270.11 245.406 268.236L240.078 268.347Z" fill="white"/>
<path d="M237.931 276.543C237.828 276.543 237.731 276.488 237.678 276.398C237.623 276.303 237.625 276.185 237.684 276.093L238.292 275.133C238.3 275.12 238.309 275.108 238.319 275.097C240.165 272.984 239.79 268.418 239.786 268.372C239.779 268.291 239.806 268.211 239.86 268.151C239.914 268.09 239.991 268.055 240.072 268.053L245.4 267.943C245.482 267.945 245.563 267.975 245.62 268.035C245.676 268.096 245.705 268.178 245.698 268.26C245.557 269.978 246.091 272.782 246.912 274.643L247.355 275.645C247.394 275.734 247.387 275.835 247.336 275.917C247.286 275.999 247.198 276.051 247.102 276.056L237.947 276.542C237.942 276.543 237.937 276.543 237.931 276.543ZM238.776 275.465L238.483 275.927L246.646 275.493L246.376 274.88C245.665 273.27 245.02 270.53 245.095 268.536L240.391 268.633C240.447 269.743 240.497 273.473 238.776 275.465Z" fill="#232526"/>
<path d="M238.821 272.245L237.902 273.192C236.081 275.066 233.832 276.469 231.349 277.281L229.44 277.904C229.259 277.964 229.118 278.109 229.065 278.293L229.038 278.386C228.738 279.424 229.842 281.868 233.635 282.851C235.916 283.442 241.202 283.989 247.738 281.933C248.512 281.689 249.017 280.948 248.981 280.137C248.896 278.262 248.566 274.922 247.305 273.139C247.15 272.92 246.849 272.89 246.646 273.066C246.198 273.453 245.395 274.146 244.662 274.779C243.773 275.547 242.429 275.445 241.665 274.553L239.713 272.273C239.482 272.004 239.069 271.99 238.821 272.245Z" fill="white"/>
<path d="M238.61 283.682C235.908 283.682 234.107 283.277 233.561 283.135C230.755 282.408 229.58 280.975 229.13 280.185C228.744 279.506 228.607 278.821 228.756 278.305L228.784 278.211C228.863 277.935 229.075 277.715 229.349 277.626L231.258 277.002C233.686 276.208 235.911 274.82 237.692 272.987L238.611 272.041C238.786 271.86 239.03 271.759 239.283 271.77C239.534 271.777 239.772 271.891 239.936 272.083L241.888 274.363C242.206 274.735 242.651 274.96 243.139 274.997C243.627 275.033 244.1 274.877 244.471 274.557L246.454 272.844C246.616 272.705 246.826 272.639 247.035 272.664C247.241 272.69 247.422 272.798 247.544 272.97C248.852 274.819 249.189 278.246 249.274 280.124C249.316 281.072 248.721 281.931 247.826 282.212C244.198 283.354 241.04 283.682 238.61 283.682ZM239.031 272.45L238.112 273.396C236.266 275.297 233.958 276.736 231.44 277.559L229.531 278.183C229.442 278.212 229.373 278.284 229.347 278.374L229.319 278.468C229.239 278.745 229.281 279.266 229.64 279.895C230.044 280.604 231.11 281.895 233.708 282.568C234.719 282.83 240.141 284.016 247.65 281.653C248.292 281.451 248.719 280.833 248.688 280.151C248.606 278.337 248.287 275.036 247.065 273.309C247.033 273.264 246.992 273.25 246.964 273.246C246.919 273.241 246.874 273.256 246.837 273.288L244.854 275.001C244.364 275.424 243.738 275.629 243.095 275.581C242.45 275.533 241.863 275.235 241.442 274.744L239.49 272.464C239.432 272.397 239.352 272.358 239.264 272.356C239.175 272.354 239.093 272.386 239.031 272.45Z" fill="#232526"/>
<path d="M240.179 280.348C239.794 280.348 239.408 280.337 239.021 280.315C238.739 280.3 238.49 280.154 238.338 279.916C238.186 279.677 238.159 279.39 238.263 279.127L238.556 278.394C238.6 278.283 238.54 278.206 238.512 278.178C238.484 278.15 238.408 278.089 238.296 278.132L237.548 278.422C235.258 279.308 232.671 279.217 230.448 278.171L230.04 277.979C229.893 277.91 229.831 277.735 229.899 277.589C229.968 277.442 230.143 277.38 230.289 277.449L230.698 277.641C232.776 278.619 235.195 278.704 237.336 277.875L238.085 277.585C238.382 277.47 238.705 277.539 238.929 277.765C239.152 277.992 239.218 278.316 239.1 278.611L238.808 279.344C238.774 279.43 238.783 279.523 238.832 279.6C238.882 279.678 238.962 279.725 239.054 279.73C241.822 279.884 244.544 279.469 247.141 278.496L248.638 277.935C248.789 277.879 248.958 277.956 249.015 278.107C249.072 278.259 248.995 278.428 248.843 278.484L247.347 279.045C245.036 279.911 242.63 280.347 240.179 280.348Z" fill="#232526"/>
<path d="M256.522 191.293C256.522 191.293 260.217 203.518 253.917 212.195C245.429 223.886 250.279 250.86 246.031 268.998C245.949 269.345 245.635 269.587 245.278 269.583L240.132 269.527C239.79 269.524 239.492 269.293 239.403 268.962C238.192 264.44 230.066 233.827 230.327 227.726C230.387 226.333 230.564 224.71 230.809 223.004C231.996 214.736 234.494 206.71 238.12 199.185L243.779 187.444L256.522 191.293Z" fill="#232526"/>
<path d="M260.508 189.911C260.508 189.911 265.155 198.548 263.099 207.636C261.042 216.723 264.134 224.261 266.315 227.81C268.47 231.316 272.417 240.159 273.805 253.304C273.838 253.624 273.723 253.942 273.491 254.164C272.765 254.857 270.969 256.266 268.255 256.383C267.94 256.396 267.635 256.266 267.426 256.029C265.287 253.599 252.976 239.331 248.602 227.982C243.803 215.535 242.904 194.85 242.904 194.85C242.904 194.85 254.848 196.112 260.508 189.911Z" fill="#232526"/>
<path d="M249.196 231.66C249.189 231.66 249.182 231.659 249.175 231.659C249.014 231.647 248.892 231.507 248.904 231.345C249.436 223.993 250.382 216.564 253.68 212.023C256.026 208.791 257.245 204.697 257.304 199.853C257.306 199.692 257.436 199.563 257.597 199.563C257.598 199.563 257.599 199.563 257.6 199.563C257.762 199.565 257.892 199.698 257.89 199.86C257.83 204.827 256.573 209.035 254.155 212.367C250.943 216.79 250.014 224.122 249.488 231.388C249.477 231.542 249.349 231.66 249.196 231.66Z" fill="white"/>
<path d="M210.736 146.79C210.736 146.79 209.598 145.29 209.676 143.929C209.749 142.669 209.846 139.744 208.365 138.141C206.445 136.062 203.348 135.398 203.035 136.035C202.753 136.607 206.575 139.597 206.367 141.941C206.323 142.437 205.884 142.813 205.386 142.798C204.785 142.78 203.848 142.574 202.685 141.734C202.39 141.521 201.965 141.698 201.925 142.06C201.869 142.558 201.963 143.305 202.572 144.283C203.349 145.53 204.625 146.44 205.499 146.75C206.451 147.089 207.64 148.98 207.64 148.98L210.736 146.79Z" fill="white"/>
<path d="M207.64 149.274C207.62 149.274 207.601 149.272 207.582 149.268C207.503 149.252 207.434 149.205 207.391 149.137C207.075 148.634 206.102 147.276 205.4 147.027C204.494 146.705 203.145 145.757 202.323 144.438C201.652 143.36 201.577 142.532 201.633 142.028C201.664 141.757 201.832 141.528 202.084 141.417C202.341 141.303 202.63 141.332 202.857 141.497C203.97 142.301 204.852 142.489 205.395 142.505C205.74 142.512 206.045 142.25 206.075 141.915C206.195 140.564 204.741 138.844 203.779 137.706C202.982 136.764 202.582 136.291 202.772 135.906C202.84 135.766 203.005 135.587 203.401 135.529C204.464 135.375 206.92 136.145 208.581 137.942C210.213 139.71 210.03 142.898 209.969 143.946C209.898 145.181 210.959 146.599 210.97 146.613C211.018 146.677 211.038 146.757 211.026 146.835C211.014 146.914 210.971 146.984 210.906 147.03L207.809 149.22C207.759 149.255 207.7 149.274 207.64 149.274ZM202.403 141.936C202.365 141.936 202.334 141.947 202.321 141.953C202.286 141.968 202.226 142.007 202.216 142.093C202.17 142.505 202.238 143.192 202.821 144.128C203.568 145.328 204.784 146.185 205.597 146.474C206.426 146.769 207.338 148.006 207.718 148.566L210.329 146.719C209.998 146.217 209.318 145.039 209.384 143.912C209.536 141.266 209.121 139.392 208.15 138.34C206.737 136.811 204.658 136.097 203.698 136.096C203.697 136.096 203.697 136.096 203.696 136.096C203.495 136.096 203.381 136.127 203.328 136.15C203.416 136.369 203.863 136.897 204.227 137.328C205.313 138.613 206.801 140.372 206.659 141.967C206.601 142.617 206.034 143.11 205.378 143.091C204.752 143.072 203.747 142.863 202.514 141.972C202.475 141.944 202.436 141.936 202.403 141.936Z" fill="#232526"/>
<path d="M262.558 177.787C262.437 168.792 260.47 162.845 257.26 158.979C254.811 156.029 251.297 154.159 247.505 153.598C245.51 153.303 242.748 152.969 240.293 152.932C239.974 152.681 239.617 152.472 239.214 152.316C238.721 152.579 238.234 152.816 237.752 153.031C236.794 153.137 235.985 153.332 235.43 153.65C235.168 153.8 234.982 153.936 234.843 154.067C229.056 155.625 224.064 153.964 219.783 151.934C216.864 150.55 214.936 149.398 212.176 146.542C211.736 146.087 211.032 146.012 210.505 146.362L207.239 148.532C206.668 148.911 206.485 149.664 206.817 150.264C209.065 154.323 218.095 168.395 234.685 167.257C235.231 168.368 235.93 169.405 236.755 170.34C238.863 172.728 238.171 178.717 234.796 191.406C234.796 191.406 249.464 198.975 264.202 194.317C264.202 194.317 262.685 187.175 262.558 177.787Z" fill="white"/>
<path d="M254.064 196.112C243.435 196.112 234.774 191.725 234.661 191.667C234.539 191.604 234.477 191.464 234.512 191.331C237.952 178.397 238.501 172.761 236.535 170.534C235.731 169.623 235.051 168.624 234.51 167.562C233.926 167.598 233.35 167.615 232.785 167.616C217.332 167.616 208.854 154.548 206.56 150.406C206.157 149.678 206.384 148.748 207.077 148.287L210.343 146.118C210.989 145.688 211.849 145.781 212.387 146.339C215.063 149.108 216.945 150.264 219.909 151.669C223.96 153.59 228.884 155.344 234.699 153.802C234.854 153.665 235.047 153.532 235.284 153.396C235.831 153.082 236.635 152.863 237.674 152.744C238.144 152.534 238.616 152.303 239.076 152.057C239.151 152.017 239.24 152.012 239.319 152.042C239.704 152.191 240.065 152.392 240.395 152.641C242.877 152.685 245.649 153.027 247.548 153.308C251.507 153.893 255.036 155.841 257.486 158.792C260.981 163.002 262.736 169.214 262.852 177.783C262.976 187.035 264.473 194.185 264.488 194.256C264.52 194.404 264.434 194.551 264.29 194.597C260.823 195.693 257.349 196.112 254.064 196.112ZM235.141 191.249C236.977 192.132 250.444 198.229 263.862 194.116C263.592 192.739 262.377 186.103 262.265 177.791C262.152 169.361 260.441 163.269 257.034 159.166C254.677 156.327 251.277 154.452 247.462 153.888C245.555 153.606 242.763 153.262 240.288 153.225C240.224 153.224 240.161 153.202 240.111 153.162C239.841 152.949 239.545 152.773 239.23 152.639C238.783 152.874 238.326 153.096 237.871 153.298C237.843 153.311 237.814 153.318 237.784 153.322C236.803 153.43 236.06 153.626 235.575 153.904C235.349 154.034 235.175 154.157 235.044 154.28C235.009 154.313 234.966 154.337 234.919 154.35C228.892 155.973 223.822 154.173 219.658 152.199C216.628 150.763 214.704 149.58 211.965 146.746C211.623 146.392 211.077 146.334 210.667 146.606L207.402 148.776C206.954 149.073 206.813 149.652 207.074 150.122C209.418 154.356 218.333 168.084 234.665 166.964C234.782 166.958 234.896 167.021 234.948 167.128C235.479 168.208 236.161 169.224 236.975 170.146C239.106 172.561 238.628 178.094 235.141 191.249Z" fill="#232526"/>
<path d="M250.396 141.617C250.166 141.672 249.943 141.514 249.922 141.279C249.82 140.165 249.074 138.268 247.836 137.553C246.249 136.636 244.126 136.558 243.297 137.722C242.573 138.738 242.726 139.532 241.029 140.614C240.866 140.718 240.9 140.974 241.013 141.131L241.595 142.027C241.723 142.203 241.735 142.664 241.692 142.876C241.558 143.532 241.269 144.883 241.39 145.153C241.743 145.937 244.067 146.557 244.067 146.557L243.832 152.594C243.759 153.409 243.398 153.553 243.398 153.553L242.023 154.801C242.023 154.801 241.972 156.28 247.327 157.132C251.348 157.771 251.097 157.062 251.097 157.062C251.097 157.062 247.684 153.482 249.135 145.691C249.167 145.52 249.29 145.379 249.454 145.32C250.084 145.097 251.811 144.398 251.921 143.184C252.037 141.895 251.182 141.43 250.396 141.617Z" fill="white"/>
<path d="M249.969 157.692C249.378 157.692 248.525 157.619 247.281 157.421C241.941 156.572 241.72 155.081 241.731 154.791C241.733 154.712 241.768 154.637 241.826 154.584L243.201 153.336C243.227 153.313 243.256 153.294 243.289 153.281C243.289 153.281 243.289 153.281 243.288 153.281C243.284 153.281 243.489 153.143 243.54 152.568L243.765 146.777C243.088 146.578 241.464 146.032 241.123 145.273C240.994 144.988 241.107 144.27 241.376 142.958L241.405 142.818C241.445 142.622 241.411 142.277 241.358 142.199L240.767 141.29C240.654 141.134 240.6 140.911 240.635 140.722C240.664 140.572 240.748 140.445 240.871 140.367C241.971 139.665 242.231 139.122 242.531 138.492C242.672 138.195 242.819 137.887 243.058 137.551C244.023 136.196 246.365 136.365 247.983 137.298C249.344 138.085 250.107 140.084 250.214 141.252C250.217 141.287 250.235 141.307 250.25 141.317C250.263 141.326 250.29 141.341 250.328 141.332C250.328 141.332 250.328 141.332 250.328 141.332C250.837 141.21 251.335 141.319 251.695 141.63C251.974 141.872 252.291 142.343 252.213 143.21C252.096 144.507 250.496 145.262 249.552 145.597C249.486 145.62 249.437 145.677 249.424 145.744C248.016 153.301 251.276 156.825 251.309 156.86C251.338 156.89 251.36 156.925 251.374 156.964C251.409 157.065 251.406 157.223 251.289 157.364C251.156 157.523 250.866 157.692 249.969 157.692ZM242.35 154.901C242.498 155.201 243.285 156.192 247.373 156.842C249.581 157.194 250.404 157.116 250.695 157.042C249.975 156.138 247.568 152.502 248.847 145.638C248.898 145.365 249.093 145.138 249.356 145.044C250.009 144.813 251.538 144.165 251.629 143.158C251.673 142.667 251.563 142.292 251.31 142.074C251.096 141.888 250.786 141.825 250.464 141.902C250.269 141.948 250.068 141.909 249.908 141.794C249.749 141.68 249.648 141.502 249.63 141.306C249.534 140.253 248.806 138.451 247.689 137.807C246.289 136.998 244.285 136.839 243.535 137.892C243.326 138.186 243.197 138.457 243.06 138.745C242.751 139.392 242.432 140.061 241.21 140.846C241.211 140.873 241.223 140.92 241.25 140.958L241.841 141.868C242.035 142.134 242.028 142.696 241.979 142.935L241.95 143.076C241.853 143.548 241.596 144.804 241.662 145.044C241.861 145.486 243.234 146.031 244.143 146.273C244.275 146.309 244.365 146.431 244.36 146.568L244.125 152.606C244.052 153.424 243.719 153.707 243.567 153.795L242.35 154.901Z" fill="#232526"/>
<path d="M219.546 157.027L164.782 156.863C163.514 156.86 162.423 155.977 162.508 155.023L165.515 121.228C165.581 120.492 166.338 119.96 167.317 119.963L222.08 120.126C223.348 120.13 224.439 121.013 224.354 121.966L221.348 155.762C221.282 156.498 220.524 157.03 219.546 157.027Z" fill="white"/>
<path d="M219.553 157.32C219.55 157.32 219.548 157.32 219.545 157.32L164.781 157.157C163.971 157.154 163.19 156.828 162.694 156.284C162.346 155.902 162.176 155.445 162.216 154.997L165.223 121.202C165.302 120.313 166.179 119.669 167.309 119.669C167.312 119.669 167.315 119.669 167.318 119.669L222.081 119.833C222.892 119.835 223.672 120.162 224.168 120.706C224.517 121.087 224.686 121.544 224.647 121.992L221.639 155.788C221.561 156.676 220.684 157.32 219.553 157.32ZM219.546 156.734C219.549 156.734 219.551 156.734 219.554 156.734C220.373 156.734 221.004 156.315 221.055 155.736L224.062 121.94C224.094 121.578 223.902 121.284 223.735 121.101C223.353 120.682 222.719 120.421 222.079 120.419L167.316 120.256C166.492 120.24 165.858 120.673 165.807 121.254L162.8 155.049C162.768 155.411 162.96 155.705 163.127 155.889C163.509 156.307 164.144 156.568 164.783 156.57L219.546 156.734Z" fill="#232526"/>
<path d="M217.769 134.391H169.656C169.573 134.391 169.495 134.357 169.44 134.296C169.384 134.236 169.357 134.155 169.364 134.073L169.691 130.181C169.704 130.029 169.831 129.913 169.983 129.913H218.097C218.179 129.913 218.257 129.947 218.313 130.007C218.368 130.068 218.396 130.149 218.389 130.23L218.061 134.123C218.048 134.275 217.921 134.391 217.769 134.391ZM169.974 133.805H217.499L217.778 130.499H170.253L169.974 133.805Z" fill="#232526"/>
<path d="M210.308 128.934H178.163C178.081 128.934 178.003 128.899 177.947 128.839C177.891 128.779 177.864 128.698 177.871 128.616L178.199 124.724C178.211 124.572 178.338 124.455 178.491 124.455H210.636C210.718 124.455 210.797 124.49 210.852 124.55C210.908 124.61 210.935 124.691 210.928 124.773L210.601 128.665C210.588 128.817 210.461 128.934 210.308 128.934ZM178.482 128.347H210.039L210.317 125.041H178.76L178.482 128.347Z" fill="#232526"/>
<path d="M217.277 140.23H169.164C169.081 140.23 169.003 140.195 168.948 140.135C168.892 140.075 168.865 139.994 168.872 139.912L169.2 136.02C169.212 135.868 169.34 135.751 169.492 135.751H217.605C217.687 135.751 217.766 135.786 217.821 135.846C217.877 135.906 217.904 135.987 217.897 136.069L217.57 139.961C217.557 140.113 217.429 140.23 217.277 140.23ZM169.483 139.643H217.008L217.286 136.337H169.761L169.483 139.643Z" fill="#232526"/>
<path d="M216.785 146.068H168.672C168.59 146.068 168.511 146.033 168.456 145.973C168.4 145.913 168.373 145.832 168.38 145.75L168.707 141.858C168.72 141.706 168.847 141.589 168.999 141.589H217.113C217.195 141.589 217.273 141.624 217.329 141.684C217.384 141.744 217.412 141.825 217.405 141.907L217.077 145.799C217.065 145.951 216.938 146.068 216.785 146.068ZM168.991 145.481H216.516L216.794 142.176H169.269L168.991 145.481Z" fill="#232526"/>
<path d="M216.293 151.906H168.18C168.098 151.906 168.02 151.872 167.964 151.811C167.909 151.751 167.881 151.67 167.888 151.588L168.216 147.696C168.228 147.544 168.356 147.428 168.508 147.428H216.622C216.704 147.428 216.782 147.462 216.838 147.522C216.893 147.583 216.921 147.664 216.914 147.745L216.586 151.638C216.573 151.789 216.446 151.906 216.293 151.906ZM168.499 151.32H216.024L216.303 148.014H168.777L168.499 151.32Z" fill="#232526"/>
<path d="M209.432 155.842L208.689 153.371C208.466 152.271 210.705 149.894 209.241 149.231C208.176 148.749 208.286 150.426 206.774 150.701C205.986 150.844 205.117 149.315 204.981 148.6C204.51 146.121 203.44 145.209 202.493 145.544C201.546 145.879 200.305 149.729 201.995 152.439C203.686 155.15 207.089 157.427 207.089 157.427L209.432 155.842Z" fill="white"/>
<path d="M207.089 157.72C207.032 157.72 206.975 157.704 206.926 157.671C206.785 157.576 203.451 155.327 201.746 152.595C200.569 150.707 200.753 148.318 201.268 146.846C201.409 146.441 201.802 145.478 202.395 145.268C202.802 145.124 203.223 145.166 203.613 145.39C204.389 145.835 204.961 146.926 205.269 148.545C205.405 149.261 206.22 150.505 206.722 150.412C207.348 150.299 207.64 149.909 207.921 149.533C208.225 149.126 208.603 148.621 209.362 148.964C209.66 149.099 209.862 149.305 209.962 149.575C210.194 150.198 209.819 151.01 209.455 151.795C209.186 152.376 208.908 152.977 208.977 153.313L209.713 155.758C209.75 155.881 209.702 156.013 209.596 156.085L207.253 157.67C207.204 157.703 207.146 157.72 207.089 157.72ZM202.873 145.77C202.779 145.77 202.685 145.787 202.591 145.82C202.402 145.887 202.081 146.297 201.821 147.039C201.349 148.389 201.177 150.573 202.244 152.284C203.675 154.579 206.402 156.586 207.091 157.072L209.089 155.72L208.408 153.456C208.295 152.904 208.6 152.246 208.923 151.549C209.221 150.904 209.559 150.174 209.413 149.779C209.384 149.702 209.323 149.59 209.12 149.498C208.816 149.361 208.725 149.437 208.391 149.884C208.09 150.285 207.68 150.834 206.827 150.989C205.813 151.174 204.846 149.458 204.693 148.655C204.426 147.25 203.926 146.245 203.321 145.898C203.173 145.813 203.023 145.77 202.873 145.77Z" fill="#232526"/>
<path d="M209.237 154.382L205.853 156.421C205.388 156.701 205.155 157.25 205.282 157.777C206.269 161.867 214.968 175.126 243.201 174.941C248.387 174.907 250.465 168.088 248.47 163.301C247.373 160.669 244.59 159.176 241.783 159.68C235.172 160.867 219.24 164.761 210.849 154.664C210.452 154.186 209.77 154.06 209.237 154.382Z" fill="white"/>
<path d="M242.637 175.236C230.856 175.236 220.916 172.809 213.864 168.207C207.899 164.315 205.484 159.863 204.997 157.846C204.84 157.192 205.122 156.519 205.701 156.17L209.085 154.13C209.742 153.735 210.579 153.88 211.075 154.477C215.887 160.267 223.883 162.235 235.522 160.494C235.686 160.469 235.832 160.58 235.856 160.74C235.88 160.901 235.769 161.05 235.609 161.074C223.751 162.848 215.578 160.813 210.624 154.852C210.315 154.479 209.794 154.388 209.388 154.633L206.004 156.672C205.645 156.888 205.47 157.305 205.567 157.708C206.634 162.129 215.734 174.649 242.627 174.649C242.817 174.649 243.007 174.649 243.199 174.648C243.2 174.648 243.2 174.648 243.201 174.648C243.362 174.648 243.493 174.778 243.494 174.939C243.495 175.101 243.365 175.233 243.203 175.234C243.014 175.235 242.825 175.236 242.637 175.236Z" fill="#232526"/>
<path d="M162.098 247.559H185.203C185.203 247.559 188.371 266.826 174.581 268.364C160.791 269.902 162.098 247.559 162.098 247.559Z" fill="white"/>
<path d="M173.259 268.733C170.766 268.733 168.635 267.907 166.908 266.269C161.102 260.761 161.774 248.079 161.805 247.542C161.814 247.387 161.943 247.266 162.098 247.266H185.203C185.347 247.266 185.469 247.37 185.492 247.511C185.564 247.945 187.184 258.195 182.527 264.342C180.643 266.829 177.981 268.28 174.614 268.655C174.151 268.707 173.7 268.733 173.259 268.733ZM162.379 247.852C162.314 249.755 162.164 260.96 167.313 265.844C169.213 267.647 171.645 268.396 174.549 268.073C177.75 267.715 180.277 266.341 182.06 263.988C186.177 258.553 185.167 249.459 184.95 247.852L162.379 247.852Z" fill="#232526"/>
<path d="M169.026 242.847C167.375 242.895 163.856 242.95 160.544 240.693C159.318 239.858 155.953 237.565 156.268 234.551C156.538 231.966 159.435 229.584 163.366 229.157C158.701 229.709 154.948 226.213 154.943 222.602C154.938 219.836 157.133 217.088 160.376 216.179C155.349 212.381 152.709 206.258 153.543 200.182C154.355 194.273 158.448 188.455 164.625 186.659C165.402 186.433 172.114 184.594 176.948 188.713C181.007 192.171 181.051 197.534 181.082 201.191C181.136 207.696 178.526 212.64 176.948 215.12C177.278 215.097 180.614 214.001 183.732 216.77C186.91 219.593 187.066 226.081 185.517 228.649C183.897 231.337 179.992 230.768 179.296 230.964C182.218 233.544 182.115 235.694 182.083 236.099C181.752 240.296 174.143 242.699 169.026 242.847Z" fill="white"/>
<path d="M168.137 243.157C166.318 243.157 163.284 242.915 160.379 240.936C159.084 240.053 155.643 237.709 155.976 234.52C156.211 232.273 158.19 230.317 160.966 229.382C159.498 229.125 158.125 228.476 157.009 227.486C155.512 226.158 154.652 224.378 154.649 222.603C154.645 219.801 156.762 217.131 159.757 216.068C154.916 212.173 152.431 206.122 153.253 200.142C154.15 193.612 158.687 188.081 164.543 186.378C165.802 186.011 172.329 184.392 177.138 188.49C181.299 192.035 181.344 197.543 181.375 201.189C181.423 206.956 179.397 211.644 177.546 214.711C179.968 214.324 182.114 214.941 183.927 216.551C187.186 219.446 187.376 226.134 185.768 228.8C184.397 231.074 181.488 231.158 180.09 231.198C180.054 231.2 180.018 231.2 179.982 231.202C182.3 233.468 182.434 235.376 182.375 236.122C182.034 240.458 174.408 242.984 169.035 243.14C168.786 243.148 168.483 243.157 168.137 243.157ZM163.309 229.458C159.716 229.879 156.821 232.071 156.559 234.581C156.263 237.422 159.493 239.622 160.709 240.451C164.009 242.7 167.519 242.597 169.018 242.554C174.041 242.408 181.481 240.017 181.791 236.076C181.834 235.524 181.768 233.539 179.102 231.184C179.021 231.113 178.986 231.004 179.01 230.899C179.034 230.795 179.113 230.711 179.216 230.682C179.394 230.632 179.679 230.624 180.074 230.612C181.467 230.572 184.06 230.497 185.266 228.498C186.777 225.993 186.599 219.709 183.537 216.99C181.757 215.408 179.625 214.863 177.205 215.371C177.09 215.395 177.01 215.41 176.969 215.413C176.856 215.419 176.753 215.365 176.696 215.27C176.64 215.175 176.642 215.056 176.701 214.963C178.593 211.989 180.839 207.185 180.789 201.194C180.759 197.655 180.715 192.307 176.758 188.936C172.178 185.034 165.916 186.589 164.707 186.941C159.07 188.58 154.7 193.918 153.834 200.222C153.016 206.171 155.591 212.196 160.553 215.946C160.642 216.013 160.685 216.124 160.664 216.234C160.643 216.343 160.563 216.432 160.455 216.462C157.427 217.31 155.231 219.893 155.236 222.602C155.238 224.21 156.026 225.831 157.398 227.047C158.969 228.442 161.094 229.105 163.243 228.876C163.273 228.873 163.304 228.869 163.334 228.866C163.495 228.849 163.639 228.964 163.657 229.124C163.675 229.284 163.56 229.429 163.4 229.448C163.37 229.452 163.34 229.455 163.309 229.458Z" fill="#232526"/>
<path d="M170.697 245.704C170.684 245.704 170.67 245.703 170.657 245.701C170.496 245.679 170.384 245.531 170.406 245.371C173.353 223.604 166.467 199.044 166.397 198.799C166.353 198.643 166.443 198.481 166.599 198.436C166.753 198.393 166.917 198.482 166.961 198.638C167.031 198.885 173.951 223.559 170.987 245.45C170.967 245.597 170.841 245.704 170.697 245.704Z" fill="#232526"/>
<path d="M174.023 243.851C173.498 242.568 171.226 236.639 174.173 231.643C174.779 230.617 176.806 227.18 179.75 227.423C181.944 227.604 183.327 229.721 183.633 230.213C182.748 226.991 184.336 223.728 186.984 222.6C190.114 221.268 194.272 223.112 195.424 226.971C196.197 226.752 198.287 226.276 200.397 227.273C203.175 228.584 204.847 231.904 204.467 235.562C203.31 239.485 199.726 241.886 196.328 241.44C192.637 240.954 190.875 237.333 190.752 237.069C191.328 237.974 192.174 239.655 191.656 241.289C190.787 244.034 186.467 245.397 183.367 244.605C180.489 243.87 179.656 241.532 177.338 241.741C175.812 241.879 174.679 243.028 174.023 243.851Z" fill="white"/>
<path d="M185.201 245.115C184.537 245.115 183.891 245.041 183.294 244.889C181.906 244.534 180.978 243.826 180.16 243.201C179.231 242.491 178.495 241.93 177.365 242.033C176.281 242.131 175.233 242.805 174.252 244.034C174.187 244.115 174.085 244.156 173.981 244.141C173.878 244.127 173.791 244.058 173.751 243.962C172.867 241.799 171.113 236.254 173.921 231.494C175.731 228.428 177.7 226.96 179.774 227.131C181.26 227.254 182.393 228.19 183.125 229.033C182.879 226.185 184.373 223.394 186.869 222.331C188.432 221.665 190.286 221.734 191.956 222.518C193.678 223.327 195 224.811 195.618 226.617C196.729 226.343 198.631 226.115 200.522 227.008C203.446 228.388 205.148 231.838 204.758 235.592C204.756 235.61 204.753 235.628 204.748 235.645C203.584 239.595 199.947 242.21 196.29 241.731C194.4 241.482 192.994 240.439 192.038 239.416C192.152 240.05 192.145 240.717 191.935 241.378C191.183 243.754 188.043 245.115 185.201 245.115ZM177.626 241.435C178.814 241.435 179.642 242.068 180.516 242.735C181.328 243.355 182.167 243.996 183.439 244.321C186.351 245.064 190.541 243.839 191.377 241.201C191.728 240.09 191.403 238.932 190.938 237.993C190.656 237.55 190.507 237.237 190.486 237.193C190.421 237.053 190.475 236.886 190.611 236.812C190.746 236.737 190.916 236.781 190.999 236.912C191.155 237.156 191.312 237.427 191.457 237.719C192.176 238.84 193.786 240.81 196.366 241.149C199.735 241.591 203.086 239.167 204.178 235.505C204.532 232.008 202.964 228.809 200.272 227.538C198.388 226.648 196.476 226.978 195.504 227.253C195.349 227.297 195.189 227.208 195.143 227.055C194.616 225.287 193.363 223.827 191.706 223.049C190.187 222.335 188.508 222.27 187.099 222.87C184.499 223.977 183.101 227.169 183.916 230.136C183.954 230.276 183.884 230.424 183.75 230.482C183.617 230.54 183.461 230.492 183.384 230.368C182.921 229.623 181.639 227.873 179.726 227.716C177.894 227.565 176.111 228.936 174.426 231.792C171.928 236.025 173.238 240.956 174.116 243.286C175.112 242.168 176.185 241.551 177.312 241.449C177.419 241.44 177.524 241.435 177.626 241.435Z" fill="#232526"/>
<path d="M173.792 245.454C173.775 245.454 173.758 245.453 173.74 245.45C173.581 245.421 173.474 245.269 173.503 245.11C173.568 244.739 175.201 235.995 183.37 232.888C189.236 230.657 194.503 232.887 195.977 233.624C196.122 233.696 196.181 233.872 196.108 234.017C196.036 234.162 195.86 234.22 195.715 234.148C194.294 233.438 189.222 231.29 183.579 233.436C175.717 236.426 174.143 244.855 174.08 245.212C174.055 245.354 173.931 245.454 173.792 245.454Z" fill="#232526"/>
</svg>
