<svg width="50" height="48" viewBox="0 0 50 48" fill="none" xmlns="http://www.w3.org/2000/svg">
<path d="M46.529 11.957H43.4904C42.8829 11.957 42.3629 12.4806 42.3629 13.0915V14.2261H39.0635V13.0915C39.0635 12.4806 38.5426 11.957 37.9359 11.957H33.5948V9.68798C33.5948 8.11622 32.3797 6.72077 30.9037 6.54536V2.70541C30.9037 1.2218 29.6887 2.13142e-05 28.2127 2.13142e-05C27.6052 2.13142e-05 26.9977 0.174542 26.5635 0.523627C25.6084 -0.174542 24.3067 -0.174542 23.2649 0.523627C22.8307 0.174542 22.2232 2.13142e-05 21.6148 2.13142e-05C20.1388 2.13142e-05 18.9238 1.2218 18.9238 2.70541V6.54536C17.362 6.80717 16.2328 8.11622 16.2328 9.68798V11.957H11.8924C11.2849 11.957 10.764 12.4806 10.764 13.0915V14.2261H7.63882V13.0915C7.63882 12.4806 7.11795 11.957 6.51042 11.957H3.47275C1.56261 11.957 0 13.5279 0 15.4479V44.5092C0 46.4291 1.56261 48 3.47275 48H46.5281C48.4374 48 50 46.4291 50 44.5092V15.4479C50.0009 13.5279 48.4383 11.957 46.529 11.957ZM28.3003 2.18265C28.5603 2.18265 28.8203 2.44447 28.8203 2.70628C28.8203 4.27716 28.8203 6.45896 28.8203 8.20438C28.8203 8.4662 28.5594 8.72799 28.3003 8.72799C28.0394 8.72799 27.7794 8.4662 27.7794 8.20438V2.70628C27.6919 2.3572 27.9519 2.18265 28.3003 2.18265ZM25.0009 2.18265C25.2617 2.18265 25.5217 2.44447 25.5217 2.70628V8.20438C25.5217 8.4662 25.2609 8.72799 25.0009 8.72799C24.7408 8.72799 24.48 8.4662 24.48 8.20438V2.70628C24.48 2.3572 24.7408 2.18265 25.0009 2.18265ZM21.1823 2.70628C21.1823 2.44447 21.4423 2.18265 21.7023 2.18265C21.9632 2.18265 22.2232 2.44447 22.2232 2.70628V8.20438C22.2232 8.4662 21.9623 8.72799 21.7023 8.72799C21.4414 8.72799 21.1823 8.4662 21.1823 8.20438C21.1823 6.45896 21.1823 4.18989 21.1823 2.70628ZM18.4904 9.68798C18.4904 9.25162 18.7513 8.90255 19.098 8.72714C19.5322 10.5607 21.6156 11.4334 23.1782 10.3853C23.2658 10.2971 23.3516 10.2971 23.3516 10.2971C23.3516 10.2971 23.8725 10.7335 24.7409 10.8216C25.8684 10.9089 26.5635 10.2971 26.5635 10.2971C26.8243 10.4717 26.9977 10.5598 27.2585 10.7335C28.7345 11.258 30.3838 10.3853 30.8171 8.81439C31.1638 8.98806 31.4246 9.33802 31.4246 9.77437V11.9562H18.4038V9.6871H18.4904V9.68798ZM3.47358 14.1388H5.46955V15.2733C5.46955 15.8842 5.99042 16.4079 6.59796 16.4079H11.9791C12.5867 16.4079 13.1075 15.8842 13.1075 15.2733V14.1388C13.8026 14.1388 34.9823 14.1388 36.9783 14.1388V15.2733C36.9783 15.8842 37.5 16.4079 38.1067 16.4079H43.5754C44.1829 16.4079 44.7029 15.8842 44.7029 15.2733V14.1388H46.6997C47.3948 14.1388 48.0024 14.7497 48.0024 15.4479V25.0477H45.8322V23.9132C45.8322 23.3023 45.3113 22.7786 44.7038 22.7786H34.809C34.2006 22.7786 33.6806 23.3023 33.6806 23.9132V25.0477C31.5971 25.0477 19.358 25.0477 17.3612 25.0477V23.9132C17.3612 23.3023 16.8403 22.7786 16.2328 22.7786H6.5971C5.98956 22.7786 5.46869 23.3023 5.46869 23.9132V25.0477H2.17014V15.4479C2.25852 14.7497 2.77852 14.1388 3.47358 14.1388ZM35.8516 25.0477H43.4896V27.2295H35.8516V25.0477ZM23.9591 32.7276H27.2585V35.4338C27.2585 36.3066 26.5635 37.0911 25.6084 37.0911C24.6542 37.0911 23.9591 36.3929 23.9591 35.4338V32.7276ZM21.529 30.5458L20.8339 27.2295H30.2087L29.5145 30.5458C23.7858 30.5458 26.0426 30.5458 21.529 30.5458ZM7.63969 25.0477H15.2785V27.2295H7.63969V25.0477ZM46.529 45.8182H3.47358C2.77852 45.8182 2.171 45.2073 2.171 44.5092V43.6364H18.4904C19.0979 43.6364 19.6188 43.1128 19.6188 42.5019C19.6188 41.891 19.0979 41.3674 18.4904 41.3674H2.25852V27.2295H5.55707V28.364C5.55707 28.9749 6.07708 29.4985 6.68461 29.4985H16.3203C16.9278 29.4985 17.4478 28.9749 17.4478 28.364V27.2295H18.7504L19.6188 31.7676C19.7063 32.2912 20.1388 32.6403 20.6606 32.6403H21.789V35.3457C21.789 37.4402 23.5241 39.1856 25.6075 39.1856C27.691 39.1856 29.427 37.4402 29.427 35.3457V32.6403H30.5562C31.0762 32.6403 31.5104 32.2912 31.598 31.7676L32.4664 27.2295H33.6814V28.364C33.6814 28.9749 34.2014 29.4985 34.8098 29.4985H44.6188C45.2264 29.4985 45.7472 28.9749 45.7472 28.364V27.2295H47.9165V41.4547H33.6806C33.0731 41.4547 32.5522 41.9792 32.5522 42.5892C32.5522 43.2001 33.0731 43.7246 33.6806 43.7246H47.8299V44.5973C47.8307 45.2073 47.2232 45.8182 46.529 45.8182Z" fill="#7F7F7F"/>
</svg>
