<svg width="48" height="48" viewBox="0 0 48 48" fill="none" xmlns="http://www.w3.org/2000/svg">
<path d="M14.7697 26.7832C11.2381 26.7832 8.42859 29.6874 8.42859 33.1563C8.42859 36.7059 11.3183 39.5294 14.7697 39.5294C18.3004 39.5294 21.11 36.6252 21.11 33.1563C21.1909 29.6874 18.3012 26.7832 14.7697 26.7832ZM14.7697 37.5933C12.3616 37.5933 10.4352 35.6571 10.4352 33.237C10.4352 30.8168 12.3616 28.8807 14.7697 28.8807C17.1769 28.8807 19.1034 30.8168 19.1034 33.237C19.1843 35.6571 17.1777 37.5933 14.7697 37.5933Z" fill="#7F7F7F"/>
<path d="M28.7356 30.8975L25.4445 30.1714C25.2033 29.3647 24.8827 28.558 24.4812 27.8319L26.3267 24.9277C26.5679 24.5244 26.487 24.0403 26.1665 23.637L24.3202 21.7815C23.9996 21.4588 23.4378 21.3781 23.0364 21.6202L20.1467 23.4756C19.4247 23.0722 18.6218 22.7496 17.8188 22.5076L17.0968 19.2C17.0159 18.716 16.6152 18.3933 16.1335 18.3933H13.4843C13.0035 18.3933 12.602 18.716 12.5211 19.2L11.7991 22.5882C10.9961 22.8302 10.194 23.1529 9.47115 23.5563L6.58147 21.7008C6.17999 21.4588 5.69842 21.5395 5.29694 21.8622L3.45144 23.637C3.13089 23.9597 3.04994 24.5244 3.29115 24.9277L5.13665 27.8319C4.73518 28.558 4.41464 29.3647 4.17344 30.1714L0.802968 30.8975C0.321357 30.9781 0 31.3815 0 31.8655V34.5277C0 35.0118 0.320564 35.4151 0.802968 35.4958L4.09329 36.2218C4.3337 37.0286 4.65503 37.8353 5.0565 38.5613L3.21022 41.4655C2.96902 41.8689 3.04992 42.3529 3.37047 42.7563L5.2168 44.6118C5.53734 44.9344 6.09907 45.0151 6.50055 44.7731L9.39023 42.9176C10.113 43.321 10.916 43.6437 11.7181 43.8857L12.4409 47.1933C12.5211 47.6773 12.9225 48 13.4042 48H16.0526C16.5342 48 16.9349 47.6773 17.0158 47.1933L17.7379 43.8857C18.5408 43.6437 19.3437 43.321 20.0658 42.9176L22.9555 44.7731C23.3569 45.0151 23.8386 44.9344 24.24 44.6118L26.0855 42.7563C26.4069 42.4336 26.487 41.8689 26.2466 41.4655L24.4003 38.5613C24.8017 37.8353 25.1223 37.0286 25.3635 36.2218L28.6539 35.4958C29.1363 35.4151 29.4568 35.0118 29.4568 34.5277V31.8655C29.5385 31.3815 29.2164 30.9781 28.7356 30.8975ZM27.5319 33.721L24.4019 34.447C24.0004 34.5277 23.7592 34.8504 23.6799 35.1731C23.4387 36.2218 23.0372 37.1899 22.4754 38.0773C22.2342 38.4 22.2342 38.8034 22.4754 39.126L24.2416 41.8689L23.5196 42.5949L20.791 40.8201C20.4696 40.5781 20.0682 40.5781 19.7477 40.8201C18.8654 41.3849 17.9021 41.7882 16.858 42.0302C16.4565 42.1109 16.2153 42.4336 16.136 42.7563L15.4131 45.9025H14.3706L13.6486 42.7563C13.5676 42.3529 13.2471 42.1109 12.9257 42.0302C11.8824 41.7882 10.9199 41.3849 10.0361 40.8201C9.71551 40.5781 9.31403 40.5781 8.9927 40.8201L6.26413 42.5949L5.54131 41.8689L7.30666 39.126C7.54786 38.8034 7.54786 38.4 7.30666 38.0773C6.74492 37.1899 6.34347 36.2218 6.10306 35.1731C6.02292 34.7697 5.70156 34.5277 5.38101 34.447L2.25098 33.721V32.6723L5.38101 31.9462C5.78249 31.8655 6.02372 31.5428 6.10306 31.2202C6.34426 30.1714 6.74492 29.2033 7.30666 28.3159C7.54786 27.9933 7.54786 27.5899 7.30666 27.2672L5.54131 24.5244L6.26413 23.7983L8.9927 25.5731C9.31403 25.8151 9.71551 25.8151 10.0361 25.5731C10.9191 25.0084 11.8824 24.605 12.9257 24.363C13.3272 24.2823 13.5684 23.9597 13.6486 23.637L14.3706 20.4907H15.4131L16.136 23.637C16.2161 24.0403 16.5374 24.2823 16.858 24.363C17.9013 24.605 18.8646 25.0084 19.7477 25.5731C20.0682 25.8151 20.4696 25.8151 20.791 25.5731L23.5196 23.7983L24.2416 24.5244L22.4754 27.2672C22.2342 27.5899 22.2342 27.9933 22.4754 28.3159C23.0372 29.2033 23.4387 30.1714 23.6799 31.2202C23.7592 31.6235 24.0813 31.8655 24.4019 31.9462L27.5319 32.6723V33.721Z" fill="#7F7F7F"/>
<path d="M35.0758 7.2605C32.0258 7.2605 29.4575 9.76134 29.4575 12.9076C29.4575 15.9731 31.9457 18.5546 35.0758 18.5546C38.1257 18.5546 40.694 16.0538 40.694 12.9076C40.6147 9.76134 38.1257 7.2605 35.0758 7.2605ZM35.0758 16.4571C33.0692 16.4571 31.4641 14.8437 31.4641 12.8269C31.4641 10.8101 33.0684 9.19663 35.0758 9.19663C37.0831 9.19663 38.6875 10.8101 38.6875 12.8269C38.6073 14.8437 37.0022 16.4571 35.0758 16.4571Z" fill="#7F7F7F"/>
<path d="M47.036 10.7294L44.3066 10.084C44.1456 9.43866 43.8251 8.79326 43.5037 8.22856L45.0287 5.80839C45.2699 5.40503 45.1889 4.92099 44.8684 4.51763L43.2633 2.90418C42.9428 2.58149 42.381 2.50084 41.9795 2.74285L39.5715 4.27562C39.0097 3.95293 38.3671 3.71091 37.726 3.4689L37.1634 0.806723C37.0833 0.322689 36.6826 0 36.2002 0H33.9532C33.4716 0 33.0701 0.322689 32.99 0.806723L32.3481 3.63025C31.7054 3.7916 31.0644 4.11429 30.5026 4.43698L28.0945 2.90418C27.6931 2.66217 27.2123 2.74285 26.8108 3.06554L25.2057 4.67898C24.8851 5.00167 24.8042 5.56638 25.0454 5.96974L26.5704 8.38991C26.2499 8.95462 26.0086 9.59999 25.7674 10.2454L23.119 10.7294C22.6373 10.8101 22.316 11.2134 22.316 11.6975V13.9563C22.316 14.4403 22.6366 14.8437 23.119 14.9244L25.8484 15.5697C26.0086 16.2151 26.3292 16.8605 26.6505 17.4252L25.1255 19.8454C24.8851 20.2487 24.9653 20.7328 25.2866 21.1361L26.8917 22.7496C27.213 23.0723 27.7748 23.1529 28.1763 22.9109L30.5835 21.3782C31.1453 21.7008 31.7879 21.9429 32.4298 22.1849L33.0717 24.9277C33.1527 25.4118 33.5533 25.7344 34.0349 25.7344H36.2827C36.7635 25.7344 37.165 25.4118 37.2459 24.9277L37.8878 22.1849C38.5297 22.0235 39.1716 21.7008 39.7333 21.3782L42.1414 22.9109C42.5429 23.1529 43.0237 23.0723 43.4252 22.7496L45.0303 21.1361C45.3508 20.8134 45.4317 20.2487 45.1905 19.8454L43.6656 17.4252C43.9861 16.8605 44.2273 16.2151 44.4685 15.5697L47.1971 14.9244C47.6779 14.8437 48.0001 14.4403 48.0001 13.9563V11.6975C47.8374 11.2134 47.4359 10.8101 47.036 10.7294ZM45.8316 13.1496L43.2633 13.7143C42.8618 13.795 42.6206 14.1176 42.5413 14.4403C42.381 15.3277 41.9795 16.1344 41.5781 16.8605C41.3369 17.1832 41.3369 17.5865 41.5781 17.9092L43.0221 20.1681L42.5405 20.6521L40.2927 19.2C39.9722 18.958 39.5707 18.958 39.2501 19.2C38.5273 19.684 37.7252 20.0067 36.8421 20.1681C36.4406 20.2487 36.1994 20.5714 36.1201 20.8941L35.3981 23.637H34.7554L34.1936 21.0554C34.1127 20.6521 33.7921 20.4101 33.4708 20.3294C32.5885 20.1681 31.7856 19.7647 31.0636 19.3613C30.7422 19.1193 30.3407 19.1193 30.0202 19.3613L27.7732 20.8134L27.2916 20.3294L28.7364 18.0706C28.9768 17.7479 28.9768 17.3445 28.7364 17.0218C28.2548 16.2958 27.9335 15.4891 27.7732 14.6017C27.6923 14.1983 27.3717 13.9563 27.0504 13.8756L24.321 13.1496V12.5042L26.8893 11.9395C27.2908 11.8588 27.532 11.5361 27.6122 11.2134C27.7724 10.326 28.1739 9.51932 28.5754 8.79327C28.8158 8.47058 28.8158 8.06721 28.5754 7.74452L27.1306 5.4857L27.6122 5.00167L29.8591 6.45378C30.1797 6.6958 30.5811 6.6958 30.9025 6.45378C31.6245 5.96975 32.4274 5.64705 33.3097 5.4857C33.7112 5.40503 33.9524 5.08235 34.0318 4.75966L34.5943 2.17814H35.2362L35.7979 4.75966C35.8788 5.16302 36.1994 5.40503 36.5207 5.4857C37.403 5.64705 38.206 6.05042 38.928 6.45378C39.2493 6.6958 39.6508 6.6958 39.9714 6.45378L42.2184 5.00167L42.7 5.4857L41.2552 7.74452C41.0147 8.06721 41.0147 8.47058 41.2552 8.79327C41.7368 9.51932 42.0581 10.326 42.2184 11.2134C42.2993 11.6168 42.6199 11.8588 42.9412 11.9395L45.5087 12.5042V13.1496H45.8316Z" fill="#7F7F7F"/>
<path d="M5.45952 17.4252C7.14476 17.4252 8.5095 16.0538 8.5095 14.3596C8.5095 12.6655 7.14476 11.2941 5.45952 11.2941C3.77349 11.2941 2.40881 12.6655 2.40881 14.3596C2.40881 16.0538 3.77349 17.4252 5.45952 17.4252ZM5.45952 13.3916C6.02127 13.3916 6.5021 13.8756 6.5021 14.4403C6.5021 15.005 6.02127 15.4891 5.45952 15.4891C4.89777 15.4891 4.41539 15.005 4.41539 14.4403C4.41618 13.8756 4.89777 13.3916 5.45952 13.3916Z" fill="#7F7F7F"/>
<path d="M16.5358 9.35797C18.7828 9.35797 20.549 7.58318 20.549 5.32435C20.549 3.06553 18.7836 1.29074 16.5358 1.29074C14.288 1.29074 12.5219 3.06553 12.5219 5.32435C12.5219 7.58318 14.288 9.35797 16.5358 9.35797ZM16.5358 3.30755C17.6593 3.30755 18.5416 4.19494 18.5416 5.32435C18.5416 6.45377 17.6593 7.34116 16.5358 7.34116C15.4115 7.34116 14.5292 6.45377 14.5292 5.32435C14.5292 4.19494 15.4115 3.30755 16.5358 3.30755Z" fill="#7F7F7F"/>
<path d="M38.6083 42.5949H34.5951V44.6117H38.6083V42.5949Z" fill="#7F7F7F"/>
<path d="M42.6203 40.5781H38.6072V42.5949H42.6203V40.5781Z" fill="#7F7F7F"/>
<path d="M42.6203 44.6118H38.6072V46.6286H42.6203V44.6118Z" fill="#7F7F7F"/>
<path d="M38.6083 38.5613H34.5951V40.5781H38.6083V38.5613Z" fill="#7F7F7F"/>
<path d="M42.6203 36.5445H38.6072V38.5613H42.6203V36.5445Z" fill="#7F7F7F"/>
<path d="M38.6083 34.5277H34.5951V36.5445H38.6083V34.5277Z" fill="#7F7F7F"/>
<path d="M42.6203 32.5109H38.6072V34.5277H42.6203V32.5109Z" fill="#7F7F7F"/>
<path d="M38.6083 30.4941H34.5951V32.5109H38.6083V30.4941Z" fill="#7F7F7F"/>
<path d="M42.6203 28.4773H38.6072V30.4941H42.6203V28.4773Z" fill="#7F7F7F"/>
</svg>
