<svg width="12" height="12" viewBox="0 0 12 12" fill="none" xmlns="http://www.w3.org/2000/svg">
<g clip-path="url(#clip0_15_2395)">
<path d="M11 2.6826L11.4 2.6826V2.6826H11ZM4.72726 6.65143L5.00951 6.36799L4.72726 6.65143ZM4.72726 4.27188L5.00951 4.55532L4.72726 4.27188ZM7.71428 7.24632L7.43203 6.96288L7.71428 7.24632ZM5.32467 7.24632L5.04242 7.52975L5.32467 7.24632ZM10.2576 4.71367L10.5399 4.99711H10.5399L10.2576 4.71367ZM11 2.92901L10.6 2.929V2.92901H11ZM7.27062 1.73923L6.98838 1.45579V1.45579L7.27062 1.73923ZM6.20431 6.33998C6.36085 6.1841 6.36139 5.93083 6.20551 5.7743C6.04963 5.61776 5.79636 5.61722 5.63982 5.7731L6.20431 6.33998ZM3.85445 5.14102L4.13712 4.858L4.1367 4.85758L3.85445 5.14102ZM5.70533 3.41814C5.89116 3.53759 6.13864 3.48379 6.2581 3.29796C6.37756 3.11213 6.32375 2.86464 6.13792 2.74519L5.70533 3.41814ZM5.64792 2.90571L5.43162 3.24219L5.43162 3.24219L5.64792 2.90571ZM4.53014 2.33286L4.58855 1.93715V1.93715L4.53014 2.33286ZM2.398 3.6169L2.68025 3.90034L2.398 3.6169ZM3.7527 2.4321L3.90583 2.80162L3.7527 2.4321ZM2.67553 4.22637L2.82273 3.85444L2.82273 3.85444L2.67553 4.22637ZM2.72913 4.24779L2.57691 4.6177L2.72913 4.24779ZM3.43653 4.72486L3.71878 4.44142L3.43653 4.72486ZM3.39556 4.68433L3.11719 4.97157L3.39556 4.68433ZM2.51082 4.16119L2.36362 4.53312L2.36362 4.53312L2.51082 4.16119ZM6.86753 8.16872L6.58486 8.45173C6.59105 8.45791 6.59743 8.46388 6.60401 8.46964L6.86753 8.16872ZM9.24518 5.8394C9.125 5.65403 8.87731 5.60117 8.69195 5.72134C8.50658 5.84152 8.45372 6.0892 8.57389 6.27457L9.24518 5.8394ZM9.08622 6.32954L8.75058 6.54713L8.75058 6.54713L9.08622 6.32954ZM9.6615 7.44261L10.0571 7.38372L9.6615 7.44261ZM8.37203 9.56576L8.65427 9.8492L8.65428 9.8492L8.37203 9.56576ZM9.56185 8.21677L9.93091 8.37102L9.56185 8.21677ZM7.84585 9.50456L8.21735 9.35629L7.84585 9.50456ZM7.63958 9.03017L7.28897 9.22271L7.63958 9.03017ZM7.09498 8.3679L7.37723 8.08446L7.36815 8.07542L7.3585 8.06697L7.09498 8.3679ZM7.45077 8.74435L7.76546 8.49742L7.45077 8.74435ZM8.33547 9.60217L8.05323 9.31873L8.05322 9.31873L8.33547 9.60217ZM6.74521 8.04654L6.6071 7.67114L6.74521 8.04654ZM3.93111 5.21759L4.30217 5.36698L3.93111 5.21759ZM3.05677 6.72627C3.21308 6.57015 3.21323 6.31689 3.05712 6.16058C2.901 6.00428 2.64774 6.00412 2.49143 6.16024L3.05677 6.72627ZM1.92823 7.28809L1.64556 7.00508H1.64556L1.92823 7.28809ZM1.15926 6.52006L0.876589 6.23704H0.876589L1.15926 6.52006ZM1.51883 6.72627C1.67513 6.57015 1.67529 6.31689 1.51917 6.16058C1.36306 6.00428 1.10979 6.00412 0.953486 6.16024L1.51883 6.72627ZM5.82051 9.51107C5.97682 9.35495 5.97697 9.10169 5.82086 8.94538C5.66474 8.78908 5.41148 8.78893 5.25517 8.94504L5.82051 9.51107ZM4.69198 10.0729L4.97465 10.3559H4.97465L4.69198 10.0729ZM5.46095 10.8409L5.74362 11.1239L5.46095 10.8409ZM5.82051 11.0471C5.97682 10.891 5.97697 10.6378 5.82086 10.4815C5.66474 10.3252 5.41148 10.325 5.25517 10.4811L5.82051 11.0471ZM5.33406 8.61056C5.49027 8.45435 5.49027 8.20108 5.33406 8.04487C5.17785 7.88866 4.92458 7.88866 4.76837 8.04487L5.33406 8.61056ZM3.71716 9.09608C3.56095 9.25229 3.56095 9.50556 3.71716 9.66177C3.87337 9.81798 4.12663 9.81798 4.28284 9.66177L3.71716 9.09608ZM3.9462 7.22439C4.10241 7.06818 4.10241 6.81492 3.9462 6.65871C3.78999 6.5025 3.53673 6.5025 3.38052 6.65871L3.9462 7.22439ZM2.32206 7.71716C2.16585 7.87337 2.16585 8.12663 2.32206 8.28284C2.47827 8.43905 2.73154 8.43905 2.88775 8.28284L2.32206 7.71716ZM3.74769 8.80864C3.90563 8.65418 3.90845 8.40093 3.75399 8.24299C3.59952 8.08505 3.34627 8.08224 3.18834 8.2367L3.74769 8.80864ZM2.33355 9.07267C2.17561 9.22713 2.17279 9.48038 2.32725 9.63832C2.48172 9.79626 2.73497 9.79908 2.89291 9.64461L2.33355 9.07267ZM9.9754 4.43023L7.43203 6.96288L7.99653 7.52975L10.5399 4.99711L9.9754 4.43023ZM5.60691 6.96288L5.00951 6.36799L4.44502 6.93487L5.04242 7.52975L5.60691 6.96288ZM5.00951 4.55532L7.55287 2.02267L6.98838 1.45579L4.44502 3.98844L5.00951 4.55532ZM9.06284 1.4H9.31029V0.6H9.06284V1.4ZM10.6 2.68259L10.6 2.929L11.4 2.92901L11.4 2.6826L10.6 2.68259ZM9.31029 1.4C9.71982 1.4 9.9869 1.40084 10.1842 1.42726C10.3703 1.45217 10.4333 1.49305 10.4703 1.52985L11.0348 0.962971C10.8243 0.753359 10.5645 0.671037 10.2904 0.634339C10.0276 0.599158 9.6973 0.6 9.31029 0.6V1.4ZM11.4 2.6826C11.4 2.29736 11.4009 1.96802 11.3655 1.70594C11.3285 1.43218 11.2455 1.17282 11.0348 0.962971L10.4703 1.52985C10.507 1.56641 10.5478 1.62855 10.5727 1.81298C10.5991 2.0091 10.6 2.27465 10.6 2.6826H11.4ZM5.00951 6.36799C4.71987 6.07957 4.53177 5.89107 4.41114 5.73362C4.29752 5.58533 4.28241 5.51275 4.28241 5.46165H3.48241C3.48241 5.75904 3.60811 6.00091 3.77611 6.22017C3.93709 6.43028 4.17142 6.66243 4.44502 6.93487L5.00951 6.36799ZM5.04242 7.52975C5.31604 7.80222 5.54914 8.03554 5.76007 8.19579C5.98029 8.36311 6.22239 8.48761 6.51947 8.48761V7.68761C6.4666 7.68761 6.39292 7.6719 6.24404 7.55879C6.08586 7.43861 5.89653 7.25128 5.60691 6.96288L5.04242 7.52975ZM10.5399 4.99711C10.8829 4.65549 11.1387 4.41089 11.2729 4.08827L10.5342 3.78102C10.4755 3.92222 10.3649 4.04236 9.9754 4.43023L10.5399 4.99711ZM10.6 2.92901C10.6 3.47757 10.5929 3.64 10.5342 3.78102L11.2729 4.08827C11.4071 3.76547 11.4 3.41208 11.4 2.92901H10.6ZM7.55287 2.02267C7.94218 1.635 8.06306 1.52457 8.20546 1.46584L7.90042 0.726281C7.57703 0.859666 7.33163 1.11398 6.98838 1.45579L7.55287 2.02267ZM9.06284 0.6C8.57736 0.6 8.22362 0.59297 7.90042 0.726281L8.20546 1.46584C8.34804 1.40703 8.5123 1.4 9.06284 1.4V0.6ZM5.30821 7.23231L6.20431 6.33998L5.63982 5.7731L4.74372 6.66543L5.30821 7.23231ZM6.13792 2.74519L5.86421 2.56924L5.43162 3.24219L5.70533 3.41814L6.13792 2.74519ZM5.86421 2.56924C5.59485 2.39608 5.3739 2.25372 5.18302 2.15099C4.98711 2.04555 4.79891 1.9682 4.58855 1.93715L4.47173 2.72857C4.55556 2.74095 4.65172 2.77355 4.80389 2.85544C4.96108 2.94004 5.15193 3.06239 5.43162 3.24219L5.86421 2.56924ZM2.68025 3.90034C2.92547 3.65616 3.18696 3.39588 3.4216 3.18209C3.53882 3.07529 3.64456 2.9845 3.73443 2.91531C3.83049 2.84136 3.88586 2.8099 3.90583 2.80162L3.59956 2.06257C3.47835 2.1128 3.3547 2.19804 3.24643 2.28139C3.13196 2.36951 3.00805 2.47662 2.8828 2.59074C2.63252 2.81879 2.35784 3.0924 2.11576 3.33346L2.68025 3.90034ZM4.58855 1.93715C4.25546 1.88798 3.91347 1.93248 3.59956 2.06257L3.90583 2.80162C4.08995 2.72532 4.28594 2.70115 4.47173 2.72857L4.58855 1.93715ZM2.36362 4.53312L2.52833 4.5983L2.82273 3.85444L2.65802 3.78925L2.36362 4.53312ZM3.15429 5.0083L3.57221 5.42445L4.1367 4.85758L3.71878 4.44142L3.15429 5.0083ZM2.52833 4.5983C2.55619 4.60933 2.56674 4.61351 2.57691 4.6177L2.88135 3.87789C2.86502 3.87117 2.84867 3.86471 2.82273 3.85444L2.52833 4.5983ZM3.71878 4.44142C3.69903 4.42176 3.6866 4.40936 3.67393 4.39709L3.11719 4.97157C3.12507 4.97921 3.1331 4.9872 3.15429 5.0083L3.71878 4.44142ZM2.57691 4.6177C2.77804 4.70046 2.96139 4.82059 3.11719 4.97157L3.67393 4.39709C3.44516 4.17539 3.17616 3.9992 2.88135 3.87789L2.57691 4.6177ZM2.11576 3.33346C1.74098 3.70666 1.8736 4.33919 2.36362 4.53312L2.65802 3.78925C2.70176 3.80657 2.71546 3.86528 2.68025 3.90034L2.11576 3.33346ZM8.57389 6.27457L8.75058 6.54713L9.42187 6.11195L9.24518 5.8394L8.57389 6.27457ZM8.08978 9.28233L8.05323 9.31873L8.61772 9.88561L8.65427 9.8492L8.08978 9.28233ZM8.75058 6.54713C8.93116 6.82568 9.05397 7.01563 9.13887 7.17206C9.22106 7.32348 9.25355 7.41877 9.26586 7.5015L10.0571 7.38372C10.0259 7.1735 9.94793 6.98563 9.84198 6.79044C9.73876 6.60025 9.59573 6.38014 9.42187 6.11195L8.75058 6.54713ZM8.65428 9.8492C8.89635 9.60814 9.17113 9.33462 9.40014 9.08539C9.51475 8.96066 9.62233 8.83725 9.71085 8.72323C9.79453 8.61545 9.8803 8.49212 9.93091 8.37102L9.19278 8.06253C9.18464 8.08202 9.15322 8.13695 9.07893 8.23264C9.00948 8.3221 8.91832 8.42738 8.81107 8.5441C8.59637 8.77775 8.335 9.03814 8.08978 9.28233L8.65428 9.8492ZM9.26586 7.5015C9.29326 7.68554 9.26914 7.87982 9.19278 8.06253L9.93091 8.37102C10.0618 8.05781 10.1067 7.71636 10.0571 7.38372L9.26586 7.5015ZM7.3585 8.06697L7.13105 7.86779L6.60401 8.46964L6.83146 8.66882L7.3585 8.06697ZM8.21735 9.35629C8.12461 9.12391 8.06665 8.97685 7.99019 8.83763L7.28897 9.22271C7.33644 9.30914 7.37468 9.40312 7.47435 9.65283L8.21735 9.35629ZM6.81274 8.65134C7.00353 8.84133 7.07513 8.91358 7.13608 8.99127L7.76546 8.49742C7.6674 8.37245 7.5548 8.26129 7.37723 8.08446L6.81274 8.65134ZM7.99019 8.83763C7.92467 8.71832 7.84951 8.60454 7.76546 8.49742L7.13608 8.99127C7.19328 9.06417 7.24442 9.14157 7.28897 9.22271L7.99019 8.83763ZM8.62684 3.98844C8.45298 4.16157 8.17039 4.16157 7.99653 3.98844L7.43203 4.55532C7.91804 5.03928 8.70532 5.03928 9.19133 4.55532L8.62684 3.98844ZM7.99653 3.98844C7.8236 3.81624 7.8236 3.53775 7.99653 3.36554L7.43203 2.79867C6.94509 3.28356 6.94509 4.07043 7.43203 4.55532L7.99653 3.98844ZM7.99653 3.36554C8.17039 3.19241 8.45298 3.19241 8.62684 3.36554L9.19133 2.79867C8.70532 2.31471 7.91804 2.3147 7.43203 2.79867L7.99653 3.36554ZM8.62684 3.36554C8.79977 3.53775 8.79977 3.81624 8.62684 3.98844L9.19133 4.55532C9.67828 4.07043 9.67828 3.28356 9.19133 2.79867L8.62684 3.36554ZM8.05322 9.31873C8.07976 9.2923 8.11539 9.28588 8.14156 9.2911C8.16791 9.29635 8.20172 9.31712 8.21735 9.35629L7.47435 9.65283C7.66157 10.1219 8.26816 10.2337 8.61772 9.8856L8.05322 9.31873ZM7.43203 6.96288C7.20892 7.18505 7.04368 7.34927 6.90234 7.47119C6.76034 7.59368 6.67102 7.64762 6.6071 7.67114L6.88332 8.42194C7.08181 8.34892 7.25763 8.22122 7.42487 8.07696C7.59276 7.93214 7.78085 7.74452 7.99653 7.52975L7.43203 6.96288ZM6.6071 7.67114C6.57461 7.68309 6.54729 7.68761 6.51947 7.68761V8.48761C6.6463 8.48761 6.76696 8.46475 6.88332 8.42194L6.6071 7.67114ZM7.1502 7.8857L7.02788 7.76353L6.46254 8.32956L6.58486 8.45173L7.1502 7.8857ZM4.44502 3.98844C4.23448 4.19809 4.05011 4.3814 3.90654 4.54504C3.7637 4.70786 3.63663 4.87802 3.56006 5.06819L4.30217 5.36698C4.32837 5.30191 4.38537 5.21231 4.50791 5.07264C4.62972 4.93379 4.79205 4.77186 5.00951 4.55532L4.44502 3.98844ZM3.56006 5.06819C3.50982 5.19298 3.48241 5.3233 3.48241 5.46165H4.28241C4.28241 5.43267 4.28747 5.40349 4.30217 5.36698L3.56006 5.06819ZM3.57178 5.42403L3.64844 5.5006L4.21378 4.93457L4.13712 4.858L3.57178 5.42403ZM2.49143 6.16024L1.64556 7.00508L2.2109 7.57111L3.05677 6.72627L2.49143 6.16024ZM1.44193 6.80307L1.51883 6.72627L0.953486 6.16024L0.876589 6.23704L1.44193 6.80307ZM1.44193 7.00508C1.38602 6.94924 1.38602 6.85891 1.44193 6.80307L0.876589 6.23704C0.507804 6.60538 0.507804 7.20277 0.876589 7.57111L1.44193 7.00508ZM1.64556 7.00508C1.58939 7.06119 1.49811 7.06119 1.44193 7.00508L0.876589 7.57111C1.2451 7.93918 1.84239 7.93918 2.2109 7.57111L1.64556 7.00508ZM5.25517 8.94504L4.4093 9.78988L4.97465 10.3559L5.82051 9.51107L5.25517 8.94504ZM5.74362 11.1239L5.82051 11.0471L5.25517 10.4811L5.17828 10.5579L5.74362 11.1239ZM4.4093 11.1239C4.77782 11.492 5.3751 11.492 5.74362 11.1239L5.17828 10.5579C5.1221 10.614 5.03082 10.614 4.97465 10.5579L4.4093 11.1239ZM4.4093 9.78988C4.04052 10.1582 4.04052 10.7556 4.4093 11.1239L4.97465 10.5579C4.91874 10.5021 4.91874 10.4117 4.97465 10.3559L4.4093 9.78988ZM4.76837 8.04487L3.71716 9.09608L4.28284 9.66177L5.33406 8.61056L4.76837 8.04487ZM3.38052 6.65871L2.32206 7.71716L2.88775 8.28284L3.9462 7.22439L3.38052 6.65871ZM3.18834 8.2367L2.33355 9.07267L2.89291 9.64461L3.74769 8.80864L3.18834 8.2367Z" fill="#7F7F7F"/>
</g>
<defs>
<clipPath id="clip0_15_2395">
<rect width="12" height="12" fill="white"/>
</clipPath>
</defs>
</svg>
