<svg width="12" height="12" viewBox="0 0 12 12" fill="none" xmlns="http://www.w3.org/2000/svg">
<g clip-path="url(#clip0_15_2393)">
<path d="M4.49615 3.7899L4.77941 4.07232L4.49615 3.7899ZM7.23461 3.7899L7.51788 3.50749L7.23461 3.7899ZM3.81153 7.22328L4.0948 6.94087L4.0948 6.94087L3.81153 7.22328ZM3.81153 4.47658L3.52826 4.19416L3.81153 4.47658ZM2.84334 5.84993H2.44334H2.84334ZM6.72619 10.1467L6.44292 10.4291L6.72619 10.1467ZM10.1493 6.71333L9.866 6.99575V6.99575L10.1493 6.71333ZM4.8975 5.44567C5.05347 5.60212 5.30674 5.6025 5.46318 5.44652C5.61962 5.29055 5.62001 5.03728 5.46403 4.88084L4.8975 5.44567ZM6.23438 2.78666L6.51722 3.0695L6.51765 3.06908L6.23438 2.78666ZM8.268 4.94626C8.14844 5.13202 8.20211 5.37954 8.38787 5.4991C8.57364 5.61866 8.82115 5.56499 8.94071 5.37923L8.268 4.94626ZM8.80684 4.84813L9.1432 5.06462H9.1432L8.80684 4.84813ZM9.4661 3.56332L9.8618 3.6218L9.4661 3.56332ZM7.98838 1.11257L7.70511 1.39499V1.39499L7.98838 1.11257ZM9.3519 2.6697L8.98244 2.823L9.3519 2.6697ZM7.28698 1.43157L6.91511 1.28422V1.28422L7.28698 1.43157ZM7.26233 1.49318L7.63217 1.64556L7.26233 1.49318ZM6.71331 2.30629L6.99657 2.58871H6.99657L6.71331 2.30629ZM6.75995 2.25919L6.47287 1.98065L6.75995 2.25919ZM7.362 1.24225L7.73387 1.3896L7.73387 1.3896L7.362 1.24225ZM2.75 6.25L2.46716 5.96716C2.46098 5.97334 2.455 5.97972 2.44923 5.9863L2.75 6.25ZM5.39765 8.93291C5.58309 8.81284 5.63608 8.56518 5.51601 8.37974C5.39595 8.19431 5.14828 8.14132 4.96285 8.26139L5.39765 8.93291ZM4.86659 8.80024L4.64918 8.46448H4.64918L4.86659 8.80024ZM3.58563 9.46148L3.64445 9.85714L3.58563 9.46148ZM1.14223 7.97932L0.858968 8.26174V8.26174L1.14223 7.97932ZM2.69469 9.34694L2.54061 9.71607L2.69469 9.34694ZM1.21267 7.37452L1.36079 7.74608L1.21267 7.37452ZM1.75861 7.13742L1.95098 7.48813L1.75861 7.13742ZM2.52078 6.51144L2.80404 6.79386L2.81309 6.78478L2.82154 6.77514L2.52078 6.51144ZM2.08755 6.9204L2.33428 7.23523L2.08755 6.9204ZM1.10034 7.9373L1.3836 7.65488V7.65488L1.10034 7.9373ZM6.14626 2.87478L5.99702 3.2459L6.14626 2.87478ZM7.00945 9.86429L4.0948 6.94087L3.52826 7.5057L6.44292 10.4291L7.00945 9.86429ZM4.0948 4.759L4.77941 4.07232L4.21288 3.50748L3.52826 4.19416L4.0948 4.759ZM6.95134 4.07232L9.866 6.99575L10.4325 6.43091L7.51788 3.50749L6.95134 4.07232ZM10.6 8.77336V9.05779H11.4V8.77336H10.6ZM9.06361 10.6H8.78003V11.4H9.06361V10.6ZM10.6 9.05779C10.6 9.52685 10.5992 9.83852 10.5681 10.0702C10.5386 10.2905 10.4885 10.3777 10.4332 10.4332L10.9997 10.998C11.228 10.769 11.3196 10.4851 11.361 10.1765C11.4008 9.8793 11.4 9.5043 11.4 9.05779H10.6ZM9.06361 11.4C9.50868 11.4 9.88284 11.4009 10.1794 11.3609C10.4877 11.3193 10.7712 11.2271 10.9997 10.998L10.4332 10.4332C10.378 10.4884 10.2916 10.5385 10.0725 10.568C9.84182 10.5991 9.53136 10.6 9.06361 10.6V11.4ZM4.77941 4.07232C5.11014 3.7406 5.33035 3.52093 5.51551 3.37923C5.6915 3.24456 5.78785 3.2188 5.86538 3.2188V2.4188C5.54187 2.4188 5.27634 2.55489 5.02933 2.74392C4.7915 2.92592 4.52762 3.1918 4.21288 3.50748L4.77941 4.07232ZM3.52826 4.19416C3.21351 4.50986 2.94845 4.77452 2.76703 5.01302C2.57854 5.2608 2.44334 5.52655 2.44334 5.84993H3.24334C3.24334 5.77106 3.2695 5.67385 3.40375 5.49736C3.54505 5.3116 3.76409 5.0907 4.0948 4.759L3.52826 4.19416ZM6.44292 10.4291C6.83956 10.827 7.11168 11.11 7.46924 11.2585L7.77618 10.5197C7.59997 10.4465 7.45232 10.3085 7.00945 9.86429L6.44292 10.4291ZM8.78003 10.6C8.1537 10.6 7.95226 10.5929 7.77618 10.5197L7.46924 11.2585C7.82694 11.4071 8.21912 11.4 8.78003 11.4V10.6ZM9.866 6.99575C10.3087 7.43981 10.4466 7.58806 10.5197 7.76523L11.2592 7.45987C11.1112 7.10165 10.8293 6.82889 10.4325 6.43091L9.866 6.99575ZM11.4 8.77336C11.4 8.21051 11.407 7.81795 11.2592 7.45987L10.5197 7.76523C10.593 7.94253 10.6 8.14538 10.6 8.77336H11.4ZM3.87057 4.41566L4.8975 5.44567L5.46403 4.88084L4.43711 3.85082L3.87057 4.41566ZM8.94071 5.37923L9.1432 5.06462L8.47048 4.63165L8.268 4.94626L8.94071 5.37923ZM9.1432 5.06462C9.34297 4.75423 9.50531 4.50251 9.62218 4.28561C9.74176 4.06369 9.82746 3.85421 9.8618 3.6218L9.0704 3.50484C9.05477 3.61059 9.01393 3.72795 8.91792 3.90612C8.8192 4.08932 8.67691 4.31093 8.47048 4.63165L9.1432 5.06462ZM7.70511 1.39499C7.98589 1.67662 8.28643 1.97817 8.53354 2.24905C8.657 2.38439 8.76271 2.50729 8.84375 2.61243C8.92956 2.72377 8.96978 2.7925 8.98244 2.823L9.72136 2.51641C9.66668 2.38462 9.5726 2.24759 9.47738 2.12405C9.37739 1.99433 9.25534 1.85326 9.12456 1.70989C8.86319 1.42338 8.5493 1.10865 8.27165 0.830158L7.70511 1.39499ZM9.8618 3.6218C9.91677 3.24985 9.86706 2.86758 9.72136 2.51641L8.98244 2.823C9.07425 3.04427 9.10357 3.28038 9.0704 3.50484L9.8618 3.6218ZM6.99013 1.0949L6.91511 1.28422L7.65885 1.57892L7.73387 1.3896L6.99013 1.0949ZM6.43004 2.02388L5.95111 2.50424L6.51765 3.06908L6.99657 2.58871L6.43004 2.02388ZM6.91511 1.28422C6.90248 1.31609 6.8975 1.32865 6.89249 1.3408L7.63217 1.64556C7.63971 1.62725 7.64698 1.60888 7.65885 1.57892L6.91511 1.28422ZM6.99657 2.58871C7.0193 2.56592 7.03324 2.55194 7.04702 2.53774L6.47287 1.98065C6.46374 1.99007 6.45422 1.99962 6.43004 2.02388L6.99657 2.58871ZM6.89249 1.3408C6.79437 1.57895 6.65194 1.7961 6.47287 1.98065L7.04702 2.53774C7.29685 2.28026 7.49542 1.97746 7.63217 1.64556L6.89249 1.3408ZM8.27165 0.830158C7.87318 0.43048 7.19755 0.571434 6.99013 1.0949L7.73387 1.3896C7.73397 1.38936 7.73359 1.39034 7.73242 1.39192C7.73129 1.39346 7.7299 1.39493 7.72837 1.39617C7.72546 1.39856 7.72299 1.39941 7.72143 1.39974C7.71986 1.40006 7.71715 1.40027 7.71334 1.39919C7.71136 1.39862 7.70939 1.39779 7.70764 1.39676C7.70584 1.39571 7.70501 1.39489 7.70511 1.39499L8.27165 0.830158ZM4.96285 8.26139L4.64918 8.46448L5.08399 9.136L5.39765 8.93291L4.96285 8.26139ZM1.42549 7.6969L1.3836 7.65488L0.817072 8.21972L0.858968 8.26174L1.42549 7.6969ZM4.64918 8.46448C4.3294 8.67154 4.10852 8.81422 3.92595 8.91319C3.74839 9.00945 3.6317 9.05024 3.52681 9.06583L3.64445 9.85714C3.87669 9.82261 4.08588 9.73648 4.30721 9.6165C4.52353 9.49923 4.77456 9.33636 5.08399 9.136L4.64918 8.46448ZM0.858968 8.26174C1.13662 8.54023 1.45041 8.85506 1.73607 9.11722C1.879 9.2484 2.01966 9.37082 2.14903 9.47113C2.27217 9.56662 2.40894 9.66111 2.54061 9.71607L2.84877 8.97781C2.81866 8.96523 2.75027 8.92502 2.63925 8.83893C2.53444 8.75766 2.41192 8.65164 2.27699 8.52781C2.00693 8.27996 1.70628 7.97852 1.42549 7.6969L0.858968 8.26174ZM3.52681 9.06583C3.3037 9.099 3.06894 9.06971 2.84877 8.97781L2.54061 9.71607C2.89117 9.8624 3.27294 9.91237 3.64445 9.85714L3.52681 9.06583ZM2.82154 6.77514L3.05077 6.5137L2.44923 5.9863L2.22001 6.24774L2.82154 6.77514ZM1.36079 7.74608C1.62952 7.63895 1.79475 7.57382 1.95098 7.48813L1.56625 6.78672C1.46279 6.84346 1.35061 6.88891 1.06455 7.00295L1.36079 7.74608ZM2.23751 6.22902C2.01985 6.44734 1.93377 6.53271 1.84081 6.60556L2.33428 7.23523C2.47455 7.1253 2.59955 6.99897 2.80404 6.79386L2.23751 6.22902ZM1.95098 7.48813C2.08539 7.41441 2.21358 7.32982 2.33428 7.23523L1.84081 6.60556C1.75434 6.67333 1.66251 6.73392 1.56625 6.78672L1.95098 7.48813ZM7.51788 8.31422C7.29542 8.09109 7.29542 7.72883 7.51788 7.5057L6.95134 6.94087C6.4176 7.47622 6.4176 8.3437 6.95134 8.87905L7.51788 8.31422ZM7.51788 7.5057C7.73968 7.28324 8.09878 7.28324 8.32058 7.5057L8.88711 6.94087C8.3527 6.40485 7.48575 6.40485 6.95134 6.94087L7.51788 7.5057ZM8.32058 7.5057C8.54304 7.72883 8.54304 8.09109 8.32058 8.31422L8.88711 8.87905C9.42086 8.3437 9.42086 7.47622 8.88711 6.94087L8.32058 7.5057ZM8.32058 8.31422C8.09878 8.53668 7.73968 8.53668 7.51788 8.31422L6.95134 8.87905C7.48575 9.41507 8.3527 9.41507 8.88711 8.87905L8.32058 8.31422ZM1.3836 7.65488C1.39877 7.6701 1.4016 7.69047 1.39913 7.70282C1.39663 7.71535 1.38506 7.73641 1.36079 7.74608L1.06455 7.00295C0.565944 7.20171 0.445807 7.84735 0.817072 8.21972L1.3836 7.65488ZM4.0948 6.94087C3.83967 6.68497 3.64892 6.49332 3.50689 6.32887C3.36429 6.16375 3.2967 6.05463 3.26595 5.97114L2.51526 6.24765C2.59561 6.46579 2.73706 6.66144 2.90143 6.85176C3.06638 7.04276 3.28055 7.25724 3.52826 7.5057L4.0948 6.94087ZM3.26595 5.97114C3.2499 5.92756 3.24334 5.88924 3.24334 5.84993H2.44334C2.44334 5.98838 2.46829 6.12014 2.51526 6.24765L3.26595 5.97114ZM3.03284 6.53284L3.17345 6.39224L2.60776 5.82655L2.46716 5.96716L3.03284 6.53284ZM7.51788 3.50749C7.27608 3.26496 7.06674 3.0547 6.88027 2.89131C6.69463 2.72864 6.50489 2.58787 6.2955 2.50366L5.99702 3.2459C6.08137 3.27982 6.19057 3.35063 6.35304 3.493C6.5147 3.63465 6.70266 3.82288 6.95134 4.07232L7.51788 3.50749ZM6.2955 2.50366C6.15858 2.44861 6.01629 2.4188 5.86538 2.4188V3.2188C5.90705 3.2188 5.94831 3.22631 5.99702 3.2459L6.2955 2.50366ZM5.95154 2.50382L5.86342 2.59194L6.4291 3.15762L6.51722 3.0695L5.95154 2.50382Z" fill="#7F7F7F"/>
</g>
<defs>
<clipPath id="clip0_15_2393">
<rect width="12" height="12" fill="white"/>
</clipPath>
</defs>
</svg>
