<svg width="24" height="24" viewBox="0 0 24 24" fill="none" xmlns="http://www.w3.org/2000/svg">
<circle cx="12" cy="12" r="3" stroke="#E1E1E1" stroke-width="1.5"/>
<path d="M13.7654 2.15224C13.3978 2 12.9319 2 12 2C11.0681 2 10.6022 2 10.2346 2.15224C9.74458 2.35523 9.35523 2.74458 9.15224 3.23463C9.05958 3.45834 9.02332 3.7185 9.00913 4.09799C8.98827 4.65568 8.70227 5.17189 8.21896 5.45093C7.73565 5.72996 7.1456 5.71954 6.65221 5.45876C6.31646 5.2813 6.07302 5.18262 5.83295 5.15102C5.30706 5.08178 4.7752 5.22429 4.35438 5.5472C4.03876 5.78938 3.80579 6.1929 3.33985 6.99993C2.87391 7.80697 2.64094 8.21048 2.58901 8.60491C2.51977 9.1308 2.66228 9.66266 2.98519 10.0835C3.13258 10.2756 3.33972 10.437 3.6612 10.639C4.13381 10.936 4.43791 11.4419 4.43787 12C4.43784 12.5581 4.13376 13.0639 3.6612 13.3608C3.33966 13.5629 3.13249 13.7244 2.98509 13.9165C2.66219 14.3373 2.51968 14.8691 2.58891 15.395C2.64084 15.7894 2.87381 16.193 3.33975 17C3.80569 17.807 4.03866 18.2106 4.35428 18.4527C4.7751 18.7756 5.30696 18.9181 5.83285 18.8489C6.07291 18.8173 6.31634 18.7186 6.65205 18.5412C7.14549 18.2804 7.73557 18.27 8.21891 18.549C8.70225 18.8281 8.98827 19.3443 9.00913 19.9021C9.02332 20.2815 9.05959 20.5417 9.15224 20.7654C9.35523 21.2554 9.74458 21.6448 10.2346 21.8478C10.6022 22 11.0681 22 12 22C12.9319 22 13.3978 22 13.7654 21.8478C14.2554 21.6448 14.6448 21.2554 14.8478 20.7654C14.9404 20.5417 14.9767 20.2815 14.9909 19.902C15.0117 19.3443 15.2977 18.8281 15.781 18.549C16.2643 18.2699 16.8544 18.2804 17.3479 18.5412C17.6836 18.7186 17.927 18.8172 18.1671 18.8488C18.693 18.9181 19.2248 18.7756 19.6456 18.4527C19.9612 18.2105 20.1942 17.807 20.6602 16.9999C21.1261 16.1929 21.3591 15.7894 21.411 15.395C21.4802 14.8691 21.3377 14.3372 21.0148 13.9164C20.8674 13.7243 20.6603 13.5628 20.3387 13.3608C19.8662 13.0639 19.5621 12.558 19.5621 11.9999C19.5622 11.4418 19.8662 10.9361 20.3388 10.6392C20.6603 10.4371 20.8675 10.2757 21.0149 10.0835C21.3378 9.66273 21.4803 9.13087 21.4111 8.60497C21.3592 8.21055 21.1262 7.80703 20.6603 7C20.1943 6.19297 19.9613 5.78945 19.6457 5.54727C19.2249 5.22436 18.693 5.08185 18.1672 5.15109C17.9271 5.18269 17.6837 5.28136 17.348 5.4588C16.8545 5.71959 16.2644 5.73002 15.7811 5.45096C15.2978 5.17191 15.0117 4.65566 14.9909 4.09794C14.9767 3.71848 14.9404 3.45833 14.8478 3.23463C14.6448 2.74458 14.2554 2.35523 13.7654 2.15224Z" stroke="#E1E1E1" stroke-width="1.5"/>
</svg>
