<svg width="49" height="48" viewBox="0 0 49 48" fill="none" xmlns="http://www.w3.org/2000/svg">
<path d="M7.75089 20.5597C9.16779 20.5597 10.3342 19.413 10.3342 18.0205C10.3342 16.628 9.16779 15.3993 7.75089 15.3993C6.33399 15.3993 5.16748 16.5461 5.16748 17.9386C5.16748 19.3311 6.33399 20.5597 7.75089 20.5597ZM7.75089 17.4471C8.00132 17.4471 8.25092 17.6928 8.25092 17.9386C8.25092 18.1843 8.00132 18.43 7.75089 18.43C7.50046 18.43 7.25086 18.2662 7.25086 17.9386C7.25004 17.6928 7.50046 17.4471 7.75089 17.4471Z" fill="#7F7F7F"/>
<path d="M2.58336 37.9249C1.16646 37.9249 0 39.0717 0 40.4642C0 41.8566 1.16646 43.0034 2.58336 43.0034C4.00026 43.0034 5.16752 41.8566 5.16752 40.4642C5.16752 39.0717 4.00026 37.9249 2.58336 37.9249ZM2.58336 41.0375C2.33375 41.0375 2.08413 40.7918 2.08413 40.5461C2.08413 40.3003 2.33458 40.0546 2.58336 40.0546C2.83379 40.0546 3.08339 40.3003 3.08339 40.5461C3.08421 40.7918 2.83379 41.0375 2.58336 41.0375Z" fill="#7F7F7F"/>
<path d="M45.8333 23.5904C44.0836 23.5904 42.6667 24.9829 42.6667 26.7031C42.6667 28.4232 44.0836 29.8157 45.8333 29.8157C47.5831 29.8157 48.9999 28.4232 48.9999 26.7031C48.9999 24.9829 47.5007 23.5904 45.8333 23.5904ZM45.8333 27.686C45.2501 27.686 44.7501 27.1945 44.7501 26.6211C44.7501 26.0478 45.2501 25.5563 45.8333 25.5563C46.4166 25.5563 46.9166 26.0478 46.9166 26.6211C46.9174 27.1945 46.3334 27.686 45.8333 27.686Z" fill="#7F7F7F"/>
<path d="M35.9166 8.27304C37.9168 8.27304 39.5833 6.63481 39.5833 4.66894C39.5833 2.70307 37.9168 1.06485 35.9166 1.06485C33.9165 1.06485 32.25 2.70307 32.25 4.66894C32.25 6.63481 33.9173 8.27304 35.9166 8.27304ZM35.9166 3.11263C36.7503 3.11263 37.4999 3.76792 37.4999 4.66894C37.4999 5.56996 36.8335 6.22526 35.9166 6.22526C35.0006 6.22526 34.3333 5.56996 34.3333 4.66894C34.3333 3.76792 35.0006 3.11263 35.9166 3.11263Z" fill="#7F7F7F"/>
<path d="M13.5 35.8771C13.5 36.4505 14 36.942 14.5833 36.942H18.9995C19.666 38.744 21.4165 40.0546 23.4998 40.0546C25.5 40.0546 27.2497 38.744 27.8329 36.942H32.2492C32.8324 36.942 33.3324 36.4505 33.3324 35.8771V33.8293C34.9157 33.8293 40.9994 33.8293 40.6657 33.8293C41.249 33.8293 41.7482 33.3379 41.7482 32.7645C41.7482 32.5188 41.665 32.273 41.4978 32.1092L33.4148 21.1331V18.5119C33.4148 16.5461 31.8315 14.9898 29.8314 14.9898C29.2481 14.9898 28.7489 15.1536 28.2481 15.3174C28.2481 15.3174 28.2481 4.75086 28.2481 4.58704C28.2481 2.04779 26.1648 0 23.5814 0C20.998 0 18.9147 2.04779 18.9147 4.58704C18.9147 4.58704 18.9147 15.2355 18.9147 15.3174C18.4147 15.0717 17.9146 14.9898 17.3314 14.9898C15.3313 14.9898 13.7479 16.5461 13.7479 18.5119V21.1331L5.58184 32.1092C5.08181 32.7645 5.58183 33.7474 6.41467 33.7474H13.7479V35.8771H13.5ZM18.6675 34.8942H15.5841V33.4198H18.6675V34.8942ZM26 31.372H20.75V20.7235C22.3334 21.7884 24.4167 21.7884 26 20.7235V31.372ZM23.4166 19.4949C21.9997 19.4949 20.8333 18.3481 20.8333 16.9556C20.8333 15.5631 21.9997 14.4164 23.4166 14.4164C24.8335 14.4164 26 15.5631 26 16.9556C26 18.3481 24.8335 19.4949 23.4166 19.4949ZM26 13.1058C24.4167 12.041 22.3334 12.041 20.75 13.1058V7.69967H26V13.1058ZM23.5006 37.9249C22.0837 37.9249 20.75 36.7781 20.75 35.3857V33.5017H26V35.5495C26 36.8601 24.8335 37.9249 23.5006 37.9249ZM31.25 34.8942H28.0834V33.4198H31.1667V34.8942H31.25ZM38.5 31.7816H33.2501V24.6553L38.5 31.7816ZM28.1674 18.5119C28.1674 17.6928 28.8338 17.0375 29.6667 17.0375C30.4995 17.0375 31.1667 17.6928 31.1667 18.5119C31.1667 21.215 31.1667 28.7508 31.1667 31.2901H28.0834L28.1674 18.5119ZM20.8341 4.66894C20.8341 3.27645 22.0006 2.1297 23.4175 2.1297C24.8344 2.1297 26.0008 3.27645 26.0008 4.66894V5.73379H20.7509V4.66894H20.8341ZM15.5841 18.5939C15.5841 17.7747 16.2514 17.1195 17.0834 17.1195C17.9171 17.1195 18.5835 17.7747 18.5835 18.5939L18.6675 31.4539H15.5841C15.5841 28.8328 15.5841 21.2969 15.5841 18.5939ZM13.5 24.6553V31.7816H8.25002L13.5 24.6553Z" fill="#7F7F7F"/>
<path d="M39.1674 43.8225C39.001 41.6928 37.2513 39.9727 35.0007 39.9727C33.7502 39.9727 32.5838 40.5461 31.8333 41.4471C30.0836 40.3003 27.7506 40.628 26.3337 42.1843C24.6672 41.1194 22.4167 41.3652 21.0838 42.7577C20.1669 42.1843 19.0837 42.1843 18.0836 42.5119C17.3331 41.4471 16.0826 40.7099 14.6665 40.7099C13.0009 40.7099 11.5 41.6928 10.8343 43.1672C8.66698 42.5938 6.58447 44.2321 6.58447 46.3618C6.58447 46.9351 7.08365 47.4266 7.66689 47.4266C8.25012 47.4266 8.75016 46.9351 8.75016 46.3618C8.75016 45.6246 9.33343 45.0512 10.0831 45.0512C10.4167 45.0512 10.7503 45.1331 10.9167 45.3788C11.2495 45.6246 11.6663 45.7065 12 45.5427C12.3328 45.3788 12.5832 45.0512 12.6664 44.6416C12.7505 43.5768 13.6673 42.6758 14.7498 42.6758C15.6666 42.6758 16.4994 43.2491 16.7499 44.1502C17.0003 44.8874 17.9164 45.1331 18.4996 44.5597C19.0837 43.9863 19.9997 44.0683 20.5006 44.7235C21.0006 45.3788 21.9166 45.2969 22.2502 44.5597C22.9175 43.1672 24.9168 43.0034 25.8337 44.2321C26.3337 44.8874 27.3338 44.7235 27.6675 43.9863C28.2507 42.43 30.334 42.1024 31.3341 43.4949C31.8341 44.1502 32.8334 43.9863 33.1678 43.2491C33.5006 42.43 34.2503 41.8566 35.1679 41.8566C36.5848 41.8566 37.5849 43.2491 37.1681 44.5597C37.0017 44.9693 37.1681 45.3788 37.4185 45.6246C37.7513 45.8703 38.1681 45.9522 38.5018 45.7884C39.3354 45.4607 40.3347 46.0341 40.3347 46.9351C40.3347 47.5085 40.8355 48 41.4179 48C42.0012 48 42.5004 47.5085 42.5004 46.9351C42.2508 45.3788 40.9171 43.9863 39.1674 43.8225Z" fill="#7F7F7F"/>
</svg>
